/* XPM */
static char *_3529ad919c944829c323ad35b204e99[] = {
/* columns rows colors chars-per-pixel */
"64 64 230 2 ",
"   c #2C1A1B",
".  c #37311E",
"X  c #311720",
"o  c #3A2B2F",
"O  c #3C3928",
"+  c #54182A",
"@  c #5D1F32",
"#  c #542F3B",
"$  c #68263A",
"%  c #723A38",
"&  c #245400",
"*  c #265900",
"=  c #2C5D00",
"-  c #345F05",
";  c #2E6100",
":  c #336403",
">  c #356904",
",  c #386A05",
"<  c #356509",
"1  c #39640B",
"2  c #376809",
"3  c #3B6C0C",
"4  c #3E710C",
"5  c #3E6712",
"6  c #3D6D12",
"7  c #3F7111",
"8  c #237630",
"9  c #41750E",
"0  c #437A0E",
"q  c #426E12",
"w  c #436E1A",
"e  c #437413",
"r  c #497617",
"t  c #467A15",
"y  c #497D16",
"u  c #457519",
"i  c #4A751B",
"p  c #467919",
"a  c #4B7D1B",
"s  c #52781F",
"d  c #4F472C",
"f  c #555B2B",
"g  c #585738",
"h  c #684F32",
"j  c #4D7D21",
"k  c #527D22",
"l  c #5A7D2A",
"z  c #5E6236",
"x  c #666639",
"c  c #756335",
"v  c #687735",
"b  c #76763B",
"n  c #5C3747",
"m  c #703A49",
"M  c #584A42",
"N  c #775456",
"B  c #6D6949",
"V  c #767C45",
"C  c #7B4C61",
"Z  c #8D681D",
"A  c #A6583F",
"S  c #87713E",
"D  c #A86E27",
"F  c #832C49",
"G  c #962848",
"H  c #92334D",
"J  c #973853",
"K  c #A03C45",
"L  c #A62E53",
"P  c #A33457",
"I  c #A93B5C",
"U  c #B2325C",
"Y  c #C63867",
"T  c #D03E6F",
"R  c #8B4143",
"E  c #884650",
"W  c #A64749",
"Q  c #BB4B57",
"!  c #88674B",
"~  c #937F45",
"^  c #986654",
"/  c #8C7A51",
"(  c #A0645B",
")  c #BB6F55",
"_  c #88566A",
"`  c #935F61",
"'  c #9B5C78",
"]  c #A84363",
"[  c #B74469",
"{  c #AB5562",
"}  c #BC5274",
"|  c #B65877",
" . c #90666F",
".. c #9E667A",
"X. c #A86C66",
"o. c #B37872",
"O. c #C37E58",
"+. c #C0416D",
"@. c #D34877",
"#. c #C85574",
"$. c #D67276",
"%. c #4C8117",
"&. c #4E821D",
"*. c #51841E",
"=. c #54891E",
"-. c #4F8121",
";. c #538423",
":. c #588627",
">. c #568A24",
",. c #598C26",
"<. c #558529",
"1. c #5A862A",
"2. c #578929",
"3. c #5B8D2B",
"4. c #5C9126",
"5. c #5E922B",
"6. c #5C952B",
"7. c #5E8E31",
"8. c #5E9131",
"9. c #608D2D",
"0. c #61942E",
"q. c #63992E",
"w. c #699D2E",
"e. c #688B36",
"r. c #639532",
"t. c #669A33",
"y. c #699D35",
"u. c #6A9638",
"i. c #6B9D3A",
"p. c #719D3D",
"a. c #6BA02D",
"s. c #66A032",
"d. c #6CA136",
"f. c #6DA23B",
"g. c #6FA93B",
"h. c #73A738",
"j. c #71A53D",
"k. c #74A93E",
"l. c #309247",
"z. c #748643",
"x. c #6F9140",
"c. c #739A41",
"v. c #7E8D51",
"b. c #6EA040",
"n. c #73A542",
"m. c #75AA42",
"M. c #79AD45",
"N. c #77A948",
"B. c #7BAD49",
"V. c #7CB245",
"C. c #7DB24A",
"Z. c #7FB84C",
"A. c #8C8D4F",
"S. c #888354",
"D. c #92885B",
"F. c #879655",
"G. c #AE9A57",
"H. c #85BB44",
"J. c #81B54D",
"K. c #84BA4D",
"L. c #8EA958",
"P. c #83B552",
"I. c #8AB457",
"U. c #85BA53",
"Y. c #89BD54",
"T. c #8ABD59",
"R. c #948D68",
"E. c #D4995F",
"W. c #C6A954",
"Q. c #D0A452",
"!. c #D6B55A",
"~. c #DABA5D",
"^. c #D5896C",
"/. c #D8A662",
"(. c #E6BE6B",
"). c #E9A970",
"_. c #89C44E",
"`. c #88C354",
"'. c #8CC255",
"]. c #8EC35A",
"[. c #91C55C",
"{. c #94C95A",
"}. c #94CA5D",
"|. c #95C863",
" X c #96CB62",
".X c #9ACD64",
"XX c #9BD163",
"oX c #98D563",
"OX c #9DD269",
"+X c #A2D66A",
"@X c #A5D971",
"#X c #E1C25B",
"$X c #E5C866",
"%X c #ECD06B",
"&X c #F0C970",
"*X c #F7DD73",
"=X c #BB6E8C",
"-X c #B27389",
";X c #BC7893",
":X c #CF5881",
">X c #E15A8B",
",X c #CC6285",
"<X c #C8688B",
"1X c #D96892",
"2X c #CA7892",
"3X c #D77498",
"4X c #E1648F",
"5X c #E66998",
"6X c #E9739D",
"7X c #DA7FA3",
"8X c #EC79A2",
"9X c #CA8396",
"0X c #E38E97",
"qX c #E6B292",
"wX c #D887A4",
"eX c #DE84AD",
"rX c #CF9AB4",
"tX c #EA87AA",
"yX c #E293AF",
"uX c #E48AB1",
"iX c #EA8FB4",
"pX c #F48CB1",
"aX c #EB99B6",
"sX c #EF95B9",
"dX c #F598BB",
"fX c #F99EC0",
"gX c #FFA5C5",
"hX c #FCABCC",
"jX c #FDB5D4",
"kX c #FFBCDD",
/* pixels */
"a e [.J.;.u.m.m.K.OXr.;.[.K.5.K.+X}.m.t 0.t.4 &.;.;.&.B.C.t.>.&.0.5.r.5.f.}.B.* t 3.>.=.,.=.=.K.[.m.r.e 5.t ; j.XXXXk.y 5.B.f.y.",
"p.r.;.*.k 1.9.t.3.;.:.;.q.,.r :.*.Y.U.V.h.q.j.f.&.>.e =.&.t y.m.0.,.&.&.y.Z.t., t 0.f.j.J.h.4.Z.k.5.r.3.f.0.: m.XX}.[.5.0.r.3.t.",
"p.p.a r i :.9.:.i - i i ,.;.1 5 : m.K.}.h.4.U.C.*.y.t.=.9 9 0.j.y.=.4 ;.,.t.t.3 >.t.y.J.XXK.d.f.0.>.>.3.m.f.4.h.J.'.'.K.y.&.>.>.",
"*.;.i.r.a n.I.q 5 l k :.[.J.= i r 0.h.{.K.h.4.t.B.[.[.t.y.j.t 4 C.t.4 >.t.5.5.t h.m.4 0.{.+XK.9 * 3 4 &.B.Y.}.B.6.h.K.+Xy.3 >.>.",
"j.y.3.u.u.u.i.r a c.:.3.}.k.& i.I.*.4.J.m.m.>.,.t.>.5.;.q.[.y.6.5.f.C.,.=.C.j., V.[.=.>.q.h.U.m.t.0.k.m.5.t.t.5.>.5.y.t.0.y ;.5.",
"C.y.e 3.B.9.k r :.P.r.3.U.j.3 N. X0.,.d.d.f.>.;.5., * =.d.].K.B.,.j.[.t.=.J.B.: y.U.5.>.y.d.m.XXY.q.V.U.t.5.5.t.j.t.4.>.0.y.t.j.",
",.:.r.3.5.1.i - r B.:.= ;.3.,.y.k.Y.C.=.t t e i.OXt.; f.J.m.k.k.K.B.%.r.B.0.;.&., : 4 t. Xm.=.C.y.=.4.d.m.Z.].'.K.k.'.@XV.m.K.C.",
":.3.3.t.Y.n.i k :.:.k q k :.U.k.q.k.r.4 t.j.e 3.Y.t.9 5.t.q.d.h.h.q.y 3.r.>.;.a t a 2 7 5.&.y J.f.y y.Z.>.j.{.{.[.m.y.0.j.}.XXY.",
"r.3.>.B.Y.t.9.r.:.r q a a ,.}.j.6.5.>.e m.T.p &.r.,.;.y >.>.>.,.f.0.t &.;.y y , >.;.3 : = e =.U.C.&.m.U.e t.XX].U.k.6.*.d. X].C.",
"a 3.Y.U.0.,.a *.0.i.N.n.:.r 5.6.V.m.d.=.y =.4 4 9 4.m.3.&.t =.,.].Y.i.C.m.>.j.U.m.C.3.i e f.C.J.j.0.q.>., 3.OXh.9 y m.[.t.%.9 : ",
",.f.B.0.e t.B.>.5.C.j.t.3.>.m.>.&.C.m.=.t &.t.d.d.y.5.,.3.t 3.0.i.f.>.J.Y.>.f.Y.f.r.&.;.2.3.r.j.g.B.m.f.3 y C.t.y 3.t.f.f.d.6.>.",
"y.B.>.y a y.].0.,.J.y.t.,.t.XX>.> U.C.y y >.K.+XOXk.&.>.3.;.5.5.t t = m..X4.y.C.,.p ,.5.i.t 3 ;.5.B.m.f.&.t =.>.r.m.i.t k.OXJ.m.",
">.0.*.f.`.Z.V.,.e *.*.,.,.f.OXK.`.Z.>., &.y =.&.,.0.f.t.,.5.,.>.].m.3 B.}.%.&.5.;.>.Y.U.m.&.t y t 5.-.;.J.Y.m.0.&.>.r.,.d.J.>.;.",
"3.1.i t.`.V.5.a a 3.*.i 1.t.m.m.m.r.;.1 3 t r.t.f.y.t.4.0.0.y >.C.i., r.Y.f.f.,.3.>.0.d.y.y &.p -.3.p y B.m.t.j.i.r.i.t.m.k.t e ",
"a i < e ,.,.,.;.i.J.3.e i &.,.&.t 7 -.3.;.3.T.OXOXJ.y.;.,.>.;.;.y t : 3.Y.Y.J.,.f.f.> 4 5.>.;.>.5.3.a &.;.t 3 m..XU.B.t.j.f.y 4 ",
"1 < - - < r 1.:.>.>.*.*.;.;.3.;.>.a 7 r p ;.m.J.C.>.&.=.&., &.;.;.e e n.C.,.=.y h..Xf.t.m.5.r.].J.&.&.>.;.-.y y >.&.3 4 t.m.>.r.",
"6 j u q ;.;.>.&.&.y.y.0.:.j 3.1.2.r a ;.<.1.r.t.y.0.e.p.y.>.,.r.j.3.,.U.[.0 y 0.m.].K.V.y.r.3.J.m.j.f.f.;.r i y ,.;.*.a i.t.3.r.",
":.u.k 9.n.r.r.>.f..X[.n.<.p <.7.3.3 7 ;.j a ;.V S.l X.D.}.m.j.m.C.J.m.U.J.3 5.@Xi.y.OXJ.;.y.3.* a OX.X].r.-.t.r.3.;.i.OX0.4 C.B.",
";.r.C.J.,.t.i.r.i.3.a 7 3 u 1.;.2.3.f.J.3.-.D.wXJ o.hXo '.V.f.t.,.y..X}.[.F.( ^ i.f.0.j.Y.f.;.;.>.>.J..Xr.;.a r.n.;.3.J.Y.J.3.3.",
"a r.U.J.3.m.C.,.>.-.r u j j r 3.i.r.f.T.u.S.wXkXL iXkX2XB d.y.m.t.f.J.K.#.,XpX@.*.r.=.y..Xd.a f.t.r f.Y.;.;.r.r.y.;.3.t.J.Y.t i ",
"6 ;.&.n..X.X X4 e n.I.T.U.i.= n. Xe < 7.1./ eXkX1XkXkXkXM 9.h.}. XI.( @.gXgXdX$.v s p.'..X*.; f.y.:.;.;.* &.OXn.:.p e y k.Y.>.3 ",
"u j ;.;.3.n.B.;.-.i.;.;.].k.3 5.n.e u 1.z.5XkXkXkXkXkXkX2Xg j.Y.u.X.pXgXgXgX:X! } [ R.[..XK.y.3.3.a r.n.y.r.r.3.2.3 >.J.[. Xi.y.",
"j 6 a j a t.r.2.;.8.3 2 P.k.y.>.>.0.8.a z.5XkXkXkXkXkXkXrXg 3.i.v 4XgXgXgXgXpX8XgX=XR.].K.P.B.3.:.1.r.N.P.i.y >.1.i y.OXY.J.m.N.",
"< 3 <.:.1.5.1.a a r 3.<.: ,.@X}.{.OXU.-.{ hXkXkXkXkXkXkXrXg y 3.#.dXgXgXgXgXgXgXgX..z.0.: r ;.;.a ;.;.y &.y.N.;.7 i.B.B.5.*.a 0.",
"2.r.U.m.&.y.f.B.b.: r j 6 ;.j.V.L.L.F.w ] kXkXkXkXkXhXgXwX@ L L # yXgXgXgXgXgXgXwXg J.m.,.d.B.5.y.U.3.y m.y.i.>.;.y.f.0.3.,.i ;.",
"f.m.].C.t i.B. XT.2 6 a a ;.z./ 4X4X4X! P dXjXgXgXgXgXgX,X,XpX5X+.E tXgXgXgXgXgX .v. XY.B.[.Y.&.y.OXy.;.P.f.r.3.5.;.;.r.r.r.:.a ",
"8.1.2 3 ;.3.5.3.2.7 r.i.;.F.2X8XgXgXgXtX,X:XgXgXgXgXgXsXL pXhX6X>XG ' iXsXgXgXgXO ;.=.y.m.t.;.= e n.U.N.1.;.3.U. Xt y U.t.3.3.;.",
"i p j 3.r.:.1.B.i.a 8.r.3.u.X.iXgXgXgX} H @ 3XgXgXgXgXuXL 5X6X5X>XF _ eXeXuXuXn e.3.r j..Xt.i 3 :.m.i.3.i :.;.t.f.: i T.;.e -.a ",
"e e y.b.2.i :.T.P.;.:.;.3.v v J fXdX} 1X6X@.,XfXgXgXgXJ K +.>X>XY W h ..=X_ d e.8.8.a r.[.i.;.;.&.P.r.t r ;.;.i i = a m.3.7 : 7 ",
"N.n.r -.3.;.< ; e ;.2.3.L.] 4X4XsX=X[ jXdX4X+.,XgXgX3Xh W.% F F m S !.. d z.>.e ; ; a a ;.5.B.B.N.n.1.;.2.2.:.i.P.a :.r.r.1.;.3.",
"i.y.a a :.r.3.a j r 7.i.x.! tXgXgX..H 6X8X>XT @ ,XdX} /.*XW.~ A.G.$X!.~ f a 6 e 7 p e i m.d.t.3.i.C.m.y.;.&.;.:.r.3.2.r a 2.:.:.",
"1.:.r ;.3.n.P.n.r.* 8.n.= f -XgXgX<XL T @.T T X (.^.) %X&X0X9X(.*X%X!.!.  R R R E ;.t i.@Xf.%.; t  XU.B.t.&.7 e i N.r.; ;.2.: ;.",
"3.;.a 3.3.:.;.< r b.3.i j a x -XwXeXC H L U % !.*X*X*X*X&XQ K (.*X%X!.!.X } eXeX3XP ! :.j.J.Y.M.j.y.0.>.U.n.t r.5.1.3.a r 1.J.C.",
"t.y ;.3.-.i q < i i.;.1 r.3.&.V B _ ;XC n % ^.qX).*X*X*X*X#X!.*X*X$X!.!.o eXeXeXeXuX<X! g.U.Y.g.0.0.3.>.P.C.y.t.;.3.1.2.e a +X[.",
"d.5.r.:.*.e < r ;.3.a i M.m.y &.e.F.N n n ! $.<XQ *X*X%X) E.*X*X%X!.!.c ' eXeXsXsXfXgX3Xc n.M.5.;.3.:.5.a r..X5.t B.r.3.5.i. XJ.",
"U.J.5.f.U.i.r.:.j r.r.9.t.C.].5.t >.c.x.e.b Q.D /./.W K G ) *X*X~.!.!.. eXiXfXgXgXgXgXgXR t.y.r r 1.;.;.&.,.U.,.t ].B.&.y.m.t.=.",
"`.Z.g.C.J.j.n.3.>.r.1.;.3.n.Y.y.-.-.;.-.b m S %X*X*XO.G :XqX$X!.!.W.h ;XeXiXgXgXdXJ . O g a j 3 3 >.;.p r.3.;.r.h.}.m.r j.J.;.;.",
"4.0.m.y.=.y.g.&.>.t.&.y 5.3.>.t.f.t.3.v } eX' ~ %X*X%X) 1X^.!.!.W.h m | eXeXsXgXgXtXo.J.r r a r.r.8.3.-.P.r.= n..X.Xj.= d..X>.i.",
"i ;.:.3.d.Z.`.Z.d.i.m.C.i.t.n.t.2.2.b | eXeXeX' c W.$X~.^.E.!.c h + C G } eXuXgXgXgXtXB 0.e e r.1.r 2.;.i.3.= j r.y.B.B.'..XK.J.",
":.a ;.t.B.V.U.oXU.y.n.C.j.m.V.g.>.2.^ pXeXeXeXeX=X` . Z D % . H H wXaX# F.P P iXgX-Xo v.r.r 3 y.:.1 -.:.e r r e &.;.f.J.J.[.C.C.",
"3.;.f.B.i.t.g.j.f.t.a a 3.g. X XU.x 3XgXdX7XeXeX<XI I @.-X8 l.9XiXdX] e., *.3.^ O z 3 3.B.B.C.3.p 7 p a 1 < a ;.3.r.;.: 1.B.2 r ",
"3.r i.r.4 i r.3.:.:.q a y.J.OXk.y.S.} 3X6X6XuXeX} 3XiXdX9X8 R.eX8X1XE S.i.9.a &.1.,.i t.Y.k.5.>.1.i.<.r i.8.;.7 e P.f.p -.p r -.",
":.< 1.:.3 a :.3 e k < a n.B.U.q.&.I.R.S.[ gXdXuX=Xh ^ :XeX;X;XeX1X3XeX<XD.r.i : *.,.3.t.U.y.&.3.f.n.2.1..XU.5.3 3 U.U.5.6 = a 3.",
":.i :.9.3.:.r = : :.j q t >.C.U.g.y t >.I gXsXn M / | @.eXeXeXeXW A P 3XR :.9.:.3.n.y.5.f.=.y j.,.e p a y 5.f.i 3 6 i i.3.;.5.t.",
"<.e i i :.y.i.i.3.a 3 3 m.f.t B.].>.;.8.m O O e.n.V | o D { 7XP Z W.!.. r 9.1.1 i k :.r a r.C.n.t.3 a 1.0.t.5.a p 3 e y.j.i.1.-.",
"k e 3 q ;.n.J.Y.J.3.3 a [.m.* t..X>.3.>.;.;.U.m.;.&.v g ~ Q.^ $ B x S d < u.:.= q 1 q e a m. Xd.y.r.y a J.j.r e a <.r.3.k.K.y r ",
"3.3.q i e e &.y r.d.U.U.&.e a ;.3.y 0. Xt.;.[.J.t C.T.;.f h x v ,.c.v.u.*.y.3.i r.r.i :.f.t.h.h.j..X3.< e 5. XB.1.j a r.h.k.a t ",
"0.1.r.1.= :.5.4 ,.6.`.XX3.*.3.f.B.>.3.J.r.t.C.Z.5.d.f.;.;.e.9.m.f.m. Xt.>.r.r.3.;.;.r 3.B.k.h.y.V.}.q.y &.1.U.i.&.<.a 1.m.Y.y.*.",
"i.5.C.i.: 3.B.=.=.=.V.OXn.i.>.U. Xt.>.n.3.r.d.m.OX5., =.&.y i.C.Y.[.B.t.>.i.0.>.,.r >.n.Y.].m.=.4.[.}.j.;.;.N.*.7 3.<.2.J..Xy.0.",
">.,.>.5.t.U. X].m.=.s.k.0.5.4.4.>.t %.&.r ,.5.6.6.M.Y.4.y t &.y 5.q.5.,.5.>.y.J.a 1 ;.a 4 ;.5.0 4.K.d.0.0.0.>.3.;.a ;.a t >. X'.",
"1.y s.g.5.B.J.Z.f.4.,.5.>.>.;.p ;.>.6.g.r.t e ;.,.V.`.4.6.r.&.t y.f.j.5.*.y.y.C.&.e 5.=., &.y.,.t.0.4.y.V.k.5.a j j a j 6 p B.B.",
"r.&.Y.J.y 3.5.>.,.0.5.5.r.-.4 y ;.i.M. Xy.t a 5.m.g.f.6.f.C.y.>.B.J.Y.0.=..XC.,.r.r.m.j.r.f.J.K.t.0 0.m.{.].n.3 : a j <.p j y =.",
"i.0.a j 1.e > B.B.>.&.y 3.&.;.>.y r.>.&.4.y.y 5.}.Z.6.>.0.f.t.3.0.>.y j.U.,.,.j.y.0.>.*.;.r.B.'.V.y.h.0.y 7 2 8.m.m.5.e 6 :.J.w.",
"f.;.3 e 3.a 4 U.C.t.3.3.;.y >.>.r.t y 5.r.t.*.3.M.m.g.6.0.y.>.5.3.3.&.B. X=.d.J.0.;.&.a ;.t.h.h.h.J.k.t.;.r e 3.m.m.t.2.a 1.U.d.",
":.6 r.f.3.m.V.4.h..XC.y.e 3 3.y.0.; >..Xy.t >.e ; 4.Z.d.5.0.r t y.j.j.Y.}.k.V..X3.;.3.r.3.,.%.> =.C.y.t.[.[.J.>.e r j i.r.:.3 a ",
"<.:.&.>.6.f.j.4.q.K.m.5.;.5. Xt.e g.k.4.M.J.3.;.r.i.d.f.r.&.=.>.,.,.q.0.t.j.j.C.3.i :.r.r.t.f.h.V.[.5.4 ,.*.%.m.N.j < 2 ;.r.-.7.",
"1.<.,.>.&.f.Z.%.4.C.5.4 t.j.].r.3 B.C.>.y.C.y.f.C.r.4.5.y.f.,.5.>.3.>.t ;.f.j.r.>.-.a ;.3.5.f.Y.Y.m.,.*.r t *.V.B.a e 7 5.f.r.3.",
"5 < Y.U.t J.OXy %.C.&.4 }.K.t < 1 1 0.].&.4 g.6.t >.r.e q.OXt.y j.5.1.3.>.5.>.;.;.;.1.;.-.t =.m.y.>.y.m.-.t. Xd.&.;.3.j.B.j.y 4 ",
"- u y.m.f.5.;.r.i 3.y t }.K.y r 1 e a 5.;.=.U.V.&.3.5.t >.f.y.f.0.a p ;.>.C.r.i r a i.3.7 7 i >.;.a d.k.>.1.f.e 3 y.j.B.y.0.k.a.",
"1 i 6.g.g.&.: a 5.5.3.4.K.J.r.3.t.4 e a :.5.Z.V.>.*.>.3.>.&.,.5.5.>.a a =..XB.a 3 7 j.r.3 < r ;.;.e h.V.3.1.5.i 3 j r.m.;.y +X_.",
"< ; _._.&.t.i.3 >.Y.XXY.4 t f.]. X> y J.;.3 r.>.;.;.5.B.V.B.=.: B.N.r.1.>.}.B.;.&.a 0.3.a e 2.B.i.y k.C.< -.[.k.;.6 < 2.a ;.{.H.",
"y.d.oX`.>.5.t.&.t.XXC.d.>.3.t.k.Z.y &.B.a 3 m.d.i.>.&.m.y.&.9 a [.T.5.=.>.N.3., n.N.;.y a 3 4 5.y.>.0.3.3 -.J.4.r ;.6 j a ;.h.w.",
"Y.}.`.V.t.;.a a y.[.t.=.f.r.5.t.d.6.>.3.;.;.].].m.3.4 1.i = 9 0.Y.J.;.,.0.a e 4 J.Y.,.=.,.i r :.&.3.;.p 2.3.;.*.a 1.3.-.;.-.;.a ",
"=.0 y &.a ;.2.3.*.=.J..Xt t U.f.>.U.f.3 : r g.g.4.e 3 3.r.;.e e ,.,.*.C.C.: a  Xm.'.K.U.n.>.-.a -.3.;.a r.3.t B. X;.3 < ;.n.2.8."
};
