/* XPM */
static char *_dc05d6cb8654e50eaeebc8bf2aab1c3tKKPRr3XbGBpNEHo[] = {
/* columns rows colors chars-per-pixel */
"64 64 209 2 ",
"   c #130905",
".  c #1C1C1C",
"X  c #151515",
"o  c #0E0905",
"O  c #211F16",
"+  c #23100B",
"@  c #3B330F",
"#  c #23221C",
"$  c #2E291A",
"%  c #352F19",
"&  c #3A3314",
"*  c #39331D",
"=  c #3A351A",
"-  c #30290F",
";  c #1F1E20",
":  c #242424",
">  c #2A2524",
",  c #2B2A25",
"<  c #2A2728",
"1  c #2C2C2C",
"2  c #272825",
"3  c #312E2F",
"4  c #312E25",
"5  c #2E302F",
"6  c #3A3523",
"7  c #3F3A26",
"8  c #32322D",
"9  c #39362D",
"0  c #39372A",
"q  c #2E2E30",
"w  c #343433",
"e  c #3A3A35",
"r  c #3C3C3B",
"t  c #383737",
"y  c #481714",
"u  c #651F1D",
"i  c #473A0D",
"p  c #433B1B",
"a  c #473C16",
"s  c #423D29",
"d  c #423B23",
"f  c #423E34",
"g  c #572929",
"h  c #772A2A",
"j  c #722B2C",
"k  c #57480F",
"l  c #5C4B0F",
"z  c #4A411E",
"x  c #4D4013",
"c  c #594914",
"v  c #564918",
"b  c #574912",
"n  c #624F0A",
"m  c #6D580C",
"M  c #66530C",
"N  c #725C0C",
"B  c #775F07",
"V  c #635215",
"C  c #6C5A13",
"Z  c #62531B",
"A  c #7E650B",
"S  c #796417",
"D  c #4C4425",
"F  c #534A26",
"G  c #564C27",
"H  c #4B4633",
"J  c #43423D",
"K  c #484536",
"L  c #534D39",
"P  c #5B522D",
"I  c #725E21",
"U  c #7D6925",
"Y  c #6D6131",
"T  c #3E3E40",
"R  c #3F4140",
"E  c #434343",
"W  c #4A4A47",
"Q  c #474749",
"!  c #494748",
"~  c #4B4B4B",
"^  c #474846",
"/  c #4E504F",
"(  c #575448",
")  c #535353",
"_  c #5B5B5B",
"`  c #585758",
"'  c #77575A",
"]  c #7A4648",
"[  c #61615F",
"{  c #5E5F62",
"}  c #615F60",
"|  c #5F6160",
" . c #646464",
".. c #6B6B6B",
"X. c #676867",
"o. c #737373",
"O. c #737679",
"+. c #7B7B7B",
"@. c #787A7B",
"#. c #746C6D",
"$. c #8C2D2B",
"%. c #86292A",
"&. c #972F2E",
"*. c #98302F",
"=. c #8E3333",
"-. c #813B3D",
";. c #9B3232",
":. c #856B0B",
">. c #846906",
",. c #8C720A",
"<. c #8D7106",
"1. c #927307",
"2. c #9C7C05",
"3. c #93760A",
"4. c #9C7C0C",
"5. c #987809",
"6. c #866E14",
"7. c #8D7313",
"8. c #967B18",
"9. c #A17F03",
"0. c #AC4F51",
"q. c #83787B",
"w. c #924E4F",
"e. c #C06062",
"r. c #E57B7F",
"t. c #A48205",
"y. c #A4830A",
"u. c #AD8A09",
"i. c #AB8705",
"p. c #B38E05",
"a. c #BC9504",
"s. c #B7920D",
"d. c #BF9709",
"f. c #A48412",
"g. c #AE8E17",
"h. c #BA981D",
"j. c #C49B03",
"k. c #C99E02",
"l. c #C19807",
"z. c #C19A15",
"x. c #CDA103",
"c. c #CAA10B",
"v. c #C7A007",
"b. c #D2A503",
"n. c #DBAC03",
"m. c #D5A906",
"M. c #D9AF15",
"N. c #E4B302",
"B. c #E8B502",
"V. c #ECB901",
"C. c #E8B80B",
"Z. c #F2BD01",
"A. c #F1BF08",
"S. c #EABA1A",
"D. c #F6C001",
"F. c #F9C201",
"G. c #FBC501",
"H. c #FFC700",
"J. c #FFC701",
"K. c #FEC601",
"L. c #FEC702",
"P. c #FEC601",
"I. c #FFC800",
"U. c #FFC801",
"Y. c #FEC901",
"T. c #FFC902",
"R. c #FFC801",
"E. c #917E82",
"W. c #7F8488",
"Q. c #848484",
"!. c #868A8E",
"~. c #8B8B8B",
"^. c #83878C",
"/. c #93878B",
"(. c #8B8D92",
"). c #939393",
"_. c #9C9C9C",
"`. c #92959A",
"'. c #A3969D",
"]. c #999EA3",
"[. c #A59DA3",
"{. c #9DA1A8",
"}. c #A3A3A3",
"|. c #AAAAAA",
" X c #A4A6AC",
".X c #AFB3B9",
"XX c #B2B5BB",
"oX c #BABABA",
"OX c #B4B4B4",
"+X c #EA8185",
"@X c #B8BFC5",
"#X c #BDC4CA",
"$X c #BEC4CA",
"%X c #C4C6CC",
"&X c #C2C6CC",
"*X c #C6CDD4",
"=X c #C8CDD3",
"-X c #CCD3DC",
";X c #CAD1D6",
":X c #D2D6DD",
">X c #D4D9DF",
",X c #D5DBE3",
"<X c #D8DEE5",
"1X c #DBDFE8",
"2X c #DBE2EA",
"3X c #DAE1E7",
"4X c #E0E7EF",
"5X c #E3EBF3",
"6X c #E6EFF8",
/* pixels */
"U.U.U.U.U.U.U.U.U.U.U.J.U.U.U.U.U.U.U.U.J.U.U.U.U.U.U.J.U.U.T.U.U.U.U.U.U.U.U.U.U.U.U.U.U.U.U.J.U.U.U.U.U.U.U.U.U.U.U.U.U.U.U.U.",
"U.U.U.U.U.U.U.U.U.U.U.U.U.U.U.U.U.U.U.U.U.U.U.U.U.U.U.U.U.U.U.U.J.U.U.U.U.U.U.U.U.J.U.U.U.U.J.U.U.U.U.U.U.U.U.U.U.U.U.U.U.U.U.U.",
"U.U.U.U.U.U.U.U.U.U.U.U.U.U.U.U.U.U.U.U.U.U.U.U.U.J.J.U.U.U.J.U.U.U.U.U.U.U.U.U.U.U.U.J.U.U.U.U.U.U.U.U.U.U.U.U.U.U.U.U.U.U.U.U.",
"U.U.U.U.U.U.U.U.J.U.U.T.U.U.J.J.U.U.U.U.U.U.U.U.U.U.U.U.U.U.J.J.b.B.U.U.U.U.U.U.U.U.J.U.U.U.U.U.U.U.U.U.U.U.U.U.U.U.U.U.U.U.U.U.",
"U.U.U.U.U.U.U.U.U.U.U.U.U.U.U.U.U.U.U.U.U.U.U.U.U.U.U.U.U.U.F.C w p U.U.U.J.J.U.U.U.U.y.t.U.U.U.U.U.U.U.U.U.U.U.U.U.U.U.U.U.U.U.",
"U.U.U.U.U.U.U.U.U.U.U.U.U.U.U.U.J.B.J.U.U.U.U.U.U.U.J.U.U.D.V r r % U.U.U.U.U.U.U.J.6.E 8 j.U.U.U.U.U.U.U.U.U.U.U.U.U.U.U.U.U.U.",
"U.U.U.U.U.U.U.U.U.U.U.U.U.U.U.U.4.w k J.U.U.U.U.J.U.U.U.J.C E E t <.U.U.U.U.U.U.F.C E ` w n.U.U.U.U.U.U.U.U.U.U.U.U.U.U.U.U.U.U.",
"U.U.U.U.U.U.U.U.U.U.U.J.U.U.U.b.w ! # F.U.U.U.U.U.U.U.J.6.E ^ r = Z.U.U.U.U.U.A.v E ` ` a U.U.U.U.U.U.U.U.U.U.U.U.U.U.U.U.U.U.U.",
"U.U.U.U.U.U.U.U.U.U.U.U.U.U.U.2.w E # G.U.U.U.J.J.U.U.s.E ^ r 8 l.U.U.U.J.x.6.9 ^ ` _ r b.U.U.U.U.U.U.U.U.U.J.U.U.U.U.U.U.U.U.U.",
"U.U.U.U.U.U.U.U.U.J.J.U.U.U.U.2.r ^ # G.U.U.U.U.U.D.y.E ! r 8 M.U.U.F.s.z t ^ ) _ } ! M U.U.U.x.M.U.U.U.U.U.U.U.U.U.U.U.U.U.U.U.",
"U.U.U.U.U.U.U.U.U.U.U.U.U.U.J.k r ! # G.U.J.U.G.a.F ! ~ E w 6.U.U.n.6 r r E ) ~ _ ) C J.U.J.3. .o.i.U.U.G.G.U.U.U.U.U.U.U.U.U.U.",
"U.U.U.U.U.U.U.U.U.U.U.U.U.U.D.= r r $ G.U.U.F.C E ) ) ! r 8 i.U.v.e r r ` o.X.! ! 6 l.:.J.:.@.}.X.k.U.f.* D B.U.U.U.U.U.U.U.U.U.",
"U.U.U.U.U.U.U.U.U.U.U.U.U.J.n.w ^ r n U.U.Z.P ! ~ ) ~ ! r 1 1.d.w w ~ X. .^ ! ^ < # 1 t u.X.~.X.c J.6.E ` J k.U.U.U.U.U.U.U.U.U.",
"U.U.U.U.U.U.U.U.U.U.U.U.U.U.y.E ^ w n J.V.p R ) _ _ ` ~ ^ r # w w ) X.) ^ ` w 1 1 . r , K _.+.G F.3.r _ ! >.J.U.U.U.U.U.U.U.U.U.",
"U.U.U.U.U.U.U.U.U.U.J.U.U.U.m r r w x F.& w ! ` X.o... .) r w t ! X./ ! ` 1 w r 1 . E : ~.|._ k.J.6 ~ _ a U.U.U.U.U.U.U.U.U.U.U.",
"U.U.U.U.U.U.U.U.J.U.U.U.U.D.> r r w 8 C < E ` X.O.+.Q.O._ w r r  ...T _ w w w w < : E w |.~.Z U.J.7 ) _ O D :.J.U.U.U.U.U.U.U.U.",
"U.U.U.U.U.U.U.F.D.D.D.U.J.F.p r r r r w 1 ^  .O.+.Q.~.@.^ t w _ o.~ _ ) w w w < : r w O.}.X.a Z.J.v ~ _ : r r B U.U.U.U.U.U.U.U.",
"U.J.U.U.U.U.v.4 1 1 1 S n.J.S r r r r r r 1 ` o.Q.Q.~.X.w w ^ X.@.~ _ ~ 1 w : : r r  .).~._ 1 % 2.m ^ _ r w r . U.U.J.U.U.U.U.U.",
"U.J.U.U.U.U.5.9 r r ^ ^ e c.m r E r r E ^ r 1 ) o.@.o.r w w _ @.~. .) ` w : w E r ` }._.+._ 1 1 < : E ` ~ w w Z U.U.U.U.U.U.U.U.",
"U.U.U.J.U.U.U.b.h.C ^ ` ! E w : w r r r E ! r < ) ` r t < ~ X.~.).Q.X.~ ! E E r ` _.oX)..._ 1 w 1 2 ^ ` ~ < p V.U.U.U.U.U.U.U.U.",
"U.U.U.U.U.J.J.J.J.G.G ~ ` X.X.) r : < w r E ~ ^ < w w w : _ X.).).).~.o.r r w  ._.oX|.@.X._ : 1 : r ! _ r i D.U.U.U.U.U.U.U.U.U.",
"U.U.F.u.7.s H H H H e r _ o.O...) w r ^ E 1 E ) ^ : : w < _ X.Q.).).).Q.X.1  .`.oXOX)...X.` : : r ^ ) ` b G.U.U.U.J.U.U.U.U.U.U.",
"U.Z.F ) _ _  .X.X...O.X.! ! X.! ! ) ) ) ) ! < E ) E < w : `  .o.~.).).Q.X.~ ).OXoX|.Q...X.) . r E r ) U Z.J.U.U.U.U.U.U.U.U.U.U.",
"U.G.V 9 w t r E ~ `  .o.o.X.^ : w r E r r E ^ < ^ ) r : : w  . .X.O.O.X.) Q.|.oXoX`.@.X.X.) : w : : : D w p u.F.J.T.Z.D.G.U.U.U.",
"U.U.U.J.x.k.k.k.5.: r ` X.O.O.o.......X.X.~ r r 1 ~ ) w : . w _  . . ._ ! `.oXoXoX).O.X.X._ w < . 1 E ! ! ! E 6 4.8.4 5 6 V.U.U.",
"U.U.U.U.U.U.U.G.a : : : E  .o.+.Q.~.~.~.Q.O._ r w r ) ~ < : : : ~ ` ` w X.}.oXoXOX).o.X.X.) E 1 w ! E r r r r ^ ! ! ~ ! t x.U.U.",
"U.J.U.U.U.J.U.V.; : : : : ^  .o.Q.).).).).Q.@. .E : ! ` E : 1 : . . . : o.}.oXoX_.~...X._ ! r < w E r r w : < r r E E e l.U.U.U.",
"U.U.U.U.U.J.y.v w w : . : : !  .@.Q.).).).~.Q.o._ ! ^ ) ! E ^ E T r r < ` ~.}._.(.@.X.X.) E w < 1 w w w < w w a Z D b b.U.U.U.U.",
"U.U.J.U.N.z E _ X.X.X.~ < . : ! X.O.+.~.~.~.+.o. .) ! E E ^ ) _ _ _ Q 1 w X.+.@.X._ ` ~ E r 8 < 1 w w 5 : Q ~ , F.J.U.U.U.U.U.J.",
"U.U.U.4.r ! ! ) _  . ._ ! 8 : : !  .X.o.O.o.X. ._ ~ ^ r r w w r r r w 1 : w ^ ^ E E ^ r 1 1 1 < w r w : r ) ^ < p.U.U.U.U.U.U.U.",
"U.J.7.r E r f r ! ) ) ~ ^ r w < : 1 E ) ` ` ) ~ ^ r w w w 1 1 1 1 > t  .!. X@X$X#X$X&X@X]. .1 : w w < r ) ! r : b.U.U.U.U.U.U.U.",
"U.3.w r C n.U.B.6 r ^ ^ E T w 1 < < : < w w w w w w 1 1 1 1 1 : E O. X;X3X3X5X>X%X=X%X3X,X>X.X{ < r ~ ) ! r 1 A U.U.U.U.U.U.U.U.",
"U.F.k.b.U.J.n.j.u., w r r r r w 1 : : : 1 r f r w 3 1 1 1 < w O.{.-X5X6X6X<X-Xq.-.=.$.] %X3X:X3X`.w r E r 1 f.U.U.U.U.U.U.U.U.U.",
"U.U.U.U.F.I E ! r w . 1 w w w 1 : < r ) _ _ _ _ ! w 1 1 > E (.$X3X,X:X,X4X2X' 0.r.0.;.*.h %X,X2X2X(.: < : i.F.U.U.J.U.U.U.U.U.U.",
"U.U.U.Z.Y _ ` ~ `  .~ < 1 < : w )  .X.X...X.X.` ^ w 1 1 > ^.,X4X3X5X3X5X3X[.u e.+Xw.y u &.#.<X:X2X-Xt : 1 w 1 V Z.U.U.U.U.U.U.U.",
"U.U.Z.F ~ E r r r ~ | _ 1 1 ` X.o.@.@.@.@.@.X.! E w q q 1 r XX3X5X2X,X,X3X'.%.;.g + o   %.' :X<X2X*Xt w ) ) ! r s N.U.U.U.U.J.U.",
"U.U.S ! E e C <.F r ^ E E X.O.+.@.@.@.+.+.o.` ^ R w 1 1 3 1 ` .X>X3X4X2X2X|.%.&.y   o + $.' <X2X<X_ 1 ~ E ^ ) ~ E 9 n.U.U.U.U.U.",
"J.J.D ! 0 b.J.U.Z.K w E o.@.@.@.+.+.+.+.O._ ! ^ w q 1 1 1 w > _  X;X,X1X,X&Xh ;.$.y y h =.XX,X,X!.: ^ r r r r ~ ) ^ w x.U.U.U.U.",
"U.U.S D N.U.U.U.U.b.E O.@.+.+.+.+.@.O...` ! ^ r w 1 1 : w r w 1 Q W.@X,X3X5X/.j ;.;.*.=.[.3X*X^.1 r r r r 1 : r ) ) E 8 a.U.U.J.",
"U.U.U.U.U.U.J.U.F.G O.+.Q.Q.@..._ ~ ! ! ! ^ r w w < : ~ ..| E t 1 > ) `.#X:X,X%X/.E./.$X=XXX..1 1 r w r w < 2.p.r ) ) E w V.U.U.",
"U.U.U.U.U.U.U.G.U o.+.q..._ ~ ^ ^ ! ^ ^ E r w q : J ..@.O. .! r w 1 , < ~ @.].{.{.].].!.X.3 < 1 1 w r r 1 : p.J.l.^ ) ~ T a.U.U.",
"U.U.U.U.J.U.U.8.X.+...) ^ E w 1 : : : w 1 1 1 : ` @.@.O. .~ ^ r r w 3 1 1 : > < < 3 # : < : , < 1 w r w : M J.U.U.m.J E d V.U.U.",
"U.U.U.U.U.J.8. .@._ ^ w . < r E r w w w 1 1 < X.@.@.X.) ! ! ^ r w w 1 w w w w 1 1 1 w 1 < : : < w r 1 : . z.U.U.U.U.G.G.J.U.U.U.",
"U.U.U.U.U.u._ @._ r % t.6 ^ ! E r w 1 1 1 < ..@...) ! ! ^ E w 1 : . r _ ! E r w w r ) r : < : : < < : < E 1 V.U.U.U.U.U.U.U.U.U.",
"U.U.U.U.d./ @._ 9 1.J.J.7 ^ r w w 1 3 < : X.@.[ ! ! ^ E w 1 : . 1 _ X.` ! ^ E r w w E ` ^ : : : : : : < r w 2.U.U.U.U.U.U.U.U.U.",
"U.U.U.G.D o.X.f S.U.U.f.E r w 1 1 1 , : X.o.` ! ! ^ r 1 : : . / O.X._ ~ ! ! E r w w w r ` ~ : : : : : w r w 2.U.U.U.U.U.U.U.J.U.",
"U.U.U.G.Z  .L n.U.U.p.r E w 5 1 , S 8.X...~ ! ^ E 1 : . X .  .O.X._ ) ~ ~ ^ r < : 1 w w E E w : : : < w r w a.U.J.U.U.U.U.J.J.U.",
"U.U.U.U.G.m.V.U.U.B.8 E w 1 1 l Z.v. ...~ ! ^ w . : < : . ~ @. .` ~ ~ ~ ~ E 1 : w 1 : w w w w w # c , 1 w C J.U.U.U.U.U.U.U.U.U.",
"J.U.U.U.U.U.U.U.F.= E r w * N.U.z._ ..~ ^ r : : 1 w w < X ..o._ ) ~ ~ ~ ! w : w r w 1 : < 8 w w 1 V.V.j.n.U.U.U.U.U.U.U.U.U.U.U.",
"U.U.U.U.U.U.U.U.u.r r 8 A J.U.C.( X.~ ^ w : 1 1 1 1 w : w @.X._ ~ ~ ~ ^ w : w w r 1 : : # 1.6 w w y.U.U.U.U.U.U.U.U.U.U.U.U.U.U.",
"U.U.U.U.U.U.U.D.* r w l U.U.F.L o.) ^ , < 1 1 < 1 1 < : r @.X.` ~ ! E 1 : w w w < : : & k.J.a.1 w :.U.U.U.U.U.U.U.U.U.U.U.U.U.U.",
"U.U.U.U.U.U.U.2.r w % F.J.U.g.X.X.^ : < < < < < : : : : r @..._ ~ E 1 1 w t 1 : . . . t.U.U.B.: w :.U.U.U.U.U.U.U.U.U.U.U.U.U.U.",
"J.U.U.U.U.U.U.j.8 1 x.U.U.D.K O./ 1 : : : : . . . : : - K @.o._ ^ < : : : : . . < : : N U.U.B.: w :.U.U.U.U.U.U.U.U.U.U.U.U.U.U.",
"U.U.U.U.U.U.U.J.3.p.U.U.c.% ) ..Q . . . 1 w w 1 < # m Z.d O.o._ 7 t.N N N N O 1 w , : & U.U.C.: w = U.U.U.U.U.U.U.U.U.U.U.U.U.U.",
"J.U.U.U.U.U.U.U.J.J.G.m.: : ^ X.^ . w r w < : @ >.Z.U.J.@ o...~ i.U.J.J.J.J.N w r 1 : & U.U.C.: 1 $ U.U.U.U.U.U.U.U.U.U.U.U.U.U.",
"U.U.U.U.U.U.J.J.U.4.2 c M l s X.! 1 1 < : x b.U.U.U.U.U.2. ...~ a.U.U.J.J.U.V.4 r 3 : & U.U.U.u.% 1.U.U.U.U.U.U.U.U.U.U.U.U.U.U.",
"U.U.U.U.U.U.U.U.J.B., w 1 < : ~ _ E . c N.J.U.U.U.U.U.U.V.W ..` 0 j.S J ^ a.U.<.w w : & U.U.U.U.U.U.U.U.U.U.U.U.U.U.U.U.U.U.U.U.",
"U.U.U.U.U.U.U.U.U.U.n.& : 1 < . _ _ t s.U.U.U.U.J.U.U.U.G.v O. .` ) ` X...N U.F.< w , & U.U.U.U.U.U.U.U.U.U.U.U.U.U.U.U.U.U.U.U.",
"U.U.U.U.U.U.U.U.U.J.U.J.Z.9.9.9.,.)  .w B.U.U.J.U.U.U.U.U.N.( O.o...o. .S J.J.J.a w : i U.U.U.U.U.U.U.U.U.U.U.U.U.U.U.U.U.U.U.U.",
"U.U.U.U.U.U.U.U.U.J.U.U.U.U.U.U.U.a.p 8.U.U.U.U.U.U.U.U.U.U.B.z H L Z b.J.U.U.G.= w # b.U.U.U.J.U.U.U.U.U.U.U.U.U.U.U.U.U.U.U.U.",
"U.U.U.U.U.U.U.U.J.U.U.U.U.J.J.U.U.U.U.U.J.U.U.U.U.U.U.U.U.U.U.U.U.U.U.U.U.U.J.A w : <.U.U.U.U.U.U.U.U.U.U.U.U.U.U.U.U.U.U.U.U.U.",
"U.U.U.U.U.U.U.U.U.J.U.U.U.U.J.U.U.U.U.U.U.U.U.J.U.J.U.U.U.U.U.U.U.J.U.U.U.U.:.w : t.U.J.U.U.U.J.U.U.U.U.U.U.U.U.U.U.U.U.U.U.U.U.",
"U.U.U.U.U.U.U.U.U.U.U.U.U.U.U.U.U.U.J.U.U.U.U.U.U.U.U.U.U.J.U.U.J.U.U.U.J.U.n.n n.U.U.U.U.U.U.U.U.U.U.U.U.U.U.U.U.U.U.U.U.U.U.U.",
"U.U.U.U.U.U.U.U.U.J.U.U.U.J.U.U.U.U.U.U.U.U.J.U.J.U.U.U.U.U.U.J.U.U.U.U.U.U.U.U.U.U.U.U.U.J.U.U.U.U.U.U.U.U.U.U.U.U.U.U.U.U.U.U."
};