/* XPM */
static char *f07b3297a34842179a94a7e4a5e2413dWlQKifyeFp5vHCru[] = {
/* columns rows colors chars-per-pixel */
"64 64 182 2 ",
"   c #030303",
".  c #0D0504",
"X  c #060807",
"o  c #080806",
"O  c #060709",
"+  c #090708",
"@  c #070909",
"#  c #0A0B0C",
"$  c #130505",
"%  c #1B0606",
"&  c #1C0709",
"*  c #140B0C",
"=  c #190808",
"-  c #0E100F",
";  c #0E0E11",
":  c #110D11",
">  c #0F1012",
",  c #121315",
"<  c #1C1416",
"1  c #151619",
"2  c #18171C",
"3  c #17181C",
"4  c #191A1D",
"5  c #230706",
"6  c #230B0B",
"7  c #2B0B0A",
"8  c #330C0D",
"9  c #3D0E0E",
"0  c #3C100F",
"q  c #3C0E10",
"w  c #221111",
"e  c #2C1314",
"r  c #2F1619",
"t  c #2F1E1E",
"y  c #341211",
"u  c #3C1213",
"i  c #3B1918",
"p  c #1D1E22",
"a  c #2F1F20",
"s  c #271E23",
"d  c #351F21",
"f  c #3C1F22",
"g  c #1F2024",
"h  c #212226",
"j  c #25262A",
"k  c #28272D",
"l  c #27282C",
"z  c #292A2E",
"x  c #3D2325",
"c  c #3E2528",
"v  c #352A2E",
"b  c #3A292C",
"n  c #332427",
"m  c #2C2D32",
"M  c #312E33",
"N  c #3B2E32",
"B  c #2F3035",
"V  c #2F3239",
"C  c #313136",
"Z  c #3C3237",
"A  c #34353A",
"S  c #37383D",
"D  c #39393E",
"F  c #3E353A",
"G  c #430F0E",
"H  c #490F0E",
"J  c #42100F",
"K  c #49100F",
"L  c #52130E",
"P  c #450F11",
"I  c #431212",
"U  c #4D1212",
"Y  c #4B1817",
"T  c #4B1719",
"R  c #4D191A",
"E  c #461C1E",
"W  c #531313",
"Q  c #5D1414",
"!  c #531718",
"~  c #591718",
"^  c #54191A",
"/  c #5C1819",
"(  c #601414",
")  c #621817",
"_  c #611718",
"`  c #611819",
"'  c #442B2E",
"]  c #4C282A",
"[  c #432D31",
"{  c #443134",
"}  c #43373C",
"|  c #4E3135",
" . c #52373C",
".. c #373A41",
"X. c #3B3D43",
"o. c #3C3F48",
"O. c #3D4047",
"+. c #3E4248",
"@. c #414247",
"#. c #42454C",
"$. c #4E444B",
"%. c #44484F",
"&. c #48494E",
"*. c #4C4044",
"=. c #51464D",
"-. c #58494E",
";. c #59444B",
":. c #444751",
">. c #464951",
",. c #4A4C55",
"<. c #4C4F58",
"1. c #574E53",
"2. c #4C5057",
"3. c #4E515A",
"4. c #51545D",
"5. c #58555E",
"6. c #51585E",
"7. c #58595E",
"8. c #535661",
"9. c #5A5760",
"0. c #565963",
"q. c #595D66",
"w. c #5B5E69",
"e. c #5D616C",
"r. c #616066",
"t. c #62646D",
"y. c #6A656D",
"u. c #63686E",
"i. c #626671",
"p. c #656974",
"a. c #696C75",
"s. c #6A6E79",
"d. c #6E727D",
"f. c #71757E",
"g. c #7A757C",
"h. c #727681",
"j. c #757985",
"k. c #7A7C85",
"l. c #7A7E89",
"z. c #847C82",
"x. c #7E818C",
"c. c #7F8591",
"v. c #81848F",
"b. c #868084",
"n. c #828691",
"m. c #858994",
"M. c #888C96",
"N. c #878C98",
"B. c #8A8E99",
"V. c #8D919C",
"C. c #91949E",
"Z. c #9296A1",
"A. c #969AA4",
"S. c #999DA6",
"D. c #9B9EA9",
"F. c #9DA1AA",
"G. c #A2A5AE",
"H. c #A4A6B1",
"J. c #A6AAB2",
"K. c #AAADB5",
"L. c #ACAFB8",
"P. c #ADB1B7",
"I. c #AEB1B9",
"U. c #B2B5BC",
"Y. c #B5B8BF",
"T. c #B9B8BE",
"R. c #B7BAC1",
"E. c #BABDC3",
"W. c #BEC1C6",
"Q. c #C1C2C7",
"!. c #C3C5CA",
"~. c #C7C8CD",
"^. c #C9CACE",
"/. c #CBCBD2",
"(. c #CFD0D5",
"). c #D0D1D6",
"_. c #D4D4D9",
"`. c #D9DADE",
"'. c #D9DADE",
"]. c #DDDEE2",
"[. c #E5E6E8",
"{. c #E5E5E7",
/* pixels */
"( ( ( ( ( ( ( ( ( ( ( ( ( ( ( Q ( ( ( ( ( ( ( ( ( ( q.f.h.j.v.m.M.v.j.h.d.p.! ( ( Q ( ( ( ( ( ( ( ( ( ( ( ( Q ( ( ( ( ( ( ( ( ( ",
"( ( ( ( ( ( ( ( Q ( ( ( ( ( ( ( ( ( Q ( ( ( Q ( ( ( w.R.Z.B.S.K.K.H.C.m.~.x.W ( ( ( ( ( ( ( ( ( ( ( ( ( ( ( ( ( ( ( ( ( ( ( ( ( ",
"( ( ( ( ( ( ( ( ( ( ( ( Q ( ( ( ( ( ( ( ( ( ( ( ( ( 3.0.8.j.m.I.K.H.d.h.:.e.T ( ( ( Q Q ( ( Q Q ( ( ( ( ( ( ( ( ( ( ( ( ( ( ( ( ",
"( ( ( ( ( ( ( ( ( ( ( ( ( ( ( ( ( ( ( ( ( ! -.y.f.:.,.p.D %.j.v.J.k.,.#.3.w...s.h.p.' Q ( ( ( ( ( ( ( ( ( ( ( Q ( ( ( ( ( ( ( ( ",
"( ( ( ( ( ( ( ( ( ( ( ( ( ( ( ( ( ( ( R y.l.t.B.D.s.,.h.:.<.m a.v.D D 3.t.e.<.Z.G.l.t.x.| Q ( ( ( ( ( ( ( ( ( ( ( ( ( ( ( ( ( ( ",
"( ( ( ( ( ( ( ( ( ( ( ( ( ( ( ( ( ^ y.Z.I.H.e.F.).C.<.x.4.3.+.3.e.:.o.0.f.i.p.~.!.v.M.I.F.l.{ W ( ( ( ( ( ( Q ( ( ( ( ( ( ( ( ( ",
"( ( ( ( ( ( ( ( ( ( ( ( ( Q Q ] t.A.U.I.`.[.B.d.A.h.+.B.6.t.+.+.w.m e.e.x.t.2.G.x.s.`.{.Q.K.J.m.$.W ( ( ( ( ( ( ( ( ( ( ( ( ( ( ",
"( ( ( ( ( ( ( ( ( ( ( / ! U 9.B.S.U./.].{.E.n.C o.m C F.w.8.w.p.p.e.0.6.A.e.j O.z +.J.`.]._.E.J.Z.d.b I F T ( ( ( ( ( ( ( ( ( ( ",
"( ( ( ( ( ( ( ( ( Q  .U.p.+.M.F.J./._.F.d.#.m 1 , 1 B %.A o.<.i.p.0.+.....#.3 , # p ..e.n.!.`.!.F.F.3.3.U.l.x ( ( ( ( ( ( ( ( ( ",
"( ( ( ( ( ( ( ( Q g.`.U.j.w.<.G.Q.A.s.:.m 1 1 h h p 1 , # * * * * * * * ; , 4 p j g , h X.e.n.J.E.t.3.h.m.`.I.' ( ( ( ( ( ( ( ( ",
"( ( ( ( ( ( ( W l.~.K.v.q.n.w.>.w.,.z 1 , j j 4 , * 6 W ( ( ( ( Q ( ( ( Q Y < , 3 p z 3 , h X.8.6.3.j.d.p.F.R.K.[ Q ( ( ( ( ( ( ",
"( ( ( ( ( Q U l.A.I.R.C.<.p.n.X.+ 1 ; 4 h 4 4 ; y ` ( ( ( ( ( ( ( ( ( ( ( ( ( ! < , 4 g g , , 1 4 j.h.0.h.E.T.B.S.{ ( ( ( Q ( ( ",
"Q ( ( ( ( Q j.G.h.h.a.a.i.t.j.q.X ; 4 1 # * I Q ( ) _ ( ( ( Q ( ( ( ( ( Q ( ( ( ( / e , , 4 1 + C x.p.e.i.e.f.d.v.S.E ( ( ( ( ( ",
"( ( ( ( ( Q C q.e.6.#.6.6.j.w., > , + , D / ( ( ` ( ( ( ( ( ( ( Q ( ( ( ( ( ( ( ( ( ( w.B X , 1 # o.x.w.:.o.3.0.e.o.I ( ( ( ( ( ",
"( ( ( ( ( U 8.o.:.j.d.w.w.i., , ; # 1 3.p./ ( ( ( ( ( ( ( ( ( ( Q ( ( ( ( ( ( ( ( ( ( k.a.m + # , # #.d.3.i.h.e.S 3.=.( ( ( ( ( ",
"Q ( Q ( ( *.G.F.k.o.e.V.A , , # X p A h d./ ( ( ( ( Q ( ( Q ( ( ( ( ( ( ( ( ( ( ( ( ( z.#.C @.p + > > j t.m.%.q.S.G.M.U ( ( ( Q ",
"( ( ( Q W x.G.Q.].p.p h , , # ; #.<.4 h h./ Q ( ( Q ( ( ( ( ( ( ( ( ( ( ( ( ( ( ( ( ( b.%.h 6.0.m @ > , 1 4 o.Q.(.J.Z.=.( ( ( ( ",
"( ( ( ( $.Z.F.~./.0.j , , # 4 i.6.C p A h.~ ( Q ( ( ( ( ( ( ( ( ( ( ( ( ( ( ( ( ( ( ( z.8.l z 8.d.S + # , , O.S.`.J.A.B.U ( ( ( ",
"( ( ( W x.S.P.].V...1 1 + X e.w.l p j <.l.~ ( ( ( ( ( ( ( ( ( ( ( ( Q Q ( ( ( ( ( ( ( g.e.m z j #.l.2 + , , j p.`.!.F.A.1.( ( ( ",
"( ( ( } l.G.].^.i.p # , X h i.o.k o.o.q.j.~ ( ( ( ( ( ( ( ( ( ( Q Q ( Q ( ( ( ( ( ( ( a.d.q.o.%.C j.0.  # 1 , :.G.[.E.B.p.Q ( ( ",
"( ( Q 0.s.S.S.M.S ; 1 # X :.s.:.8.%.+.s.p.~ ( Q ( ( ( ( ( ( ( ( Q Q ( ( ( ( ( ( ( ( ( t.s.<.3.:.0.j.k., + , ; j p.F.F.C.i.U ( Q ",
"( ( U 0.n.W.l.O.1 ; , # 4 3.e.@.h 4 o.<.p.~ Q ( ( ( ( ( ( ( ( Q Q Q Q Q Q ( ( ( ( ( ( t.>.q.l S S f.n.S X , , # m e.J./.s.[ ( ( ",
"Q U Z l.m.Z.q.m , # + X C 6.w.j h S A ,.s.! ( ( Q Q ( ( ( ( ( Q Q Q Q Q Q Q ( ( ( ( ( t.q...3.q.o.e.Z.+.; + + # h #.n.S.n.3.i W ",
"5.I.U./.).Y.j.6.#.m 1 + S q.3.1 h :.:.A s.R ( ( Q Q ( ( ( ( ( Q Q Q W Q Q ( ( ( ( ( ( t.3.#.s.e...4.A.X.p o h o.3.i.G.^.).R.Y.M.",
"<.k.n.F.J.M.t.4.D p ; o C O.+., 4 +.o.3.i.U ( Q W W ( ( ( ( ( ( Q W W Q Q Q ( ( ( Q R 0.a.:.l.3.C 6.d.D h   1 m <.q.l.Z.J.m.n.e.",
"w ..<.0.t.t.r.O.X.+ # 4 o.p z 1 4 C 4.p.f Q ( Q W W ( ( ( ( ( ( Q W Q Q ( ( ( ( Q c w.>.5.p.a.#.A #.+.:.#.1 # z +.7.u.a.p.:.o., ",
"U %.e.V.G.R.V.s.,., X ; C , 4 1 p p q.Z Q Q Q W U U Q Q ( ( ( ( Q W Q ( ( ( ( ( c w.G.Z.<.a.o.S S o.g 2.+.# # 6.e.V.J.Y.V.i.#.# ",
"U <.4.:.v.C.p.S #.1   # O.4 p 1 h j p.I Q W U 0 J U W W Q ( ( ( Q Q Q ( ( ( ( Q <.M.E.A.d.0.w.<.S o.j a.4.X + q.,.4.m.C.e.S +.> ",
"U 3.4.o.3.e.#.m :.1   + A 1 p , #.m D U U 9 8 7 8 9 I U U Q ( ( Q Q ( ( ( ( ( c d.H.L.B.x.:.w.O.@.o.h 0.:.X + q.:.@.6.w.#.B #.> ",
"U 3.i.X.w.j.C 6.<.4   + A , 4 z m m t I 8 6 7 7 7 8 9 J I W Q Q Q Q Q Q ( ( ( X.h.x.H.R.J.4.3.S 0.o.h 3.%.X + 0.e.A p.h.C 8.%., ",
"y ..D %.@.<.o.#.:.l   X j , 4 S , X.y 9 & = 7 8 7 7 7 7 8 9 U U W W W ( ( ( ( e p.p.A.3.q.8.w.0.<.%.h +.A X , B S o.:.2.&.#.O.l ",
"6.B.F.W.).^.A.d.4.X.m , B 1 j C , D 9 7 $ & 8 9 P 9 8 7 8 9 G K K U W Q ( ( ( 7 q.p.O.p 1 C e.q.O.0.m :.,., A >.i.m.R.`.^.K.V.j.",
"A q.p.m.C.v.i.3.B h p X j p h 4 j M 8 & . & 7 G W U 8 7 8 9 U K G K U Q ( ( ( e w.h.j #.:.f.q.0.C %.:.j 4 + p z #.w.j.B.V.f.e.<.",
"$ : p ..#...j 1 X X +   m C j 3 A D 8 6 $ . % 8 U Q q 5 7 9 H G P W Q ( ( ( ( u <...p.j.i.w.#.j.D +.e.m 4   X X ; g C #.+.l >   ",
"% % O.M.S.C.i...# + X X l O.l , C A 8 7 7 5 7 U Q Q 8 . = 5 8 G W Q ( ( ( ( ( U X.A 3.>.S l #.p...o.d.m 4 p X + j 6.x.K.Z.e.+   ",
"% 5 #.B.J.Y.l.+., + X X g :.j 1 m z G 8 P U Q ( ( ( G % . $ 5 9 Q ( Q ( Q Q ( Q @.,.:.h p j ,.4.X.D h.m 3 p @ # z i.F.^.S.i.@   ",
"% % #.B.Y.!.h.o., # X X j :.l m j z W W Q ( ( ( ( ( W 7 . . . 7 W ( ( ( ( ( ( ( t 0.%.j j j 4.S 3.o.j.m 4 p + # z w.J.`.G.i.+   ",
". $ +.m.S.U.d.X.1 # + X j :.j p , j R ( ( ( ( ( ( ( ( W G 7 8 U Q ( ( ( Q ( ( ( Q M w.:.m z q.m B O.l.z 1 h + ; z 0.F.E.Z.w.+   ",
"    O.B.Z.A.i.A 1 ; # + j %.m 2 j , A U ( Q ( ( ( ( ( ( ( ( ( ( ( ( Q ( ( ( ( ( ( I o.:...:...A B %.l.m 4 j # , l 3.M.G.Z.w.+   ",
"    o.x.Z.n.q.S 1 # ; @ h #.m ; j @ j ..T ( ( ( ( ( ( ( ( ( ( ( ( ( ( ( ( ( ( ( Q ( r C 3.q.h g B @.h.m 4 z ; ; j 3.j.B.V.0.+   ",
"    o.l.A.B.i.X.3 , ; + p o.j ; C j 1 B ;.( Q ( ( ( ( ( ( ( ( ( ( ( ( ( ( ( ( ( ( ( Q %.x.C o.:.X.A s.k 4 z , : m 0.x.Z.B.0.+   ",
"    X.n.S.S.t...1 , # X 4 o.p X l j V 4 b ( ( ( ( ( ( ( ( ( ( ( ( ( ( ( ( ( ( ( ( ( ( C l <.,.#.h C p.l 1 j ; ; m 8.m.L.Z.8.+   ",
"    C l.F.F.i...1 ; X   1 ..h X   X p :.C Q ( ( ( ( ( ( ( ( ( ( ( ( ( ( ( ( ( ( ( ( ( N 0.q.4 1 , X.s.h , g + # z 6.n.E.B.<.X   ",
"    C k.F.G.i.S , + ; 4 A z p B %.3 4 j C ( ( ( ( ( ( ( ( ( ( ( ( ( ( ( ( ( ( ( ( ( ( N 0.m m #.e.#.#.p , p # # j 4.N.Q.B.<.X   ",
"    m h.F.G.e.C ; + 1 z o.; > g j z p 3 z Q ( ( ( ( ( ( ( ( ( ( ( ( ( ( ( ( ( ( ( Q ( b ..o.S q.O.B z e.6.B > + j <.m.E.B.:.X   ",
"    z s.A.S.w.m ; +   1 w.3 , 4 B p p 3 m Q ( ( ( ( ( ( ( ( ( ( ( ( ( ( ( ( ( ( ( ( ( v @.m O.S %.B j Z.<.4 X + g :.x.Y.c.#.X   ",
"    k i.V.B.3.h # #   1 <.1 , 4 4 p z p +.Q ( ( ( ( ( ( ( ( ( ( ( ( ( ( ( ( ( ( ( ( Q } <.o.+.X.A D j v.#., O X 3 o.d.J.l.o.O   ",
"    h q.m.n.#.p X #   3 %., 1 3 1 # ; m :.Q ( ( ( ( ( ( ( ( ( ( ( ( ( ( ( ( ( ( ( ( ( N 6.j 4 j A ..h s.+.1 + X , A i.G.h.A X   ",
"  X 6.k.V.v.<.h - ,   1 O., 4 # +   k :...W ( ( ( ( ( ( ( ( ( ( ( ( ( ( ( ( ( ( ( ( ( b t.0.h ; p o.h e.X., # # 4 ..a.F.n.u.3   ",
"  + <.C.Y.U.p.m 1 , X 1 A , g 4 B j l ,.m W ( ( ( ( ( ( ( ( ( ( ( ( ( ( ( ( ( ( ( ( ( n i.<.<.o.<.,.z q...4 , ; h <.S.W.J.p.h   ",
"# o.m %.p.p...p # # 1 m 6.p z 3...S 8.:.@.U ( ( ( ( ( ( ( ( ( ( ( ( ( ( ( ( ( ( ( ( ( Z 3.M.a.q.e.s.C 6.#.l , + 1 m 0.l.0.B #.j ",
"q.N.m.h.i.t.p.i.h.3.z 1 4 1 l A 3.,.C m m U ( ( ( ( ( ( ( ( ( ( ( ( ( ( ( ( ( ( ( ( ( v +.4.t.v.h.<.O.4 j p O.d.s.p.t.i.a.v.B.h.",
"f.K.G.Z.V.A.Z.x.j.e.%.p > p 3.#.C m z A m U ( ( ( ( ( ( ( ( ( ( ( ( ( ( ( ( ( ( ( ( ( v 6.3.6.2.w.x.6.4 , j 0.s.k.V.A.S.Z.S.I.A.",
"t.x.s.l.x.f.6.<.0.:.+.p , z m m C z p g 3 W ( ( ( ( ( ( ( ( ( ( ( ( ( ( ( ( ( ( ( ( ( s X.A #.#.8.:.8.g 1 l #.8.3.6.i.x.x.d.j.l.",
"8.M.l.F.U.M.s.3.0.O.C 4 , j l m h , 1 e W ( ( Q ( ( ( ( ( ( ( ( ( ( ( ( ( ( ( ( ( ( ( U m C z m :.:.<.1 , g ..3.3.e.x.C.P.n.m.h.",
"4.m.h.n.C.x.w.#.+.m j , , p h > , u Q Q ( ( ( ( ( ( ( ( ( ( ( ( ( ( ( ( ( ( ( ( ( ( ( ( ( U v ..z m +., # 1 m D @.3.h.m.B.j.x.d.",
":.h.s.h.d.i.<.X.A z 4 + ; > < U ( ( ( ( ( ( ( ( ( ( ( ( ( ( ( ( ( ( ( ( ( ( ( ( ( ( ( ( Q ( ( L d C m > o # j B D %.w.p.h.s.d.e.",
"X.6.w.w.e.6.+.m j 4 #   ; < Q ( ( ( ( ( ( ( ( ( ( ( ( ( ( ( ( ( ( ( ( ( ( ( ( ( ( ( ( ( ( ( ( ( ( Q a # X X , h m D 3.q.e.0.e.%.",
"A O.+...S B h p 1 1 p 1 8 Q ( Q ( ( ( ( ( ( ( ( ( ( ( ( ( ( ( ( ( ( ( ( ( ( ( ( ( ( ( ( ( ( ( ( ( ( ( W w g 1 , 3 g m A ..o.O.o.",
"I o.6.<.:.>...D D z e W ( ( ( ( ( ( ( ( ( ( ( ( ( ( ( ( ( ( ( ( ( ( ( ( ( ( ( ( ( ( ( ( ( ( ( Q ( ( ( ( ( W d A ..A #.<.,.3.<.f ",
"( Q U U U U U U W ( ( ( Q Q ( ( ( ( ( ( ( ( ( ( ( ( ( ( ( ( ( ( ( ( ( ( ( ( ( ( ( Q ( ( ( ( ( ( ( Q ( ( ( ( ( ( ( Q Q Q Q Q Q Q ",
"( ( ( ( ( Q ( ( ( ( ( ( ( ( ( ( ( ( ( ( ( ( ( ( ( ( ( ( ( ( ( ( ( ( ( ( ( ( ( ( ( ( ( ( ( ( ( ( ( ( ( ( Q ( ( ( ( ( ( ( ( ( Q ( ",
"( ( ( ( ( Q Q ( ( ( ( ( ( ( ( ( ( ( ( ( ( ( ( ( ( ( ( ( ( ( ( ( ( ( ( ( ( ( ( ( ( ( ( ( ( ( ( ( Q ( ( ( ( ( ( ( ( Q ( ( ( ( Q ( ",
"( ( ( ( ( ( ( ( ( ( ( ( ( ( ( ( ( ( ( ( ( ( ( ( ( ( ( ( ( ( ( ( ( ( ( ( ( ( ( ( ( ( ( ( ( ( ( ( ( ( ( ( ( ( ( ( ( ( ( ( ( ( ( ( "
};