/* XPM */
static char *_fa90295f88647e4c7c994440e92366at9tygiLT0iaLijLv[] = {
/* columns rows colors chars-per-pixel */
"64 64 211 2 ",
"   c #162332",
".  c #1F373E",
"X  c #483D2B",
"o  c #295A00",
"O  c #365F0A",
"+  c #2E6000",
"@  c #326402",
"#  c #366707",
"$  c #3B6D0C",
"%  c #3E710C",
"&  c #3D6C12",
"*  c #3F7112",
"=  c #275B25",
"-  c #37453E",
";  c #3A6D2E",
":  c #2A763D",
">  c #43691B",
",  c #437513",
"<  c #447610",
"1  c #467A15",
"2  c #497D16",
"3  c #47761A",
"4  c #4B7D1B",
"5  c #545031",
"6  c #6E502E",
"7  c #4C7B22",
"8  c #537B27",
"9  c #507030",
"0  c #6D6E32",
"q  c #153943",
"w  c #213B45",
"e  c #1B4647",
"r  c #195148",
"t  c #1A4351",
"y  c #294043",
"u  c #244A4B",
"i  c #384749",
"p  c #304E4B",
"a  c #285B4B",
"s  c #3B5B4A",
"d  c #275458",
"f  c #3A5657",
"g  c #1E6D43",
"h  c #1C6152",
"j  c #117E54",
"k  c #2F714C",
"l  c #346459",
"z  c #275E67",
"x  c #21706C",
"c  c #39756D",
"v  c #316875",
"b  c #2F7277",
"n  c #3F757D",
"m  c #475547",
"M  c #585B46",
"N  c #586448",
"B  c #44794C",
"V  c #4B6051",
"C  c #566659",
"Z  c #68724E",
"A  c #75774F",
"S  c #4A6C68",
"D  c #4C7476",
"F  c #647965",
"G  c #767F6A",
"H  c #8B713C",
"J  c #997944",
"K  c #4C8217",
"L  c #4E811C",
"P  c #51841D",
"I  c #54891E",
"U  c #4D8022",
"Y  c #45872E",
"T  c #538423",
"R  c #568A24",
"E  c #598C26",
"W  c #578529",
"Q  c #578929",
"!  c #5B8D2B",
"~  c #589627",
"^  c #5E922C",
"/  c #4B8D3E",
"(  c #5C8A32",
")  c #59973C",
"_  c #688D2C",
"`  c #61942D",
"'  c #67982D",
"]  c #628D36",
"[  c #639432",
"{  c #699637",
"}  c #669A33",
"|  c #699D35",
" . c #6A9C3A",
".. c #759B39",
"X. c #6CA92A",
"o. c #6CA237",
"O. c #6DA23A",
"+. c #71A53C",
"@. c #7CA53B",
"#. c #75AB3D",
"$. c #1F8559",
"%. c #338544",
"&. c #308E54",
"*. c #3C817D",
"=. c #528D51",
"-. c #6E984E",
";. c #778558",
":. c #73A442",
">. c #78A547",
",. c #76AA42",
"<. c #79AD45",
"1. c #7BAD4A",
"2. c #7DB346",
"3. c #7EB24A",
"4. c #6EA95A",
"5. c #528875",
"6. c #6F8A74",
"7. c #77AB67",
"8. c #88A93E",
"9. c #87B836",
"0. c #A2BC3C",
"q. c #B1C53A",
"w. c #C3C83F",
"e. c #C6D33D",
"r. c #D3D83C",
"t. c #80834F",
"y. c #8B8758",
"u. c #988D53",
"i. c #8DAC4C",
"p. c #8AB143",
"a. c #82B54D",
"s. c #84B94D",
"d. c #98B749",
"f. c #87B756",
"g. c #86BA52",
"h. c #8ABD53",
"j. c #ADA74B",
"k. c #8A8B73",
"l. c #8C9874",
"z. c #A09869",
"x. c #8AB371",
"c. c #B7A875",
"v. c #89C44E",
"b. c #8DC357",
"n. c #92C55C",
"m. c #94CA5C",
"M. c #A7C447",
"N. c #B8C94A",
"B. c #B2C859",
"V. c #BFD358",
"C. c #96C962",
"Z. c #9ACD63",
"A. c #9CD166",
"S. c #A9D36A",
"D. c #C4CC46",
"F. c #CBD55B",
"G. c #D2D950",
"H. c #E5E34F",
"J. c #2C7F81",
"K. c #4F7981",
"L. c #3E888A",
"P. c #4B8689",
"I. c #4C9696",
"U. c #549890",
"Y. c #5C9B9D",
"T. c #60868A",
"R. c #6B9597",
"E. c #609FA1",
"W. c #57A9A9",
"Q. c #61AAA7",
"!. c #73ABAC",
"~. c #65AFB0",
"^. c #6CB4B1",
"/. c #79B8B6",
"(. c #7FC6BD",
"). c #8D9B85",
"_. c #9F9E81",
"`. c #92B38E",
"'. c #9AA694",
"]. c #A6A98E",
"[. c #AEB293",
"{. c #B6B899",
"}. c #8FADAF",
"|. c #84BAB5",
" X c #8CBFBE",
".X c #C5B785",
"XX c #99C58E",
"oX c #96C8A9",
"OX c #A6C4BD",
"+X c #B1CFB1",
"@X c #DEE583",
"#X c #8ACDC7",
"$X c #95C6C5",
"%X c #92D0CB",
"&X c #98D7CF",
"*X c #A6CDCC",
"=X c #ACD0CC",
"-X c #ACD6D6",
";X c #A3D8D3",
":X c #AEDEDB",
">X c #B7D7D6",
",X c #B7E2DF",
"<X c #BFE1DD",
"1X c #D1DFDE",
"2X c #D1E0DF",
"3X c #C4E6E4",
"4X c #CBE9E7",
"5X c #D4EDEB",
"6X c #DDF1EF",
"7X c #E5F4F2",
"8X c #EDF7F6",
/* pixels */
"4 , b.a.T { ,.,.s.A.[ T n.s.` s.S.m.,.1 ` } % L P T L <.3.} E L ` ^ [ ^ O.m.<.o 1 ! R P E P I s.n.,.[ , ^ 1 + +.Z.A.#.2 ^ <.O.| ",
"..[ T P 7 Q ^ } ! T W T ' E 1 W P h.h.1.+.' +.O.L R , P L 1 } ,.[ ! L L | 3.} # 1 ` O.+.a.+.^ 3.+.^ [ ! O.` @ ,.Z.m.n.^ ` [ ! } ",
"....4 3 3 W ^ T 3 O 3 3 E T # & @ ,.s.m.+.^ g.3.P | } P < , ` +.| T % T E } } $ R } | a.Z.s.o.O.` R R ! ,.O.^ +.a.b.b.s.| L R R ",
"P T  .[ 4 >.f., > 8 8 T n.a.o 3 3 ` +.m.s.+.E } ,.n.n.} | +.1 % 3.} % R } ^ ^ 1 +.,.% ` m.A.s.< o % % L <.h.m.<.^ +.s.S.o.$ E R ",
"+.| ! { { { ..3 4 :.W ! m.+.o  .f.P ..f.1.,.R E } R | ! i.S.p.d.@.O.3.E I 3.+.$ 2.n.P R ' +.g.,.} ` #.,.^ } } ^ E ^ | } ` 4 T ^ ",
"3.| , ! 1.^ 8 3 T a.[ ! g.+.$ >.S.F.F.V.B.h.E T ^ { @X@XH.H.H.H.H.B.C.} P a.3.@ | g.^ R o.o.,.A.h.' 2.g.} ^ ^ } +.} ^ R ` } } +.",
"E R [ ! ` Q 3 O 3 1.T o T ! E ..D.e.q.M.9.M.a.>.S.F.G.G.G.H.H.H.H.H.8.| <.` T L # @ % } C.,.I 3.o.I ^ o.,.3.b.b.s.#.b.S.2.,.s.2.",
"W ! ! } h.:.3 7 W -...> T W f.d.q.M.9.9.9.9.X.#.M.G.N.q.q.e.H.r.H.r.r.i.[ R T 4 1 4 # * ^ L 2 a.O.2 | 3.R +.m.m.n.,.| ` +.m.Z.h.",
"[ ! R <.b.} [ d.V.H.F.D.p.{ i.O.#.X.#.9.9.9.X.X.0.q.9.9.V.F.G.e.e.e.r.p.T 2 4 # R T $ # o , P g.3.L ,.g., } Z.b.g.+.^ P o.Z.b.3.",
"4 ! h.g.` ! d.H.e.e.q.0.9.O.[ [ ~ ~ ~ ~ O.h.O.X.M.9.9.9.V.V.V.V.F.F.e.N.,.E +.f.,.3.! 3 , O.3.a.+.` ' R # ! A.+.< 2 ,.m.} K < @ ",
"E O.1.` , i.G.F.V.9.p.O.~ ~ [ U 4 U U ~ ~ #.Y ~ ~ ~ O.#.M.9.M.M.V.q.q.N.f.R O.h.O.[ L T Q ! [ +.O.<.,.O.$ 4 3.} 4 ! } O.O.o.^ R ",
"| <.R 2 L F.e.N.M.h.=.Y Y 7 7 3 4 ; ; ; ; Y Y U U U Y Y ~ ~ X.X.9.9.q.M.Z.^ | 3.E 1 E ^  .1 $ T ^ <.,.O.L 2 P R [ ,. .2 #.A.a.,.",
"R ` P O.B.F.h.h.h.7.&.Y Y U ; > > = = = = = = ; U U Y Y Y ~ ~ ~ X.9.0.d.m.K L ^ T R h.g.,.L 1 4 1 ^ U T a.h.,.` L R [ E o.a.R T ",
"! Q 3 } S.h.h.O.7.4.&.%.%.: > > ] 8 ; ; = = = ; B > Y Y ~ ~ ~ ~ X.p.p.[ h.O.O.E ! E ` O.| 4 L 3 U ^ 3 4 <.,.} +. .[  .} ,.+.1 , ",
"4 3 # , f.#.O.4.4.&.j j g ; > > > * T ( 9 ; -.h.5 A 0 8  . .} } ) W $ ! h.h.a.E O.O.# % ^ R T R ^ ! 4 L T 1 % ,.Z.g.1.} +.O.4 % ",
"$ # @ @ 3 -.Y %.j j h h a k > 0 ] 4 * 3 3 T ,.a.5 0 H T L $ L R R , , :.3.E P 2 +.Z.O.} ,.^ [ n.a.L L R T U 4 4 R L $ % } ,.R [ ",
"* 7 3 > T ! ) B h d a ; %.8 ( 9 W 8 4 T W Q [ } ] 6 .. .| R E [ +.! E g.n., 2 ` ,.b.s.1.| [ ! a.,.+.O.O.T , 3 4 E T P 4  .} ! [ ",
"R { 7 ] :.[ ] =.{ i.C.>.W 3 W ( 9 0 * T 7 4 W 8 8 5 H h.m.,.+.,.3.3.,.f.a.$ ^ S.| | A.a.T | ! o 4 A.C.b.[ U } [ ! T  .A.` % 3.1.",
"T [ 1.a.E }  .[  .! 4 * $ , Q T 8 0 O.a.8 6 J u.6 5 0 h.b.2.o.[ R | C.m.n.+.T %  .O.` +.h.O.T T R R a.Z.[ T 4 [ +.T ! a.f.a.! ! ",
"4 [ f.a.! ,.3.E R U 3 , 7 4 3 ( 5 ] O.0 6 J u._ f.' P C.b.o.| +.} O.a.s.s.,.[ 4 P [ P | Z.o.4 O.} , O.h.T T [ [  .T ! } a.h.1 3 ",
"* T L :.Z.Z.C.% , 1.f.f.f. .o Z ;., O 6 H H ( T ^ R P b.a.I +.m.C.a.#  .3.P } A.4 # | b.C.P + O. .R T T o L A.:.R 3 , 2 +.h.R $ ",
"3 7 T T E ,.1.T U M.T R h.:.$ 5 -., 5 6 J ! 1.O.U [ +.m.a.P +.h.[ ` T [ ^ <.+.2 O.1.h.n.C.s.} ! ! 4 [ >. .[ [ ! Q $ R a.n.C. . .",
"7 & 4 7 4 } [ W T 0.* _ f...( 5 8 0 X H H ( h.>.3 { 1.h.>.Q ( l.c..XB.{ E A.<.@ +.C.b.b.a.f.1.! R Q [ 1.a. .4 R Q 3 | A.f.a.,.>.",
"# $ W R ] @.Q 4 ] ..] ..8  .7 5 5 X X H 0 &  .| 4 [ L , * 8 6.).z.c.c..X{ n.a.1 , o o.` @ 1 T T 4 T T 4 L | 1.T *  .<.<.^ P 4 ` ",
"Q [ f.,.U M.B.d..._ @.p.8.~ 9 m M M 5 6 H 8 ,.O.3  .O.+.{ 6.F F k.z.c.c.i.[ ,.h.` ^ s.1.E O.1.^ | g.! 4 ,.|  .R T  .O.` ! E 3 T ",
"O.,.b.3.1  .d.F.d...8.p.X.=.6.k._.].[._.6 J >.>.-.x.XXXXP.S f p V Z y.z.y.W ..f.x._.[..Xc.C.f.L | A. .T f.O.[ ! ^ T R [ [ [ R 4 ",
"^ Q # $ T ! ^ ^ i...#.O.) 5.l 6._.].[.[.{.A '.6X5X5X<X4X}.d t u p m Z N N 6.)._.).].{..Xc.c._ o _ i.B.1.Q T ! f.C.1 4 f.} ! ! T ",
"3 3 7 ! [ R Q d.M.0.O.~ =.c p s G ].[.{.{.{.M C }.3X4X<X;X/.E.L.v u p a s 6.l.)._.).[..Xc.z.i., D.M.M.! 3 R T } O.@ 4 h.T , U 3 ",
", ,  .:.Q 3 R f.d.O.[ ; 5.l u p f G [.{.{.{._.N X T.-X3X4X,X:X%X/./.R.D S 6.l.l.G G G _.z.z.z.V.w.r.8.! 3 T T 3 3 o 4 ,.! * @ * ",
"1.>., U ! 7 # * p.U Y = c d u u p V [.{.[._.].z.X m I.-X<X3X5X4X5X,X8X8X7X}.S 6.C F F F k.j.j.r.r.r.r.0.[ Q R  .f.4 R [ [ Q T ! ",
" . .4 4 R [ ! 4 k ; = = c u u u u u 6.6.G ;.z.z.5 X S Y.-X,X5X6X7X6X4X7X8X7XOXc l l S C F p.q.e.e.e.r.G.0.T T R [ ! Q , 4 Q R R ",
"Q R 3 T ! :.a.-.B l C V a r q w w u d 5.A A ;.t.5 F  X$X!.:X,X6X7X7X<X5X5X5X5X}.u e u V B p.0.9.9.e.G.G.d.L * , 3 >.[ + T Q @ T ",
"! T 4 Q ( =.5.5.6.).].[.).u e w w q t C Z Z C M i  X3X5XK. X:X>X6X7X5X<X>X3X6X2XK.q q u ; Y 9.#.) 9.N.G.F.,.1 [ ^ Q ! 4 , Q a.3.",
"} 4 T ] U.P.K.6.k._.].[.[.'.f . q q q u N N f i f *X>X3XK.Y.-X$X5X6X6X-X$X3X5X3XOXe q . = = Y Y / #.0.N.N.a.| } T ! Q Q , 4 S.n.",
"O.^ ` 5.n K.D G k._._.].].].'.f q q q q u s p - D *X*X-XP.P.$X X=X5X5X=X$X*X5X3X>XD d V V s ; = : : ) M.D...Z.^ 1 B.[ ! ^  .C.a.",
"g.a.{ L.n D S G k.z._.].].'.'.'.i q q q q u u . R.$X X*XP.n /.$X/.5X5X=X X/.>X3X*XR.l F k.z.u.y.=.: %.p.N.d.g.` B.N.1.L | ,.} P ",
"b.3.=.L.c S S C F k.k._.).'.'.'.).q q q e e u d /././.$XD v !.$X!.3X4X-X/.!.$X,X$X}.u s F z.u.u.y.6.&./ ) ! T M.q.m.>., +.a.T T ",
"^ ` P.K.f f i i m C G k.).).'.'.+X6.r r r r r c  XE.!. XK.z Q./.R.>X4X-X!.E. X-X X Xd u s y.u.u.t.6.5.%.4.8._ q.Z.Z.+.o o.Z.R  .",
"3 T *.n d i i y i i V F k.).).'.{.[.V u d l l I.$XI.Q./.D z E./.E.*X5X-X!.E./.-X|. Xl u s A y.y.;.5.P.[ p.i.q...8.D.1.1.b.C.s.a.",
"Q 4 4.5.u u y w y i i i C F 6.).].].Z . y C f W.%XP.Y./.c z W.^.Q.$X4X:X|.U.Q.$X/.|.S e u N t.t.;.5.L.[ p.8.0._ 0._ O.a.s.n.a.3.",
"! T -.x.S u y w w y y i p f F k.6.;.A - . s S I.#X*.I.^.c x W.~.~.$X<X-X/.I.E./.~./.D e u N A t.;.5.P.B O.9.N.q.D.M.R @ Q 1.# , ",
"] ..O.) 5.y 6.y w w w w u u p Z N Z Z m   - S I.#Xb L.Q.c x W.~.~./.:X;X|.P.U./.W.!.T.e u s A t.;.5.*.: Y O.#.0.N.N.p.3 U 3 , U ",
"Q _ ] / j a : y w w w w u u p V N N N m   . v I.(.z J.Q.c x W.~.~.^.:X;X XP.I.^.I.!.T.e e s Z ;.;.5.*.g : B %.O.p.N.F.[ * o 4 ! ",
"Q 3 8.B l h a p s e e q e u u s s s p y     v I./.z L.W.c x W.W.^.^.;X;X X*.L.^.I./.T.e e s Z A F S C N t.z.-.=.O.#.0...! T ^ } ",
"W , 7 k B B a ;.s p e q e e u a d d u .     v L./.d J.I.c b W.W.^./.;X;X$Xn L./.L.|.T.e e a Z Z C p i N t.z.c.c.x./ 7.O.+. .Q U ",
"7 , 7 =.O.p.p.M.p.s i i i i u h h d u .     v L./.t J.I.c L.W.W.^.#X:X;X$Xb *./.L.$XT.e e a V V f . y i M y.u.z.c.k.B -.:.s.4 , ",
"! ] #.#.#.#.9.0.p.h.4.C C C C s h h r .     b L./.q J.I.*.L.W.W./.%X:X:X$Xc *./.P.=XT.t e u s s u . . y m A A N y.z.;.&.=.+.2 1 ",
"`  ./ / =.Y / O.9.#.) F 6.G A A Z s h w     v L./.q J.I.*.J.W.W.|.&X,X:X;Xx I.!.R.<X}.T.n z d l t w . w i i - i M y.z.F =.h.| P ",
" .) %./ %.= : / Y : : B k B N Z N N u e     v J./.q b I.L.J.W.W.(.;X3X3X:X*./.>X>X6X1X5X1X$XY.v t q q u y y w w - N A G Z Z.| ` ",
"=.&.j g g g g g g B =.=.k a a N M m y .     v b ^.q v I.L.L.~./.;X,X4X4X<X;X3X4X>X*X XOX=X!.R.v t t t t w w . . - M Z Z 9 R C.b.",
"$.j j j j j j &.=.t.y.t.Z r e p m s y q q   n n Q.e z W.I.L.~.#X3X3X5X5X3X5X3X>X}. X}.OX1X XT.R.z t d d t t t V N M Z A N ;.a.1.",
"=.: =.j j j J.*.F ;.y.t.A N u e s u t d v K./.E.^.P.L.Q.I.I.^.&X4X5X5X5X4X7X5X}.K.D T.D K.R.T.K.D z d z z d v V m i - i f 5.OX` ",
" .[ 4 8 %.$.L.x c S C F C m f t d z b I.E./.;X:X:X3X,X#X^.E.^.%X5X5X5X5X3X6X7X>XK.S K.D D K.}.}.R.}.=XP.b b v z z d d d *.L.|.7.",
"O.T $ , ! / J.x z d p p y y d l c c b I.W.$X%X%X;X,X3X3X:X X/.:X5X5X5X4X3X5X6X6X XT.OX1X6X>X7X6X5X>X*XE.L.P.L.*.*.*.P.I.U.Q.$X7.",
"R * [ :.! ,.=.; a a p m M C S S D L.I.U.W./.$X;X3X4X5X3X5X7X8X5X5X6X6X5X7X6X7X7X8X8X8X8X7X7X7X5X<X;X%X(./.^.Q.Q.Q.Q.Q.Q.Q. X`.L ",
"W R L E ^ O.+.E ' s.:.-.l.l.).R.R./.E.U.I.I.^.%X%X#X&X:X5X7X7X6X8X8X8X8X7X6X6X6X7X7X7X7X7X5X4X4X3X,X;X#X#X#X(.Q.Q.Q.~./.$X`.T ( ",
"( W E R L O.3.K ^ 3.^ % +.`.+X+XOXOXOX|././.$X-X-X(.%X,X5X5X7X7X8X7X7X6X4X3X5X7X8X7X6X7X8X8X5X:X;X&X%X%X#X(.(././.|. X=Xx.o.[ ! ",
"& # f.g.2 a.A.2 K 3.L % m.a.1 -.[.1X2X<X=X=X*X$X(.&X:X:X,X5X5X6X7X6X5X3X3X3X,X,X,X:X;X;X;X5X5X3X;X&X&X&X&X%X%X`.7.-.-.:.<.+.2 % ",
"O 3 } ,.O.^ T [ 3 ! 4 1 m.s.2 1 $ , ] `.+XoX=X$X$X%X3X%X:X,X,X5X5X4X3X<X:X:X#X(.#X#X#X#X(.(.%X;X%X&X&X&XoX4.O., &  .+.<.| ` #.X.",
"# 3 ^ o.O.L @ 4 ^ ^ ^ E s.a.[ ! } % , 4 R ^ 3.3.! -.-.7.!.oXoXXX`.`.7.7.`.+X+XoX`.`.+XOX`.`.`.7.-.7.x.f.! Q ^ 3 $ 7 [ ,.T 2 A.v.",
"# + v.v.K }  .$ R h.A.h.% 1 O.b.C.@ 2 a.T % [ E T T ^ <.<.<.P @ 1.>.[ ! R m.1.T L L [ ! 4 , Q 1. .4 #.3.# U n.#.T & # Q 4 T n.s.",
" .O.A.v.R ^ } L } A.2.o.R ! } +.3.2 L <.4 $ ,.O. .R L ,.} L < 4 n.h.^ P R >.! # :.<.T 4 4 $ % ^ | R ` ! $ U a.^ , T & 7 4 T +.' ",
"b.m.v.<.} T 4 4 | n.} I O.[ ^ } o.^ R ! T T n.b.,.! % Q 3 o < ` f.a.T E ` 4 , % a.h.E T E 3 , R L ! T 3 Q ! T P 4 Q ! U T T U 4 ",
"I < 2 L L T Q ! P P a.C.1 1 g.O.E g.O.$ @ , +.+.^ , $ ( [ T , , E E P 3.3.@ 4 C.,.b.a.g.:.R U 4 U ! T 7 [ ! 1 1.C.T $ # T :.Q ^ "
};
