/* XPM */
static char *e6c8a6a6ad484adaa747ebab0edde78ciZJBYsX4HpKrzdto[] = {
/* columns rows colors chars-per-pixel */
"64 64 160 2 ",
"   c #1F5200",
".  c #245500",
"X  c #265900",
"o  c #2C5D00",
"O  c #325E02",
"+  c #375F0B",
"@  c #2E6100",
"#  c #336403",
"$  c #396307",
"%  c #356A04",
"&  c #386C05",
"*  c #356609",
"=  c #39640B",
"-  c #36680A",
";  c #3B6C0C",
":  c #3E710D",
">  c #3E6712",
",  c #3D6D12",
"<  c #3F6F19",
"1  c #3F7111",
"2  c #406F0E",
"3  c #41750E",
"4  c #437A0E",
"5  c #426E12",
"6  c #437413",
"7  c #497617",
"8  c #467915",
"9  c #497D16",
"0  c #457519",
"q  c #4A751B",
"w  c #477919",
"e  c #4B7D1B",
"r  c #507F1F",
"t  c #4D7D21",
"y  c #527D22",
"u  c #567D29",
"i  c #4C8117",
"p  c #4E821D",
"a  c #51841E",
"s  c #54891E",
"d  c #4F8121",
"f  c #538423",
"g  c #588627",
"h  c #568A24",
"j  c #598C26",
"k  c #558529",
"l  c #5A862A",
"z  c #578929",
"x  c #5B8D2B",
"c  c #579026",
"v  c #5C9126",
"b  c #5E922C",
"n  c #5F982D",
"m  c #5D8E30",
"M  c #5F9131",
"N  c #608F2E",
"B  c #61942E",
"V  c #63992E",
"C  c #699D2E",
"Z  c #618F30",
"A  c #639532",
"S  c #689636",
"D  c #669A33",
"F  c #699D35",
"G  c #67973A",
"H  c #6A9738",
"J  c #669939",
"K  c #6B9D3A",
"L  c #709D3E",
"P  c #6BA02D",
"I  c #66A032",
"U  c #6CA136",
"Y  c #6DA23B",
"T  c #6FA93B",
"R  c #70A437",
"E  c #71A53D",
"W  c #74A93E",
"Q  c #78AC3C",
"!  c #6E9E40",
"~  c #719E41",
"^  c #6EA041",
"/  c #73A542",
"(  c #75AA42",
")  c #78AD45",
"_  c #79AD45",
"`  c #78AC47",
"'  c #7AAF46",
"]  c #74A748",
"[  c #77AA4A",
"{  c #7BAD49",
"}  c #7BB044",
"|  c #7CB245",
" . c #7DB246",
".. c #7CB149",
"X. c #7EB349",
"o. c #7FB14A",
"O. c #7DB24A",
"+. c #7FB44A",
"@. c #7FB84C",
"#. c #85BB44",
"$. c #80B14B",
"%. c #80B549",
"&. c #81B54D",
"*. c #85B74F",
"=. c #83B84B",
"-. c #85BB4B",
";. c #83B84E",
":. c #85BA4F",
">. c #87BD4F",
",. c #83B553",
"<. c #88B754",
"1. c #86BB50",
"2. c #85BA53",
"3. c #87BC50",
"4. c #8ABD53",
"5. c #89BD54",
"6. c #8AB658",
"7. c #87BC58",
"8. c #8ABD59",
"9. c #85C34D",
"0. c #92C84F",
"q. c #87C153",
"w. c #8DC354",
"e. c #8CC255",
"r. c #8EC454",
"t. c #8AC852",
"y. c #8FC05A",
"u. c #8EC25B",
"i. c #8BC858",
"p. c #90C556",
"a. c #93C857",
"s. c #91C35A",
"d. c #91C65A",
"f. c #91C55C",
"g. c #91C65C",
"h. c #93C95A",
"j. c #94CA5B",
"k. c #93C85E",
"l. c #94C95D",
"z. c #97CB5F",
"x. c #99CF5F",
"c. c #8FC360",
"v. c #93C662",
"b. c #96CA62",
"n. c #9ACD64",
"m. c #9ACE69",
"M. c #96D163",
"N. c #9AD061",
"B. c #9DD362",
"V. c #9BD165",
"C. c #9AD862",
"Z. c #9ED168",
"A. c #9DD26A",
"S. c #A1D663",
"D. c #A1D767",
"F. c #A2D46A",
"G. c #A1D66C",
"H. c #A4D96D",
"J. c #A3D671",
"K. c #A6DB71",
/* pixels */
"e 6 y.$.f H ( ( =.A.A f s.:.B *.F.z.( 8 B D : p f f p _ o.D j p B b A b Y k._ X 8 x h a j a s :.g.( A 6 b 8 @ E N.B.W 9 b _ Y F ",
"L S f a y l N D x f g f V j 7 g a 4.3.} E V E Y p h 6 a p 8 F ( A j p p F o.D % 8 B Y E ;.E v o.W b A x Y B # ( N.x.d.b B A x D ",
"L L e 7 q g N f q + q q g f = > # ( :.x.E v 1.o.a F D a 3 6 B E F f : f j D D ; h D F ;.N.-.U Y B h h x ( Y v E %.r.r.=.F p h h ",
"a f K S e / 6.5 5 u y f s.$.o q 7 B E j.=.E v D _ d.g.D F E 8 : o.D : h D n b 8 E ( : B h.D.:.3 X ; : p _ 5.k._ n E >.F.K ; h h ",
"E F x S S S L 7 e ~ g x k.W . K <.a v %.( ( h j D h b f V d.F n b Y o.j s o.E &  .d.a h V E 3.( D B W ( b D D b j b F D B 9 f b ",
"o.F 6 x _ N y 7 f ,.A x 1.E ; [ b.b j U U Y h f b % X a U p.:._ j E d.D a &._ # F 1.b h F U ( V.4.V  .3.D n b D E D v h B F D E ",
"g g A x b l q + 7 { f o f x g F W 4.o.a 8 8 6 K A.D @ Y %.( Q W :._ i D _ B f p % # : D b.( s o.F s v U ( o.r.e.:.W 4.H. .( >.+.",
"g x x D 5./ q y f g y 5 y g 1.W V W V : D E 6 x 5.D 3 b D V U E E V 9 x A h f 9 8 e - 1 b p 9 &.Y 9 F o.j E j.j.d.( F B E k.N.4.",
"A x h _ 5.D Z S g 7 5 e e g k.E n b h 6 ( 8.w p A j f 9 h h h j Y B 8 p f 9 9 % h f ; # o 6 a 3.o.p ( 1.6 D N.p.1.W n a U b.i.o.",
"p x 5.1.B j e a B K [ / g 7 b n } ( U a 9 a : : 3 v ( x p 8 a j i.1.K o.] j E <.] o.x q 6 Y o.&.E B V h % x A.E 3 9 ( g.D i 3 # ",
"j Y _ B 6 D _ h b o.E D x h ( j p o.( a 8 p D U U F b j x 8 x B K Y h &.5.j Y 5.Y A p f z x A E T _ ( Y : 9 o.D 9 x D Y Y U n h ",
"F _ h 9 e F y.B j &.F D g D V.j % 3.o.i 9 h :.F.A.W p h x f b b 8 8 o ] m.v F o.j 8 j b K 8 ; f b _ _ Y p 9 a h A ] K 8 W A.&.( ",
"h B a Y e.@.} j 6 a a g g Y A.>.q.o.h & p 9 a p j B Y D j b j h y.( : _ k.i p b f h 1.1.] p 8 9 8 b d f &.5.( B p h A j U &.h f ",
"x l q D e.} b e e x a q l D ( ( ( D d - ; 8 A D Y F D v B B 9 h o.K % A 5.Y Y j x j B Y F 9 p w d x w 9 _ ( D E K A K D ( W 8 6 ",
"e q $ 6 g j g f K &.x 6 q p g p 9 1 d x f b 8.A.A.&.F f j h f f 9 8 # x 5.5.&.j Y Y % : b h f h b x e p f 8 ; ] m.1._ D E Y 9 : ",
"= * O O * 7 l g h h a a f f x f h e 1 7 w f ( &.o.h p a p % p f f 6 6 / o.j a 9 E m.Y D ( b A y.&.p p h f d 9 9 h p ; : D ] h A ",
", t 0 5 f f h p p F F B g t x l z 7 e f k l A D F B j K F h g A E x g 1.g.6 9 B ( y.*.{ F A x &.( E Y Y f 7 q 9 g f a e K D x A ",
"g G y A / A A h Y m.g.] k w k m x ; 1 f t e f a b 7 9 8.k.( E ( o.o.( 1.&.; b J.K F A.&.f F x . e A.b.y.A d D A x f K A.B : o.{ ",
"f A o.&.g D K A K x e 1 ; 0 z f z x Y &.x d F _ k.j 8 5.r.} U D h F b.k.d.R f : K Y B E 5.Y f f h h $.n.A f 9 A / f x &.5.$.x x ",
"e A 5.$.x ] o.g h d 7 0 t t 7 x K A Y 8.J x Y ( k.V a b.p.U F W D Y $.:.:.( A 9 a A a F m.U e Y D 7 Y 5.f f A A K f x D %.4.8 q ",
", f e / m.m.b.: 6 / <.8.<.K o ] v.6 * m k f b f b h a r.&.s E k.b.&.% K o.a D A.9 % F r.b.a @ Y K g f f X p A./ g w 6 9 W 4.h ; ",
"0 t f f j / _ f d K f f y.E ; b / 6 0 z z x _ Y d A E k.&.a R 4.V j f A b _ E 9 Y { 4.d.b.*.D x x e A ] K A A x z ; h &.d.b.K K ",
"t , e d e D A z f M ; - <./ F h h B M e k m 5._ q J _ 8.] z x K f h D h j A._ # E b.y.y.&.,._ x g l A [ ,.K 9 h l q F A.5.&.( [ ",
"* ; k g l b l e e 7 x k # h H.k.j.A.<.d 0 , Y F e A p 6 1 7 9 x b f q x b g.&.8 6 X U B # 8 f f e f f 9 p F [ f 1 K _ _ b a e B ",
"z A 1.( p K Y _ ^ # 7 t , f /  .4.o.^ , < 7 / Y w K Y R A x D ( h j B x x A ( 5.B b %.( j Y { b F 1.x 9 ( F K h f K Y B x g q f ",
"Y ] y.o.8 K _ b.7.- , e e f b B E o.K # w x K A q K _ ( E E 8.g.f g D F A a F k.1.{ b.4._ s.5.p F A.K f ,.Y A x b f f A A A g e ",
"M l - ; f x b x z 1 A K f ] b.B 8 y.{ h _ ,.M g x 1.4.b A J A f x A ( s.5.B B 1.A f a F ( D f o 6 / <.[ l f x <.v.8 9 <.D x x f ",
"q w t x A g l { K e M A x A _ h 9 m.*.D F W x l B 1.s.9 e k e t z b ( ( W ( ( K A x 7 E m.D q = g ] K x q g f D Y # q 8.f 6 d q ",
"6 6 K K z q g 8.,.f g f x a p q x y.5.( b A l A b ( 1.3 : w t e e l &.b f 5.1.x M M e A g.K f f p ,.A 8 7 f f q q o e ] x 1 # 1 ",
"[ ] 7 d x f * @ 6 f z x 8.<.A z w g h p K <.A z g [ b.W Y J A t e w J 8 ; D h 6 @ @ e e f b _ _ [ / l f z z g K ,.e g A A l f x ",
"K K e e g A x e t 7 m K J g g t q f f * f K x g e ] g.U R o.K h K h 8 6 * e , 6 1 w 6 q ( U D x K o.( F f p f g A x z 7 e z g g ",
"l g 7 f x / ,.] A X m / @ * q l l g e # * ; k g ; ] b.v C b.F p m.<.8 6 # 0 6 1 w f 8 K K.Y i @ 8 v.5._ D p 1 6 q [ A @ f z # f ",
"x f e l x g f * 7 ! x q t e x { ,.x J ,.[ K J d . _ A.3 j F.F p &.&.F b 7 6 7 [ o.<.x f E %.5._ E F B h 1./ 8 A b l x e 7 l &.o.",
"D 9 f l d 7 5 $ q K f = A x p o.8.K { c.] M m f e J _ # p 1.h f b Y _ E B f f K ] _ l f T 1.5.T B B x h ,.o.F D f x l z 6 e G.s.",
"U n B g a 6 * 7 f x e q _ ( 9 p b v.y.D x f d A y.h : 6 %   * # , A n.b.1.D x = e 6 g e 8 E ] b f x g b e A m.b 8 _ A x b K b.$.",
"1.;.n Y <.K A g r A A B D o.y.b 8 h D K b f f z b / y.y.] t k f 7 8 a U _ f e 6 x K g g B D F 6 7 l f f p g 1.j 8 y._ p F ( D a ",
"e.o.T o.o.E / b h A l f x / 7.F d d d d f f f f - J 7.8./ d K F B g 8 F E h f e f K D b g e r ; ; h f w A x f A E k.] 7 E &.f f ",
"v B ( F s F T p h D p 9 B x h D Y D x d e d f z ; - 1 z h ; _ n.5._ ; x K p e S a a i._ 7 7 e A A M x d ,.A o / m.b.E o U n.h K ",
"q f g x U @.i.@.U K ( o.K D / D x x x x x x x x w A / : ; w h x Y b 9 _ i.3.Y f B Y ;._ B 6 6 A l 7 z f K x o t A F _ _ r.b.:.&.",
"g e f D _  .1.M.1.F / o.E ( } T j x x x x x x x D E &.p 9 p 8 : A D D o.q.e._ h A K _ ( A 6 = K g = d g 6 7 7 6 p f Y &.&.d.o.o.",
"x f Y _ K D T E Y D e e x T b.b.1.: ; 6 f l 6 b b.g.d.k.E h Y ] ] E } n & a x ,.B f ; x _ _ o.x w 1 w e = * e f x A f # l { - 7 ",
"x 7 K A : q A x g g 5 e F &.A.W D U K A f h [ ] F D E k.g._ E x b b ;.o.K N e p l g q D 5.W b h l K k 7 K M f 1 6 ,.Y w d w 7 d ",
"g * l g ; e f ; 6 y * e / _ 3.V p y.7.^ f h 8./ b h b 1.m.5.F : f h } 3.1.A q # a x x D 1.F p x Y / z l m.<.b ; ; <.<.b , o e x ",
"g q g Z x f 7 o # g t 5 8 h o.1.T 9 8 h z M 8 j b.( x x v x E <.e g U F B g Z f x / K b Y a 9 E g 6 w e 9 b Y q ; ; q K x f b D ",
"k 6 q q g F K K x e ; ; ( Y 8 _ y.h f M M K B D / M d e f x b Y Y Y b a 7 N l = q y g 7 e A o./ D ; e l B D b e w ; 6 F E K l d ",
"y 6 ; 5 f / &.1.&.x ; e g.( X D m.h x h f f 1.( f p p d x x 9 p g.1.B 2 * S g O 5 $ 5 6 e ( b.U F A 9 e &.E 7 6 e k A x W *.9 7 ",
"x x 5 q 6 6 p 9 A U 3.1.p 6 9 f x 9 B b.D f g.&.8 o.8.f 8 K D v j E 5.F a K x q A A q g Y D E E E m.x * 6 b v._ x t e A E W e 8 ",
"B l A l O g b : j n e.V.x a x Y _ h x &.A D &.o.n U Y f d b n ] Y ( b.D h A A x g f 7 x _ W E F  .k.A 9 p l 5.K p k e l ( 4.F a ",
"K b o.K # x _ a s s  .A./ K h <.v.D h / x A U ( V.n & a p 9 K o.5.d._ D h K B h g 7 h / 5.y.( s v d.k.E f f [ a 1 x k l $.b.F B ",
"l j h b D <.b.i.( j I W B b x v j 8 i p 8 h b n b _ 1.v 9 8 p 9 b V b j b h F &.e = f e : f b 4 v :.U B B B h x f e f e 8 h b.r.",
"l 9 I T n _ ;.o.Y v j b j h f w f h b T A 8 6 f c } q.v b D p 8 F Y E b f F F o.p 6 b a % p F j D B v F } W b e t t e t , q _ _ ",
"A p 1.;.9 x b h j B b b A d : 9 f K _ k.F 8 e b ( T Y n Y o.F h _ &.5.B a m.o.j A A ( E A Y &.*.D 4 B ( a.p./ ; # e t k w t 9 s ",
"K B e t l 6 % _ _ h p 9 x p f h 9 A h p v F 9 b z. .n j B Y D x B g e E 1.j j E F B h a f A _ r. .F E B 9 1 - M ( ( b 6 , g &.C ",
"Y f ; 6 x e : 1.o.D x x f 9 h h A 8 9 b D D a x _ ( T b B F h b x x p _ b.s U $.B f p e f D E R R %.W D f 7 6 x ( ( D z e l 1.U ",
"g , A Y x ( _ v E b.o.F 6 ; j F B @ j n.F 8 h 6 @ j @.U n B 7 8 F E E 4.k.W  .b.x f x A x j i & s o.F D g.s.&.h 6 7 t K A g ; e ",
"k g p j n Y E v V :.( b f b b.D 6 T W v _ &.x f A K U Y D p a h g j V B D R E o.x q g A A D Y E } s.b : x a i ( [ t * - f A d m ",
"l k j j p Y o.i v o.b : D E y.A ; { o.j F o.F Y o.A b n F Y j b h x h 8 f Y E A h d e f x b Y 4.4.( j a 7 8 a  ._ e 6 1 b Y A x ",
"> * 1.3.9 &.A.9 i o.p : k.;.8 * = = B y.p ; T n 8 h A 6 V A.D 9 E b l x h b h f f f l f d 8 a ( F h F ( d D b.U p f x E _ R 9 : ",
"+ 0 F ( Y b f A q x 9 8 x.:.9 7 = 6 e b f a 3. .p x b 8 h Y F Y B e w f h o.A q 7 e K x 1 1 q h f e U W h l Y 6 ; K E _ F B Q P ",
"> q n T T p # e b b v v :.;.A x D : 6 e g b @. .h a f x j p j b b h e e a m._ e ; 1 E A ; * 7 f f 6 E  .x l b q ; t A ( f 9 S.0.",
"* @ 9.9.p D K ; h 4.V.5.: 8 Y y.b.% 9 o.f ; D j f f b _ } _ a # { [ A l h k._ f p e B x e 6 z _ K 9 W o.* d d.W f , * z e f a.#.",
"K U C.t.h b D p D V.+.U h x D W o.9 p _ e ; ( U K h p ( F p 3 e g.8.b a h [ x & / [ f 9 e ; : b F h B x ; d &.v 7 f , t e f E C ",
"1.k.q._ D f e e F g.D s Y A b D U n h x f f y.i.( x : l q o 3 B 5.&.f j B e 6 : $.4.j a g q 7 g p x f w z x f a e l x d f f f e ",
"s 4 9 p e f l x a a %.b.8 8 1.Y j 1.Y ; # 7 T T v 6 ; x A f 6 6 g j a o.o.# e v.( r.*.1./ h d e d x f e A x 8 _ v.f ; * f / z M "
};
