/* XPM */
static char *fc26208da9e04d3df6b5aa521a6a26f2xMTqURdNsRvwTZxh[] = {
/* columns rows colors chars-per-pixel */
"64 64 228 2 ",
"   c #131415",
".  c #2C0C0C",
"X  c #272626",
"o  c #312F2E",
"O  c #343D2D",
"+  c #37373A",
"@  c #3A3A3E",
"#  c #770F0D",
"$  c #255700",
"%  c #2B5C00",
"&  c #345F06",
"*  c #355F17",
"=  c #2E6100",
"-  c #336403",
";  c #356A04",
":  c #386B06",
">  c #356509",
",  c #39640B",
"<  c #376809",
"1  c #3B6C0C",
"2  c #3E710D",
"3  c #3D6D12",
"4  c #3E6815",
"5  c #3F7111",
"6  c #3B4434",
"7  c #41750E",
"8  c #417B0C",
"9  c #426E12",
"0  c #416A19",
"q  c #437414",
"w  c #497517",
"e  c #467A15",
"r  c #497D16",
"t  c #457519",
"y  c #4A751B",
"u  c #467919",
"i  c #4B7C1B",
"p  c #507F1F",
"a  c #495A38",
"s  c #4D7D21",
"d  c #497129",
"f  c #527D23",
"g  c #567E2C",
"h  c #4B6538",
"j  c #537634",
"k  c #343943",
"l  c #3F4049",
"z  c #374451",
"x  c #475246",
"c  c #535556",
"v  c #526543",
"b  c #576949",
"n  c #5D7649",
"m  c #5C6C53",
"M  c #567054",
"N  c #637A4D",
"B  c #646D5C",
"V  c #657A59",
"C  c #424F62",
"Z  c #495461",
"A  c #575A64",
"S  c #5E5B68",
"D  c #66556E",
"F  c #586664",
"G  c #5B6E71",
"H  c #65646B",
"J  c #616E6D",
"K  c #647C64",
"L  c #697B60",
"P  c #606D7F",
"I  c #6C6B78",
"U  c #677A7A",
"Y  c #72737B",
"T  c #A30503",
"R  c #8E201A",
"E  c #8A3838",
"W  c #B13333",
"Q  c #D2261E",
"!  c #C43932",
"~  c #81757D",
"^  c #4C8217",
"/  c #4E821C",
"(  c #51841E",
")  c #54891E",
"_  c #4F8121",
"`  c #538423",
"'  c #588627",
"]  c #568A24",
"[  c #598C26",
"{  c #558529",
"}  c #5A862A",
"|  c #578829",
" . c #5B8D2B",
".. c #5C9126",
"X. c #5E922C",
"o. c #5F982D",
"O. c #5C8A34",
"+. c #5F9031",
"@. c #608F2D",
"#. c #61942E",
"$. c #64992E",
"%. c #699D2E",
"&. c #608A38",
"*. c #639432",
"=. c #669A33",
"-. c #699D35",
";. c #679539",
":. c #6B9D3A",
">. c #709D3E",
",. c #6BA02D",
"<. c #6CA136",
"1. c #6DA23B",
"2. c #6DA739",
"3. c #71A53C",
"4. c #74A93E",
"5. c #78AC3C",
"6. c #668849",
"7. c #6B9744",
"8. c #729C49",
"9. c #6B8B56",
"0. c #6E9256",
"q. c #76975A",
"w. c #6EA040",
"e. c #73A442",
"r. c #75AA42",
"t. c #79AD45",
"y. c #75A548",
"u. c #7BAD4A",
"i. c #7BB245",
"p. c #7DB24A",
"a. c #7EB84C",
"s. c #7BA457",
"d. c #6A8466",
"f. c #7A9866",
"g. c #718771",
"h. c #7A9677",
"j. c #85BB44",
"k. c #81B54D",
"l. c #84BA4D",
"z. c #81AB5C",
"x. c #85B457",
"c. c #85BB52",
"v. c #89BD53",
"b. c #8ABD59",
"n. c #83A669",
"m. c #8BB565",
"M. c #8AAB79",
"N. c #91B578",
"B. c #89C44E",
"V. c #89C453",
"C. c #8CC255",
"Z. c #8EC35B",
"A. c #91C55C",
"S. c #93C959",
"D. c #94CA5C",
"F. c #94C761",
"G. c #96CA63",
"H. c #9ACD64",
"J. c #9BD163",
"K. c #98D563",
"L. c #9ED26A",
"P. c #99C374",
"I. c #A2D669",
"U. c #A6DB71",
"Y. c #767283",
"T. c #787A82",
"R. c #7C7A8A",
"E. c #6B7890",
"W. c #777E93",
"Q. c #7C9184",
"!. c #7B8698",
"~. c #7984A5",
"^. c #7F8BB2",
"/. c #829086",
"(. c #868195",
"). c #838B9D",
"_. c #888B98",
"`. c #869695",
"'. c #92929B",
"]. c #8BA58C",
"[. c #8FA491",
"{. c #8B8FAC",
"}. c #8C93A9",
"|. c #9594AC",
" X c #989CAB",
".X c #959BB8",
"XX c #A59FB8",
"oX c #95A5A7",
"OX c #9EA1BB",
"+X c #A3A2AB",
"@X c #A6A8B9",
"#X c #B5BABE",
"$X c #C48EA2",
"%X c #949BC1",
"&X c #9AA2C4",
"*X c #ADA7C1",
"=X c #A6A9C8",
"-X c #B3AFCB",
";X c #AAB1C5",
":X c #B8B6CF",
">X c #B5B8C8",
",X c #BBBBC8",
"<X c #AFB1D3",
"1X c #B4B4D1",
"2X c #B8B9D4",
"3X c #BABCD5",
"4X c #BEBBDB",
"5X c #C3BFDE",
"6X c #BCC1D4",
"7X c #CECCCC",
"8X c #C5C7D8",
"9X c #D7D6DA",
"0X c #C5C1E2",
"qX c #CAC5E5",
"wX c #CBCDE2",
"eX c #CFCDE8",
"rX c #D5CDEE",
"tX c #CDD0E5",
"yX c #D3D4E3",
"uX c #D6D2ED",
"iX c #D9D3EF",
"pX c #D9DAEC",
"aX c #DBD6F0",
"sX c #DEDBF2",
"dX c #E0DEF3",
"fX c #E6E6F6",
"gX c #EFEFF9",
"hX c #F9F9FD",
/* pixels */
"i q A.k.` ;.r.r.l.L.*.` A.l.#.l.I.D.r.e #.=.2 / ) ` / t.p.=.[ / #.X.*.X.1.D.t.$ e  .] ) [ ) ) l.A.r.*.q X.e = 3.J.J.4.r X.t.1.-.",
">.*.` ( f } @.=. .` ' ` $.[ w ' ( v.c.i.3.$.3.1./ ] q ) / e -.r.*.[ / / -.a.=.; e #.1.3.k.3...a.3.X.*. .1.#.- r.J.D.A...#.*. .=.",
">.>.i w y ' @.` y & y y [ ` , 4 - r.l.D.3...c.p.( -.=.) 7 q #.3.-.` 2 ` [ =.=.1 ] =.-.k.J.l.<.1.#.] ]  .r.1...3.k.C.C.l.-./ ] ] ",
"( ` :.*.i y.x.9 4 g f ` A.k.% y w #.3.D.l.3...=.r.A.A.-.-.3.e 2 p.=.2 ] =.o.X.e 3.r.2 #.S.I.l.7 $ 1 2 / t.v.D.t.o.3.l.I.-.1 ] ] ",
"3.-.} ;.;.;.>.w i 8.'  .D.3.$ :.c.( ..k.r.r.] [ =.] X.` $.A.-.o.X.1.p.[ ) p.3.: i.A.) ] $.3.c.r.=.#.4.r.X.=.=.X.[ X.-.=.#.r ` X.",
"p.-.q } u.@.f w ` x.*. .c.3.1 t.G.#.[ <.<.1.] ` X.; $ ) <.A.l.t.[ 3.A.=.) k.u.- -.c.X.] -.<.r.J.v.$.i.c.=.o.X.=.3.=...] #.-.=.3.",
"' ' *. .X.[ y & w k.` % `  .' -.4.v.p.) e e q :.L.=.= 1.k.r.5.4.l.t.^ =.t.o.0.g.; - 2 =.G.r.) p.-.) ..<.r.a.C.C.l.4.C.U.i.r.l.p.",
"'  . .=.v.3.y f ` ' f 9 f ' c.4.$.4.=.2 =.3.q  .v.=.7 X.=.$.<.3.3.$.r  .*.0.;XtXK i < 5 X./ r k.1.r -.a.] 3.D.D.A.r.-.#.3.D.J.v.",
"*.X.' t.v.=.@.*.' q 9 i i ' D.3.o.X.] q r.b.u / *.[ ` r ] ] ] [ 3.$.e / ' h.8XfXF ` 1 > % q ) c.p./ r.c.q =.J.A.c.3.o.( <.G.Z.p.",
"/  .v.c.#.[ i ( #.:.u.e.' q X.o.i.r.<.) r ) 2 2 7 ..r. ./ e ) [ Z.b.:.p.z..XfXfX`.m. .y q 1.p.k.3.#.$.] ;  .L.3.7 r r.A.=.^ 7 - ",
"[ 1.u.#.q =.u.] X.p.3.=. .] r.] / p.r.) e / =.<.<.-.X.[  .e  .#.:.1.] k.Q.:XfXfXtXQ./ ` |  .*.3.2.t.r.1.1 r p.=.r  .=.1.1.<.o.] ",
"-.t.] r i -.Z.#.[ k.-.=.' =.J.] ; c.p.r r ] l.I.L.3./ ]  .` X.X.e e % `.4XuXdXfXsXOX0.X.:.e 1 ` X.t.r.1./ r ) ] *.r.:.e 4.L.k.r.",
"] #.( 1.C.a.i.[ q ( ( ' ' 1.L.l.V.a.] : / r ) / [ #.1.=.[ X.[ ] Z.].;XpXfXdX3XwXsXrX.Xm.r./ q r e X._ ` k.v.r.#./ ] *.[ <.k.] ` ",
" .[ y =.C.i.X.i i } ( y [ -.r.r.r.=._ < 1 e *.=.1.-.=...#.#.r ] m.3XfXfXfXfXsX3X8XrXOXh.-.r / u _  .u r t.r.=.3.:.*.:.=.r.3.e q ",
"i y > q ' [ ' ` :.k. .q y / ' / e 5 _  .` X.b.L.L.k.-.` [ ] ` ` ` [.yXfXfXfXfXdX3X1X0X=Xd.] ` ] X. .i / ` e 1 r.H.c.u.=.3.1.r 2 ",
"1 > & & - q [ ' ] ] ( ( ` `  .` ' i 5 w u ` r.k.p.0.U O./ ; / ` ` s [.pXiXsXfXfXsXqXrXrX XN *.Z.k./ / ] ` _ r i ] / 1 2 =.r.] *.",
"3 s t 9 ` ` ] / / -.-.#.' s  .[ | w i ` { [ *.=.n.8XH 8.-.] ' *.3. .h.tXfXrXrXrXrXrXrXrXrX(.6.k.r.3.1.1.` q y r ' ` ( i :.=. .*.",
"' ;.f *.e.*.*.| 1.H.A.e.{ u { +. .1 5 ` s i ` 0.8XfXH m.D.r.3.r.p.m.oXpXfXaXsXuXrXrXrXrXrXXXd.h i L.H.Z.*./ =.*. .` :.L.#.2 p.u.",
"` *.p.k.' =.:.*.:. .i 5 1 t | ` |  .1.M.d.K h.}.fXsXS m.C.i.1.*.] f.2XfXfXfXfXdX1X=X%X%XrXrX-X_.v n k.H.*.` r *.e.`  .k.c.k. . .",
"i *.v.k. .r.p.' ] _ w t s s w  .:.0.J >X9X9XwXpXfX=XC P.A.<.-.4.8.#XpXfXfXfX8X;XqX0X4X4X^.=XrXrX*X_.F x.` ` *.*.:.`  .=.k.v.e y ",
"3 ` / e.H.H.G.2 q y.x.b.c.:.% y.N. XgXhXhXhXgXfXfXfXsX!.x.) 3.D.P.;XfXfXrXrXrXrXrXrXrXrXrX=XC |.rXrXrXW.* / L.e.' u q r 4.v.] 1 ",
"t s ` `  .e.u.` _ :.` ` Z.3.1 0.'.@XfXgXgXgXfXfXfXfXfXfX`.6.3.v.7.Q.4XrXrXrXrXrXrXrXrXrX(.Y b v (.XXrXfX!.0.*. .| 1 ] k.A.G.:.:.",
"s 3 i _ i =.*.| ` +.1 < x.e.6.+ A H fXfXfXfXfXfXfXfXfXfXyX`.7.:.` 7.Q.5XrXrXrXaXsXaXrXY.q.n.u. .n V @XfXpX`.O.] [ y -.L.c.k.r.t.",
"> 1 { ' [ X.[ i i w  .{ 4 F +   X '.fXfXfXfXfXfXfXfXfXfXfX@X6. .X.` V 1XrXaXfXfXfXuX}.0.- e ` ` i n _.fXfX1XP O.5 :.t.t.X.( i #.",
"| *.c.r._ :.1.u.w.- w g !.fXfXS A 8X,XpXfXfXfXyX+ c wXfXfXsXW.z.] [ #.!.fXfXfXfXrX.Xn.r.[ 1.u.X.-.c.v ,XfXfX X9.` :.1.#. .' y ` ",
"1.r.Z.p.e :.u.G.b.< 3 O fXfXfXfXpX}.X I fXfX8XH /.  '.fXfXsXS m.` ' =.h.2XwXfXdXqX`.P.v.t.A.v./ -.L.n ,XfXfXsXA X.` ` *.*.*.' i ",
"+.[ < 1 `  .X. .| 5 *.6./.fXfXfXfXpX@X'.fXfX+XX   X @XfXfXiXXXK  .*.r.A.N.].wXiX1Xd.) -.r.=.` % q e.V ,XfXfXfX+Xf.e r c.=. . .` ",
"y u s  .*.' [ u.:.i +.*.  c }.pXfXfXfXfXfXfXpX-X  S pXfXfXrXrXl | +.r.r.4.u.`.0XU ;.q 3.H.=.y 1 ' r.n ,XfXfXfXfX6 - y b.` q _ y ",
"q q :.:.| y ' b.x.` ' ` F 9XT.z k . ~ yXfXfXfXfXfXfXfXfXrXrXrXrXO [ k.X.` v.c.K K +.i *.A.:.` ` / x.g.8XfXfXfXfX:XM i r. .5 - 5 ",
"u.e.q _  .` > = q ` {  .@ 7XS A o T # Y +XfXfXfXfXsXsXuXrXrXrXrXx u ;.e 1 =.] q = = i i ` X.t.t.t.n.OXfXfXfXfXfX,Xb ' *.*.[ `  .",
":.:.i i ' *. .i s w +.:.N B v :XD T Q W E  XY H I OXrXrXrXrXrXrX_.6.e q > i 3 q 5 u q y r.<.=. .:.M.@XfXfXfXfXfX,Xb | q i | ' ' ",
"[ ' w `  .e.x.e.*.$ +.e.> 0 a *X>XE Q Q ! +X#Xo *X5XrXrXrXrXrXrX*XV e q - t q 5 u ` e :.U.1.^ = } `.yXfXfXfXfXfXpX_.f.= ` | - ` ",
" .` i  . .' ` > q 7. .y f i  .v 8X$XW W R A Y -XrXrXrXrXrXrXrXrXrX(.0.X.q q q u.p.c. .` 3.k.v.t.n. XfXfXfXfXfXfXfX@Xf.i q [ k.p.",
"=.r `  ._ y 9 > y :.` 1 *. ./ p.@ sX<X).S S XXrXrXrXrXrXrXrXrXrXrXXXd.y.#.f ` :.r.u.[ ` 2.c.v.n. XfXfXfXfXfXfXfXfX@X0.| q i I.A.",
"<.o.*.' ( q - w `  .i y t.r.r / N '.rXrXrXrXrXrXrXrXrXrXrXrXrXrXrXrXS P.c.=.} 1 i q ' i e 3.M.;XfXfXfXfXfXfXfXfXfX X0. .X.:.G.k.",
"c.k.o.1.c.:.*.' p *.*.#.=.p.Z.X.J R.A 4XrXrXrXrXrXrXrXrXrXrXrXrXrXrX:Xc t.` i q } :.' ' 7.U ;XfXfXfXfXfXfXfXfXfXfX'.f./ -.r.=.) ",
"C.a.2.p.p.3.e.X.] *.[ `  .e.b.-.P sX}.l l }.rXrXrXrXrXrXrXrXrXrXrXrXuXrXP g.6.&.6.s.8.U &XfXfXfXfXfXfXfXfXfXfXfXfX'.q.q 3.k.` ` ",
"..#.r.-.) -.3./ ] =./ r #. .] 0.|.fXuXrXrXrXrXrXrXrXrXrXrXrXrXrXrXrXaXsXsX:X).!.).).).wXfXfXfXfXfXfXfXfXfXfXfXfXfX'.q.% <.H.] :.",
"y ` '  .<.a.V.a.<.:.r.p.:.=.e.G dXfXsXrXrXrXrXrXrXrXrXrXrXrXrXrXrXrXrXaXsXsXsXsXfXfXfXfXfXfXfXfXfXfXfXfXfXfXfXfXfX_.f.u.C.H.l.k.",
"' i ` =.t.i.c.K.c.-.e.p.3.r.i.x fXfXfXuXrXrXrXrXrXrXrXrXrXrXrXrXrXrXrXsXaXsXsXfXfXfXfXfXfXfXfXfXfXfXfXfXfXfXfXfX8Xm e.k.k.A.p.p.",
" .` 1.u.:.=.2.3.1.=.i i  .e.g.  fXfXfXfXuXrXrXrXrXrXrXrXrXrXrXrX0X<XrXrXrXaXaXfXfXfXfXfXfXfXfXfXfXfXfXfXfXfXfXfX>Xn ` - [ u.< q ",
" .q :.*.2 y *. .' ' 9 i 7.].3X@ fXfXfXfXfXiXrXrXrXrXrXrXrXrXrX=X.X&X0XrXrXrXrXsXfXfXfXfXfXfXfXfXfXfXfXfXfXfXfXdXT.n.w.u _ u q _ ",
"' > [ ' 1 i ` 1 q f > i s.}.fX@ fXfXfXfXfXfXiXrXrXrXrXrXrXrXrX=X|.E.~.qXrXrXrXrXsXyX3X3XfXfXfXfXfXfXfXfXfXfXsXuXO c.c.+.3 % i  .",
"} y ' @. .` q % - ' s 9 U yXfX@ fXfXfXfXfXfXfXfXrXrX=X0XrXaXaXrXeX1X=X{.P E.^.^.;X6XpXpX&XfXfXfXfXfXfXfXfXdXuXrXO 1 y :. .` X.=.",
"{ q y y ' -.:.:. .{ j !.fXfX).G 4XfXfXfXfXfXfXfXfXfX.X4X0X1XfXaXeX1X4XrXrXsXfXfXfXfXfXfX@ fXfXfXfXfXfXfXrXrXrX+ u 1 q -.3.:.[ _ ",
"f q 1 9 ` e.k.b.M./.&XpXfX8X}.5XA fXfXfXfXfXfXfXfXfX;X=XqX&XeXfXfXwX&X=X<XyXfXfXfXfXfX+XY.iXsXsXsXsXiXrXrXrXXXv i { *. .4.l.r q ",
" . .9 y q q 0./.2XwXfXfXeXOX4XrX@ fXfXfXfXfXfXfXfXfXfXE.rX=X<XfXfXfXfX8X2X3X2X3XsXfXfXA rXrXrXrXrXrXrXrXrXrXS s.[ s i *.3.4.i e ",
"#.[ *.[ - 0.6XpXfXfXsX1X<XqXrXrX+ sXfXfXfXfXfXfXfXfXfXP rXqX&XyXfXfXfXfXfXsXpXpXfXfXfX8XW.rXrXrXrXrXrXrXrX|.f.:./ { i [ r.v.-.( ",
":.X.p.:.- 9.oXwX4X5X3XqXrXrXrXrXC H fXfXfXfXfXfXfXfXfXfXP rXrX1XpXfXfXfXfXfXfXfXfXfXfXfX8XP |.rXrXrXrXrX4XZ q.( 5  .{ | k.H.-.#.",
"[ [ ] X.=.c.N.].h.!.rXrXrXrXrX1X{.Y :XfXfXfXfXfXfXfXfXdX).-XrXrX2XyXfXfXfXfXfXfXfXfXfXfXfXfXR.-XrXrXrXrXT.6.'  .` i ` i e ] G.C.",
"[ r <.2.o.u.k.a.s.!.rXrXrXrX<X=XiX+X XsXfXsXfXfXfXfXsXuX1X!.rXrXrXqXfXfXsXfXfXfXfXfXfXfXfXfXH *XrXrXrXY.q.4.X.i s s i s 1 y t.u.",
"*./ b.k.r  .X.] 7.!.rXrXrXrX<X0X8XV L 8XaXsXdXiXfXuXrXrX1XE.5XrXrXrXuXfXpX;XwXfXfXfXfXfXfXfXH *XrXrXY.q.D.A.e.1 > i s { t s r ) ",
":.#.i s [ q ; t.t.6.x O -X4X@X*X XN ] h 8XaXsXdXrXrXrXrXrX@X|.rXrXrXrXrXuXfX6X;X1XyXwXtXpX@X|.rX*XT.q.#.r 5 1 +.r.r.X.q 3 ' k.%.",
"1.` 1 q  .i 2 c.p.=. . .b R.b v N e r X.m XXaXuXrXrXrXrXrXrXOX(.|.rXrXrXrXrXrXrXqX=X%X%X;XR.Y.(.n q.4.=.' q 5  .r.r.=.| i [ c.<.",
"' 3 *.1. .r.t...3.H.p.-.i h &.-.#.= [ H.7.m S :XrXrXrXrXrXrXrX|.R._.rXrXrXrXrXrXrXrXrXrXc o m h ) p.-.=.A.A.k.] q q s :.*.' 1 i ",
"{ ' / [ o.1.3...$.l.r.X.` X.G.=.q 3.3...t.x.7.x + Y.rXrXrXrXrXrXqXR.|.rXrXrXrXrXrXrXrXrXO 8.e.3.i.A.X.2 [ ( ^ r.u.s > < ` *._ +.",
"} { [ ] / 1.a.^ ..p.X.2 =.3.Z.*.1 u.p.[ -.p.-.1.p.0.6 6 x *X*X*X1X1XA   *X:XrXrXrXrXrXrX*Xv 1.v.v.5.[ ( q e ( i.t.i q 5 X.1.*. .",
"4 > b.c.r k.L.r ^ p./ 2 D.k.e - 1 1 #.Z./ 2 3.o.e ] *.q ;.9.b h g.d.K K v B (.5XrXrXrXrX*Xa ) r.-.] -.r._ =.G.<./ `  .3.t.3.r 2 ",
"& t -.r.1.X.` *.y  .r e D.l.r w 1 q i X.` / c.i./  .X.e ] 1.-.1.#.i u ` ] z.6.F Y.rXrXrXF j y ] ` i <.4.] [ 1.q 1 :.3.t.-.#.5.,.",
", y o.2.2./ - i X.X. ...l.k.*. .*.2 q i ' X.a.i.] / `  .[ / [ X.X.' i i ) H.u.g j + + + d > w ` ` q 3.i. .[ X.y 1 s *.r.` r I.B.",
"> = B.B.^ =.:.1 ] v.J.v.2 e 1.Z.G.; r k.` 1 =.[ ` ) X.t.i.t.) - u.t.*.[ ] D.u.` / i #. .i q | u.:.i 4.p.> _ A.4.` 3 > | i ` S.j.",
":.<.K.V.] X.=./ =.J.p.<.]  .=.3.a.r / t.i 1 r.<.-.] / r.-./ 7 i A.b.X.) ] t. .: e.t.` r i 1 2 X.-.] #. .1 _ k...q ` 3 s i ` 3.%.",
"b.D.V.i.=.` i i -.A.=.) 1.*.X.=.<.o.]  .` ` Z.Z.r. .2 [ y % 7 #.c.k.` [ #.i q 1 k.v.[ ) ' y q ' /  .` u |  .` ( i [  ._ ` ` ` i ",
") 8 r / i ` |  .( ) k.H.e e c.1.[ c.1.1 - q 3.3...q 1  .*.` q q ' [ ( p.p.- i F.r.C.l.c.e.] _ i _  .` i *. .e u.F.` 1 > ` e.| +."
};
