/* XPM */
static char *f19b20cea412487093a0395564da5b8fPFe9bqsecjJnlvJt[] = {
/* columns rows colors chars-per-pixel */
"64 64 191 2 ",
"   c #1C121B",
".  c #121518",
"X  c #3B0E15",
"o  c #22151D",
"O  c #2D1A1F",
"+  c #2B141C",
"@  c #331C1F",
"#  c #021830",
"$  c #1A1A34",
"%  c #1C1D39",
"&  c #1A1725",
"*  c #291A21",
"=  c #361D23",
"-  c #391F21",
";  c #3C1224",
":  c #0F202A",
">  c #0F273F",
",  c #1A293B",
"<  c #2F2F2F",
"1  c #362125",
"2  c #3D2122",
"3  c #33222A",
"4  c #2F2634",
"5  c #362836",
"6  c #5F090F",
"7  c #4F1718",
"8  c #431B1D",
"9  c #780D0D",
"0  c #6C1010",
"q  c #6C111A",
"w  c #7F1613",
"e  c #6E070B",
"r  c #6A201D",
"t  c #591727",
"y  c #4A1E38",
"u  c #531A32",
"i  c #651629",
"p  c #442423",
"a  c #4F2725",
"s  c #562A27",
"d  c #5C2B27",
"f  c #5D2C28",
"g  c #532726",
"h  c #4B2737",
"j  c #53322B",
"k  c #64312A",
"l  c #6E392D",
"z  c #70372E",
"x  c #66273E",
"c  c #763D32",
"v  c #544437",
"b  c #0B2E45",
"n  c #0E2F4A",
"m  c #122D45",
"M  c #0B304B",
"N  c #162E50",
"B  c #063356",
"V  c #13335E",
"C  c #1E3E55",
"Z  c #2D274B",
"A  c #26294D",
"S  c #2B2B4C",
"D  c #262A51",
"F  c #323858",
"G  c #063768",
"H  c #00396E",
"J  c #0B3865",
"K  c #013B72",
"L  c #4A3554",
"P  c #513452",
"I  c #5F2A44",
"U  c #662841",
"Y  c #17416B",
"T  c #014176",
"R  c #01477D",
"E  c #044C7E",
"W  c #264C7B",
"Q  c #2A4977",
"!  c #31486A",
"~  c #7A5B59",
"^  c #4A4D70",
"/  c #4E4A6B",
"(  c #715065",
")  c #776D6E",
"_  c #9F090F",
"`  c #9F0A10",
"'  c #991018",
"]  c #AE060C",
"[  c #A50608",
"{  c #B30303",
"}  c #B3060A",
"|  c #B80509",
" . c #BA0705",
".. c #A30A12",
"X. c #B20D13",
"o. c #AB291C",
"O. c #D40205",
"+. c #DA0303",
"@. c #EC0101",
"#. c #E00102",
"$. c #FE0000",
"%. c #C22224",
"&. c #854534",
"*. c #8A4937",
"=. c #8B4A38",
"-. c #9D573E",
";. c #B14D33",
":. c #B25037",
">. c #96515D",
",. c #B75E40",
"<. c #886054",
"1. c #A2654D",
"2. c #BE6F4A",
"3. c #B96A46",
"4. c #B06F51",
"5. c #AA7256",
"6. c #876D67",
"7. c #8B7069",
"8. c #C3734D",
"9. c #C67750",
"0. c #CA7F55",
"q. c #98887B",
"w. c #D78D5F",
"e. c #C6875B",
"r. c #C38968",
"t. c #D89468",
"y. c #CC9673",
"u. c #E69D6A",
"i. c #E19766",
"p. c #E9A370",
"a. c #E7A575",
"s. c #E7A06C",
"d. c #004A82",
"f. c #024F89",
"g. c #075182",
"h. c #1F5581",
"j. c #015794",
"k. c #015A96",
"l. c #015C99",
"z. c #135992",
"x. c #1D6B9C",
"c. c #0063A3",
"v. c #0067A9",
"b. c #0069AA",
"n. c #0068A7",
"m. c #106FA7",
"M. c #016FB1",
"N. c #0170B1",
"B. c #007ABD",
"V. c #0D76B0",
"C. c #266EA0",
"Z. c #2678A8",
"A. c #2371A1",
"S. c #69708D",
"D. c #6C7A97",
"F. c #1381BD",
"G. c #72809D",
"H. c #5F84A1",
"J. c #018ACC",
"K. c #0286C8",
"L. c #0091D4",
"P. c #0095D9",
"I. c #0098DC",
"U. c #009FE0",
"Y. c #00A1E1",
"T. c #00A9E6",
"R. c #00B8ED",
"E. c #00CDF9",
"W. c #01C5F5",
"Q. c #8B8883",
"!. c #818FA9",
"~. c #8D9DB6",
"^. c #98A6B0",
"/. c #A8ABA2",
"(. c #EFB286",
"). c #F1BC90",
"_. c #F4C599",
"`. c #F5CA9F",
"'. c #F3C395",
"]. c #EBCBB2",
"[. c #A2AFC2",
"{. c #BBC4D4",
"}. c #D0CED3",
"|. c #D1D0D5",
" X c #C3CCDB",
".X c #EED8D4",
"XX c #DEE3EA",
"oX c #EEEFF3",
"OX c #FFFFFF",
"+X c #F5F6FA",
"@X c #F4E9E3",
/* pixels */
"$.$.$.$.$.$.$.$.$.$.$.$.$.$.$.$.$.$.$.$.$.$.$.$.$.$.$.$.$.$.$.$.$.$.$.$.$.$.$.$.$.$.$.$.$.$.$.$.$.$.$.$.$.$.$.$.$.$.$.$.$.$.$.$.",
"$.$.$.$.$.$.$.$.$.$.$.$.$.$.$.$.$.$.$.$.$.$.$.$.$.$.$.$.$.$.$.$.$.$.$.$.$.$.$.$.$.$.$.$.$.$.$.$.$.$.$.$.$.$.$.$.$.$.$.$.$.$.$.$.",
"$.$.$.$.$.$.$.$.$.$.$.$.$.$.$.$.$.$.$.$.$.$.$.$.$.$.$.$.$.$.$.$.$.$.$.$.$.$.$.$.$.$.$.$.$.$.$.$.$.$.$.$.$.$.$.$.$.$.$.$.$.$.$.$.",
"$.$.$.$.$.$.$.$.$.$.$.$.$.$.$.$.$.$.$.$.$.$.$.$.$.$.$.$.$.$.$.$.$.$.$.$.$.$.$.$.$.$.$.$.$.$.$.$.$.$.$.$.$.$.$.$.$.$.$.$.$.$.$.$.",
"$.$.$.$.$.$.$.$.$.$.$.$.$.$.$.$.$.$.$.$.$.$.$.$.$.$.$.$.$.$.$.$.$.$.$.$.$.$.$.$.$.$.$.$.$.$.$.$.$.$.$.$.$.$.$.$.$.$.$.$.$.$.$.$.",
"$.$.$.$.$.$.$.$.$.$.$.$.$.$.$.$.$.$.$.$.$.$.$.$.$.$.$.$.$.$.$.$.$.$.$.$.$.$.$.$.$.$.$.$.$.$.$.$.$.$.$.$.$.$.$.$.$.$.$.$.$.$.$.$.",
"$.$.$.$.$.$.$.$.$.$.$.$.$.$.$.$.$.$.$.$.$.$.$.$.$.$.$.$.$.$.$.$.$.$.$.$.$.$.$.$.$.$.$.$.$.$.$.$.$.$.$.$.$.$.$.$.$.$.$.$.$.$.$.$.",
"$.$.$.$.$.$.$.$.$.$.$.$.$.$.$.$.$.$.$.$.$.$.$.$.$.$.$.$.$.$.$.$.$.$.$.$.$.$.$.$.$.$.$.$.$.$.$.$.$.$.$.$.$.$.$.$.$.$.$.$.$.$.$.$.",
"$.$.$.$.$.$.$.$.$.$.$.$.$.$.$.$.$.$.$.$.$.$.$.$.$.$.$.$.$.$.$.$.$.$.$.$.$.$.$.$.$.$.$.$.$.$.$.$.$.$.$.$.$.$.$.$.$.$.$.$.$.$.$.$.",
"$.$.$.$.$.$.$.$.$.$.$.$.$.$.$.$.$.$.$.$.$.$.$.$.$.$.$.$.$.$.$.$.$.$.$.$.$.$.$.$.$.$.$.$.$.$.$.$.$.$.$.$.$.$.$.$.$.$.$.$.$.$.$.$.",
"$.$.$.$.$.$.$.$.$.$.$.$.$.$.$.$.$.$.$.$.$.$.$.$.$.$.$.$.$.$.$.$.$.$.$.$.$.$.$.$.$.$.$.$.$.$.$.$.$.$.$.$.$.$.$.$.$.$.$.$.$.$.$.$.",
"$.$.$.$.$.$.$.$.$.$.$.$.$.$.$.$.$.$.$.$.$.$.$.$.$.$.$.$.$.$.$.$.$.$.$.$.$.$.$.$.$.$.$.$.$.$.$.$.$.$.$.$.$.$.$.$.$.$.$.$.$.$.$.$.",
"$.$.$.$.$.$.$.$.$.$.$.$.$.$.$.$.$.$.$.$.$.$.$.$.$.$.$.$.$.$.$.$.$.$.$.$.$.$.$.$.$.$.$.$.$.$.$.$.$.$.$.$.$.$.$.$.$.$.$.$.$.$.$.$.",
"$.$.$.$.$.$.$.$.$.$.$.$.$.$.$.$.$.$.$.$.$.$.$.$.$.$.$.$.$.$.$.$.$.$.$.$.$.$.$.$.$.$.$.$.$.$.$.$.$.$.$.$.$.$.$.$.$.$.$.$.$.$.$.$.",
"$.$.$.$.$.$.$.$.$.$.$.$.$.$.$.$.$.$.$.$.$.$.$.$.$.$.$.$.$.$.$.$.$.$.$.$.$.$.$.$.$.$.$.$.$.$.$.$.$.$.$.$.$.$.$.$.$.$.$.$.$.$.$.$.",
"$.$.$.$.$.$.$.$.$.$.$.$.$.$.$.$.$.$.$.$.$.$.$.$.$.$.$.$.$.$.$.$.$.$.$.$.$.$.$.$.$.$.$.$.$.$.$.$.$.$.$.$.$.$.$.$.$.$.$.$.$.$.$.$.",
"$.$.$.$.$.$.$.$.$.$.$.$.$.$.$.$.$.$.$.$.$.$.$.$.$.$.$.$.$.$.$.$.$.$.$.$.$.$.$.$.$.$.$.$.$.$.$.$.$.$.$.$.$.$.$.$.$.$.$.$.$.$.$.$.",
"$.$.$.$.$.$.$.$.$.$.$.$.$.$.$.$.$.$.$.$.$.$.$.$.$.$.$.$.$.$.$.$.$.$.$.$.$.$.$.$.$.$.$.$.$.$.$.$.$.$.$.$.$.$.$.$.$.$.$.$.$.$.$.$.",
"$.$.$.$.$.$.$.$.$.$.$.$.$.$.$.$.$.$.$.$.$.$.$.$.$.$.$.$.$.$.$.$.$.$.$.$.$.$.$.$.$.$.$.$.$.$.$.$.$.$.$.$.$.$.$.$.$.$.$.$.$.$.$.$.",
"$.$.$.$.$.$.$.$.$.$.$.$.$.$.$.$.$.$.$.$.$.$.$.$.$.$.$.$.$.$.$.$.$.$.$.$.$.$.$.$.$.$.$.$.$.$.$.$.$.$.$.$.$.$.$.$.$.$.$.$.$.$.$.$.",
"$.$.$.$.$.$.$.$.$.$.$.$.$.$.$.$.$.$.$.$.$.$.$.$.$.$.$.$.$.$.$.$.$.$.$.$.$.$.$.$.$.$.$.$.$.$.$.$.$.$.$.$.$.$.$.$.$.$.$.$.$.$.$.$.",
"$.$.$.$.$.$.$.$.$.$.$.$.$.$.$.$.$.$.$.$.$.$.$.$.$.$.$.$.$.$.$.$.$.$.$.$.$.$.$.$.$.$.$.$.$.$.$.$.$.$.$.$.$.$.$.$.$.$.$.$.$.$.$.$.",
"$.$.$.$.$.$.$.$.$.$.$.$.$.$.$.$.$.$.$.$.$.$.$.$.$.$.$.K O.@.$.$.$.$.$.$.$.$.$.$.$.$.$.$.$.$.$.$.$.$.$.$.$.$.$.$.$.$.$.$.$.$.$.$.",
"$.$.$.$.$.$.$.$.$.$.$.$.$.$.$.$.Q F.$.$.$.$.$.$.$.$.$.` H H D $.$.$.$.$.$.$.$.$.$.$.$.$.$.$.$.$.$.$.$.$.$.$.$.$.$.$.$.$.$.$.$.$.",
"$.$.$.$.$.$.$.$.$.$.$.$.$.$.$.$.;.V.I.^ +.$.$.$.$.$.$.} H H H H O.@.$.$.$.$.$.$.$.$.$.$.$.$.$.$.$.$.$.$.$.$.$.$.$.$.$.$.$.$.$.$.",
"$.$.$.$.$.$.$.$.$.$.$.$.$.$.$.$.$.2.N.B.I.F.C.$.$.$.$.$.G H K H H H A $.$.$.$.$.$.$.$.$.$.$.$.$.$.$.$.$.$.$.$.$.$.$.$.$.$.$.$.$.",
"$.$.$.$.$.$.$.$.$.$.$.$.$.$.+.OXOX.Xr.6.x.P.I.I.I.@.+.$.$.H H H H H H u $.$.$.$.$.$.$.$.$.$.$.$.$.$.$.$.$.$.$.$.$.$.$.$.$.$.$.$.",
"$.$.$.$.$.$.$.$.$.$.$.$.$..XOXXX[.{.OX].2.4.N.B.I.I.I.F.$._ H H H H H H A $.$.$.$.$.$.$.$.$.$.$.$.$.$.$.$.$.$.$.$.$.$.$.$.$.$.$.",
"$.$.$.$.$.$.$.$.$.$.$.$.$.$.$.$.( ~.oXOX8.8.8.6.b.P.I.I.I./ R H H K M.b.N.P $.$.$.$.$.$.$.$.$.$.$.$.$.$.$.$.$.$.$.$.$.$.$.$.$.$.",
"$.$.$.$.$.$.$.$.$.$.$.$.$.$.$.$.$.X.D.{.@Xu.u.w.b.b.N.B.I.I.I.L.c.B.I.I.W.R.W x $.$.$.$.$.$.$.$.$.$.$.$.$.$.$.$.$.$.$.$.$.$.$.$.",
"$.$.$.$.$.$.$.$.$.$.$.$.$.$.$.$.$.$.S.G.+Xa.`.).p.7.A.b.b.P.I.I.I.b.I.I.W.E.Y.J.O.$.$.$.$.$.$.$.$.$.$.$.$.$.$.$.$.$.$.$.$.$.$.$.",
"$.$.$.$.$.$.$.$.$.$.$.$.$.$.$.$.$. .F ! ^.XX|.`.`._.u.t.b.b.M.b.I.I.I.E # B.E.R.L.U $.$.$.$.$.$.$.$.$.$.$.$.$.$.$.$.$.$.$.$.$.$.",
"$.$.$.$.$.$.$.$.$.$.$.$.$.$.$.$.$.$.; S !. XOX(.`.`.`.).u.q.b.b.N.I.k.+ . C L.E.Y.b.O.$.$.$.$.$.$.$.$.$.$.$.$.$.$.$.$.$.$.$.$.$.",
"$.$.$.$.$.$.$.$.$.$.$.$.$.$.$.$.$.$.$.[ % >.+.H.+.u.}.s.u.u.b.b.I.J.. -.g < : B.U.R.L.x $.$.$.$.$.$.$.$.$.$.$.$.$.$.$.$.$.$.$.$.",
"$.$.$.$.$.$.$.$.$.$.$.$.$.$.$.$.$.$.$.$.% _ v.y $.%.$.X.W z.W b.L.I.b.v e.. M.I.I.T.W.J.O.$.$.$.$.$.$.$.$.$.$.$.$.$.$.$.$.$.$.$.",
"$.$.$.$.$.$.$.$.$.$.$.$.$.$.$.$.$.$.$.$.G v.T t $.>.$.$.$.{ X b.b.b.y.b.k.B.I.I.I.J.d.I.b.$.$.$.$.$.$.$.$.$.$.$.$.$.$.$.$.$.$.$.",
"$.$.$.$.$.$.$.$.$.$.$.$.$.$.$.$.$.$.$.$.G H M B $.$.$.$.+.    m W 0.i._._./.Z.m.Z.P.N.K.$.' H k.O.$.$.$.$.$.$.$.$.$.$.$.$.$.$.$.",
"$.$.$.$.$.$.$.$.$.$.$.$.$.$.$.$.$.$.$.$.M b M > ; $.$.8 - - @ O X O 1 8.9.u.p.u.p.Q.M.@.$.B H b.c.i $.$.$.$.$.$.$.$.$.$.$.$.$.$.",
"$.$.$.$.$.$.$.$.$.$.$.$.$.$.$.$.+.@.$.$.3 b m $ $ $.$.8 - p f &.&.&.&.o O 2.3.3.:.o.$.$.$.B M H H $.$.$.$.$.$.$.$.$.$.$.$.$.$.$.",
"$.$.$.$.$.$.$.$.$.$.$.$.$.$.Z V O.d.W $.$.[ - p = 9 $.{ s f f f f l &.c k *.k w $.$.$.$.r 5 H b M $.$.$.$.$.$.$.$.$.$.$.$.$.$.$.",
"$.$.$.$.$.$.$.$.$.$.$.$.$.H H y $.} c.L $. .7 p 1 1 n.b.b.b.c.1 3 p f f s a - 0 +.$.$.$.d p , q $.$.$.$.$.$.$.$.$.$.$.$.$.$.$.$.",
"$.$.$.$.$.$.$.$.$.$.$.$.Z H H @.$.$.l.L $.$.$...J v.b.b.b.l.H H H N 2 2 - c - g.b , $.{ f a - $.$.$.$.$.$.$.$.$.$.$.$.$.$.$.$.$.",
"$.$.$.$.$.$.$.$.$.$.$.$.G H $.$.$...v.I $.$.$.} H v.D V D i S H H H H 4.j a 4 g.b b b , s a 7 $.$.$.$.$.$.$.$.$.$.$.$.$.$.$.$.$.",
"$.$.$.$.$.$.$.$.$.$.$.$.G @.$.$.Z v.b.$.$.$.$.$.+.@.$.$.$.$.$.K H H r.a._.q.O.@.m b b b = - $.$.$.$.$.$.$.$.$.$.$.$.$.$.$.$.$.$.",
"$.$.$.$.$.$.$.$.$.$.$.$.$.$.$...v.b.$.$.$.$.$.$.$.$.$.$.$.$.$.] H H p.`.`.^.$.$.$.] 4 b b 9 $.$.$.$.$.$.$.$.$.$.$.$.$.$.$.$.$.$.",
"$.$.$.$.$.$.$.$.$.$.$.$.$.$.Z v.b.@.$.$.$.$.$.$.$.$.$.$.$.$.$.8 h t.`.`.`.h.r $.$.$.$.@.+.$.$.$.$.$.$.$.$.$.$.$.$.$.$.$.$.$.$.$.",
"$.$.$.$.$.$.$.$.$.$.$.$.$.[ c.j.$.$.$.$.$.$.$.$.$.$.$.$.$.@.+.p f c w.t.'.f s 0 $.$.$.$.$.$.$.$.$.$.$.$.$.$.$.$.$.$.$.$.$.$.$.$.",
"$.$.$.$.$.$.$.$.$.$.$.$.Z H H y $.$.$.$.$.$.$.$.$.$.$.A 7 f s a 2 p k &.c l s p r $.$.$.$.$.$.$.$.$.$.$.$.$.$.$.$.$.$.$.$.$.$.$.",
"$.$.$.$.$.$.$.$.$.$.$.$.G H H $.$.$.$.$.$.$.$.$.$.$.V p f f f f 1 1 s a - p 2 f k w $.$.$.$.$.$.$.$.$.$.$.$.$.$.$.$.$.$.$.$.$.$.",
"$.$.$.$.$.$.$.$.$.$.$.| H H O.$.$.$.$.$.$.$.$.$.$.S f f f d f f - - o o - p f &.*.=.$.$.$.$.$.$.$.$.$.$.$.$.$.$.$.$.$.$.$.$.$.$.",
"$.$.$.$.$.$.$.$.$.$.$.| H H O.$.$.$.$.$.$.$.$.$.K f f f f f f g - O   o - f f *.*.*.- $.$.$.$.$.$.$.$.$.$.$.$.$.$.$.$.$.$.$.$.$.",
"$.$.$.$.$.$.$.$.$.$.$.| H R H $.$.$.$.$.$.$.$.z.5 f f f f f f @ o     o - f f z *.l - $.$.$.$.$.$.$.$.$.$.$.$.$.$.$.$.$.$.$.$.$.",
"$.$.$.$.$.$.$.$.$.$.$.$.G R b.h $.$.$.$.$.$.c.b.1 d f f f d s O     X + @ p f f s @ $.$.$.$.$.$.$.$.$.$.$.$.$.$.$.$.$.$.$.$.$.$.",
"$.$.$.$.$.$.$.$.$.$.$.$.1.H v.b.W z.W z.W z.b.b.J * f f f g -     @.$.$.  O 2 1 o 6 $.$.$.$.$.$.$.$.$.$.$.$.$.$.$.$.$.$.$.$.$.$.",
"$.$.$.$.$.$.$.$.$.$.$.$.$.<.H v.b.b.b.b.b.b.c.j.Y * @ p s -   e $.$.$.$.$.{ & & X $.$.$.$.$.$.$.$.$.$.$.$.$.$.$.$.$.$.$.$.$.$.$.",
"$.$.$.$.$.$.$.$.$.$.$.$.$. .1.~ T d.b.b.T K r.t.9.Y     o 6 +.$.$.$.$.$.$.] c.u $.$.$.$.$.$.$.$.$.$.$.$.$.$.$.$.$.$.$.$.$.$.$.$.",
"$.$.$.$.$.$.$.$.$.$.$.$.$.$.$.,.2.J Y Y Y i.5.) L.l.H t $.$.$.$.$.$.$.$.$.] I.k.O.$.$.$.$.$.$.$.$.$.$.$.$.$.$.$.$.$.$.$.$.$.$.$.",
"$.$.$.$.$.$.$.$.$.$.$.$.$.$.$.$.#.@.3.8.2...b.K.b.k.H $.$.$.$.$.$.$.$.$.$.] N.b.c.U $.$.$.$.$.$.$.$.$.$.$.$.$.$.$.$.$.$.$.$.$.$.",
"$.$.$.$.$.$.$.$.$.$.$.$.$.$.$.$.$.$.$.$.J.j.v.j.v.H $.$.$.$.$.$.$.$.$.$.$.] b.f.b.f.L.@.$.$.$.$.$.$.$.$.$.$.$.$.$.$.$.$.$.$.$.$.",
"$.$.$.$.$.$.$.$.$.$.$.$.$.$.$.$.$.$.$.} b.R T d.T @.$.$.$.$.$.$.$.$.$.$.$.$.T l.T l.v.u $.$.$.$.$.$.$.$.$.$.$.$.$.$.$.$.$.$.$.$.",
"$.$.$.$.$.$.$.$.$.$.$.$.$.$.$.$.$.$.$.$.$.$.$.$.$.$.$.$.$.$.$.$.$.$.$.$.$.$.$.$.$.$.$.$.$.$.$.$.$.$.$.$.$.$.$.$.$.$.$.$.$.$.$.$.",
"$.$.$.$.$.$.$.$.$.$.$.$.$.$.$.$.$.$.$.$.$.$.$.$.$.$.$.$.$.$.$.$.$.$.$.$.$.$.$.$.$.$.$.$.$.$.$.$.$.$.$.$.$.$.$.$.$.$.$.$.$.$.$.$.",
"$.$.$.$.$.$.$.$.$.$.$.$.$.$.$.$.$.$.$.$.$.$.$.$.$.$.$.$.$.$.$.$.$.$.$.$.$.$.$.$.$.$.$.$.$.$.$.$.$.$.$.$.$.$.$.$.$.$.$.$.$.$.$.$.",
"$.$.$.$.$.$.$.$.$.$.$.$.$.$.$.$.$.$.$.$.$.$.$.$.$.$.$.$.$.$.$.$.$.$.$.$.$.$.$.$.$.$.$.$.$.$.$.$.$.$.$.$.$.$.$.$.$.$.$.$.$.$.$.$."
};