/* XPM */
static char *ce25277d84ff42808f659d6431479e5aBJcxOfBzkbFKuYFt[] = {
/* columns rows colors chars-per-pixel */
"64 64 129 2 ",
"   c #240706",
".  c #2F0702",
"X  c #250A05",
"o  c #2B0A04",
"O  c #240A0A",
"+  c #2E0A09",
"@  c #3F0701",
"#  c #340A03",
"$  c #3E0902",
"%  c #3A0D08",
"&  c #420701",
"*  c #480702",
"=  c #420902",
"-  c #4C0C03",
";  c #400908",
":  c #540D04",
">  c #5A0E05",
",  c #551104",
"<  c #5B1205",
"1  c #5B1309",
"2  c #641306",
"3  c #6A1506",
"4  c #6A1B06",
"5  c #651309",
"6  c #6B1509",
"7  c #64190C",
"8  c #6B180A",
"9  c #751405",
"0  c #7D1706",
"q  c #761905",
"w  c #7D1906",
"e  c #731709",
"r  c #7D1709",
"t  c #75190A",
"y  c #7C1909",
"u  c #772007",
"i  c #7A2105",
"p  c #77230A",
"a  c #7A220A",
"s  c #4E2622",
"d  c #542624",
"f  c #5A2722",
"g  c #642B25",
"h  c #6C2E28",
"j  c #7E3128",
"k  c #811705",
"l  c #811906",
"z  c #831C05",
"x  c #891E05",
"c  c #801708",
"v  c #831C08",
"b  c #881F08",
"n  c #802506",
"m  c #8A2306",
"M  c #8D2207",
"N  c #8A2405",
"B  c #8F2B07",
"V  c #84210A",
"C  c #87230B",
"Z  c #8A2308",
"A  c #8D2409",
"S  c #85280B",
"D  c #8F2A09",
"F  c #8E2C08",
"G  c #902606",
"H  c #952907",
"J  c #942A07",
"K  c #992D03",
"L  c #982E04",
"P  c #992E07",
"I  c #9C2D04",
"U  c #9C2C06",
"Y  c #9D2C06",
"T  c #932609",
"R  c #952B09",
"E  c #962E0B",
"W  c #9A2D09",
"Q  c #9C2D08",
"!  c #953005",
"~  c #9C3104",
"^  c #96310A",
"/  c #9F3109",
"(  c #9F300D",
")  c #A12F05",
"_  c #A33306",
"`  c #A23A05",
"'  c #A43409",
"]  c #A0310F",
"[  c #AB3C09",
"{  c #AB3B0C",
"}  c #A53A13",
"|  c #AC3D12",
" . c #B33F10",
".. c #803127",
"X. c #80312A",
"o. c #823C2A",
"O. c #A94107",
"+. c #AB4308",
"@. c #A94408",
"#. c #AC430D",
"$. c #AC4B0C",
"%. c #B4400F",
"&. c #B14A0C",
"*. c #BD5905",
"=. c #BC550D",
"-. c #BF5B08",
";. c #BD5A0B",
":. c #AB4A10",
">. c #B44214",
",. c #BA4613",
"<. c #B74812",
"1. c #BF4C13",
"2. c #BD4A14",
"3. c #B54518",
"4. c #B94519",
"5. c #BD4A19",
"6. c #BF5B10",
"7. c #9A4227",
"8. c #97422A",
"9. c #9A4328",
"0. c #C05A0B",
"q. c #C34B13",
"w. c #C34D12",
"e. c #C34B14",
"r. c #C44B15",
"t. c #C24E14",
"y. c #C54D17",
"u. c #C34C19",
"i. c #C44D18",
/* pixels */
"^ P 0 y y w r y P I P P -.*.y.y.P P w y P I q.t.Q P r.y.w y y y = = = = P I y y $ $ X X = , e.u.w 6 = $ $ $ X X X o $ $ $ : y ..",
"C m w y y y 1 < 4 4 m m @.+.w.y.P P M N m m ( ] M Z ( ( < < < < = = 2 5 4 4 y w < , # # $ : [ | < , = $ o o X X X o $ = 2 6 w X.",
"y y y y y y $ $ $ = w y P P w.y.K P P P y y y y y y y y $ = $ $ $ = y y $ * r w y e $ $ $ - P R $ $ $ $ X X X X X o $ * y y y X.",
"y y y y y y $ $ $ = w 0 P P t.i.P P P P w y y y y y y y $ = $ $ $ = y t $ = r y y e = $ $ : P R = = $ $ X X X X X o $ * y y w X.",
"y y y y * = $ $ $ = w 0 I I I I l l l w w y = = = = = = = $ $ $ = $ = = o o = = w y t t F D y y y 3 $ $ X X X X X o $ $ = > y X.",
"y y y y = = $ $ $ = w y I I P I 0 r r y y y $ $ $ $ $ $ = $ $ $ = = $ $ X X $ = w y r w P J y y y 3 $ $ X X X X X o $ $ = > w X.",
"y y y y = $ $ $ $ $ w y P P K I w w y y y t $ $ $ $ $ $ $ $ $ $ $ $ = $ X o $ = y y r l P J y w y 6 $ $ X X X X X o $ $ $ : y X.",
"y y = = $ $ o X X o = = w k P P w y = = o . = $ $ $ $ $ X X X X $ $ = $ $ # X o = - W P 1.3.y t = = $ $ X X X X X o $ $ $ : w X.",
"y r = $ $ $ X X X X $ = w w I W w y $ = X X = = $ $ $ $ X X X X $ = $ $ $ $ X X = - P I t.3.y y $ $ $ $ O X X X X o = $ $ : y X.",
"y r = $ # # X X X X $ $ 6 6 J J z z - : o o - - $ $ # # X X X X $ # $ $ $ $ o o - < J J >.} 3 3 = = : - o o o o o # $ = < 2 y X.",
"y y $ $ X X X X X X $ $ $ $ w w P P r y $ = 9 9 $ % X X X X X X X X = $ $ $ $ = y y w y y e $ $ $ - y t $ $ $ $ $ $ $ * I G y X.",
"y y $ $ X X X X X X $ $ $ $ y y P P y y $ = 9 9 $ $ X X X X X X X X = $ $ $ $ = y y y y y e $ $ $ - y t $ $ $ $ $ $ $ - K G y X.",
"7 6 = $ o o X X X X # # $ $ y r ' ' z b : : 2 2 $ $ o o X X X X X X # # $ $ $ = 3 6 y y z w : - $ = 6 5 $ = : : : : < 2 P G y X.",
"$ $ $ $ $ $ X X X X X X $ $ y r t.t.I W w y $ $ $ = $ $ X X X X X X X X $ $ $ $ $ = y y I J y t = = $ $ $ - y y r z P P P G y X.",
"$ $ $ $ $ $ X X X X X X $ $ y y y.t.K I w y $ $ $ $ $ $ X X X X X X X X $ $ = $ $ - y w I J w y $ $ $ $ $ - w w w z P P I T y ..",
"$ $ $ $ $ $ $ $ X X X X $ $ - - ' _ 2.2.w y $ $ o o $ $ X X X X X X X X $ $ $ $ $ = - : I W J J e t S S e q J J J / 2.>.l 3 - f ",
"$ $ $ $ $ $ $ $ X X X X $ $ $ $ W P w.y.y y $ $ X X $ $ X X X X X X X X $ $ $ $ $ $ = = P P P W w z P R y z P P P ' w.e.y 2 $ s ",
"$ $ $ $ $ $ $ $ X X X X $ $ $ $ W P w.y.r y $ $ X X $ $ X X X X X X X X $ $ $ $ $ $ = = W I P W w z P W y z P P P ' y.5.y 2 $ s ",
"$ $ $ $ $ $ $ $ $ $ $ $ $ $ $ $ z z _ _ y y o o X X o o X X X X $ # X X $ $ $ $ $ = e e w l z z J J K I 4.,.2.2.2.| m C y 2 $ s ",
"$ $ $ $ $ $ $ $ = $ $ = $ $ $ $ y k P P y t X X X X X X X X X X $ $ X X $ $ $ $ $ * y w y y y w Q P I ) w.y.w.w.w.| y y y 2 $ s ",
"$ $ $ $ $ $ $ $ $ $ = * $ $ $ $ y k P W 8 8 X X X X X X X X X o $ $ o o $ $ $ $ * : y y e q t q B J J W 2.e.w.w.2.} e e e 1 = s ",
"$ $ X X $ $ $ $ $ = y y = $ $ $ y 0 P P X X X X X X X X X X $ $ $ $ $ $ $ $ $ = y w y y = = = $ & - r w I _ t.2.w 3 $ $ X o $ s ",
"$ $ X X $ $ $ $ $ = w y $ $ $ $ y 0 P P X X X X X X X X X o $ $ $ $ $ $ $ $ $ = y y y w = $ $ $ $ - r l I ' t.2.y 3 $ $ X o $ s ",
"$ $ o o $ $ $ $ $ $ e e = $ * * y y J R # # X X X X X X X X $ $ $ $ $ $ $ = * - l l y y = = * * * : e e J _ 2.3.t 5 % # o # $ s ",
"$ $ $ $ $ $ $ $ $ = $ $ $ = y y y w 0 w y y X X X X X X X X $ $ $ $ $ $ $ = y w P R y y = * y y y 8 & * y z P J = # X o $ $ $ s ",
"$ $ $ $ $ $ $ $ $ $ $ $ $ = y y y w w w y t X X X X X X X X $ $ $ $ $ $ $ = y w P R y y = * r r r 6 $ = y z P J $ # X o = $ $ s ",
"$ $ 2 5 = = $ $ $ $ $ $ $ $ y y : : : : r y 1 1 # # # # # # $ $ $ $ $ $ 2 2 G A b v > , = * y y , : $ = : 2 m C 2 , # # $ $ $ s ",
"$ $ y y $ = $ $ $ $ $ $ $ $ y y = = = $ y y y y $ $ $ $ $ $ $ $ $ $ $ = r l P P r e $ $ $ * y y $ $ $ $ $ - w y y 3 $ $ $ $ $ s ",
"$ $ y y = = $ $ $ $ = $ = = r y = $ $ $ y y y y $ $ $ $ $ $ $ $ $ $ $ $ w l K W w e $ $ $ * y y $ $ $ $ $ - w y y 6 $ = $ $ $ s ",
"$ $ : : $ $ $ $ $ $ a p 2 2 : : $ $ $ $ : > y y p a 2 2 5 5 $ = 5 3 a a | } m m y e $ $ $ = : : $ $ $ $ $ - y y y q 2 1 $ - 5 h ",
"$ $ $ $ $ $ $ $ $ @ K P 0 y $ $ $ $ $ $ $ = y y P I y y y y $ = y l P P w.<.r y y e $ $ $ $ $ $ $ $ $ $ $ - y y y y y 0 $ : w X.",
"$ $ $ $ $ $ $ $ = & P W y y $ $ $ $ $ $ $ = y w P I w w l y = = y l I I t.5.y y y e $ $ $ $ $ $ $ $ $ $ = - y y y 0 0 q = > y j ",
"X X X X $ $ $ $ y y w w & = $ $ $ $ $ $ $ = y w P I W P u.2.W R y l t.1.w q = = = = $ $ X o $ $ X o $ = w 3 = = y z P E y 5 = s ",
"X X X X $ $ $ $ y y w w $ $ $ $ $ $ $ $ $ = y w P P I K y.1.P ! r l w.u.y t $ $ $ $ $ $ X o $ $ X o $ = r 6 $ = w z P J r 5 $ s ",
"O X X X $ $ = = w w y t = $ $ $ $ $ $ $ $ = y y R R P P w.2.I P k l w.1.y t = $ $ $ $ $ X o $ $ X o $ = y 8 $ = w z I P k 3 $ s ",
"O X $ $ = $ y y P R $ @ $ $ X X X o $ $ $ $ = $ = = 0 0 I I t.y.t.5.P P y t $ $ $ $ X X X X X X X o $ $ $ = $ = P ` 0.=.P a = s ",
"O X $ $ $ $ y y P W $ = $ $ X X X X $ $ $ $ $ $ $ = y 0 I I r.y.t.e.P W y t $ $ $ $ X X X X X X X o $ $ $ $ $ = P ` -.=.P a $ s ",
"+ o $ $ : > m m A A $ $ $ $ X X X X # # $ $ > : $ $ 2 2 u i %.%.t.e.P W y t $ $ # # X X X X X X X o $ $ $ = : < P ` &.&.G t $ s ",
"$ $ $ $ y w P P 0 y = $ $ $ X X X X X X $ = w y $ $ $ $ $ = P K t.u.W W y t $ $ X X X X X X X X X o $ $ $ - w w P P P J y 5 $ s ",
"$ $ $ $ y w P P c y = $ $ $ X X X X X X $ = w y $ $ $ $ $ = P I t.e.I P y t $ $ X X X X X X X X X o = $ $ - r c P P P J w 2 $ s ",
"$ $ > > m m O.O.w y = $ # # X X X X X X $ = 2 1 $ = $ $ $ * { { %. .{ { y y : , # # # o X X # # # # $ = > 2 x m A M G m y e > g ",
"; $ y y Q K -.-.w y $ $ X X X X X X X X $ = $ $ $ $ $ $ $ = y.t.I I w.t.w y y y $ $ $ $ X o $ $ $ $ $ = y z P I y y r y y y y ..",
"$ $ w 0 I P -.-.w y $ $ X X X X X X X X $ = $ $ = $ $ $ $ * t.t.I ~ w.t.w y r y $ $ $ $ X o $ $ $ $ $ = r z P P y w w w y y y X.",
"e e W R =.=.z z * = $ $ X X X X X X X X $ $ $ $ $ = t t D D ~ I w z _ / y e = = $ $ $ $ $ $ $ $ $ - t q Q D l w = * = * * < y X.",
"y w Q P 0.6.0 w $ $ $ $ X X X X X X X X $ $ $ $ $ = y y I K P W 0 c I P y e $ $ $ $ $ $ $ $ $ $ $ - y w P J y t $ $ $ $ $ : w X.",
"y w I I -.-.r y $ $ $ $ X X X X X X X X $ $ $ $ $ = y y P I P P 0 c P P y e $ $ $ $ $ $ $ $ $ $ $ - w w P J r t $ $ $ $ $ : y X.",
"R P 1.1.~ ~ r w $ $ $ $ $ $ X X X X $ $ $ $ $ $ $ = y 0 1.5.P I <.<.I P y y e t $ $ $ $ $ $ $ = t C 2.5.P J y t $ $ X X o # = d ",
"R P y.i.I P 0 y $ $ $ $ $ $ X X X X $ $ $ $ $ $ $ = y 0 i.t.P I w.t.P W y y y y $ $ $ $ $ $ $ = y M w.1.P J y t $ # X X X o $ s ",
"R J 2.,._ _ z z - - $ $ $ = o o o o $ $ $ $ $ = > > M m t.e._ _ w.u._ ' z z r y - - - - - - - : z A 2.,._ I y t $ $ o o X o $ s ",
"y w P P t.t.P P y y $ $ $ $ $ $ $ $ $ $ $ $ $ = I P t.t.w.w.w.w.w.y.t.y.P P y y y y y y y y y w I P P I w.>.w t $ $ $ $ X o $ s ",
"y r P I t.t.P P y y $ $ $ $ $ $ $ $ $ $ $ $ $ = I P w.w.w.w.w.w.w.w.w.t.P P y y y y y y y y y w P P P ) w.>.y t $ $ $ $ X o $ s ",
"v z J J ,.2.I P y y $ $ $ $ $ $ : : : - , , , , ' _ t.w.<.,.,.,.,.,.,.,.J J M Z z z M A z z z z J J J I >.} y y - = $ $ o # $ s ",
"R P 0 0 Q I P P y y = $ $ $ $ $ y 0 0 r W I I K t.w.w.y.I I I I I I I P r v y.t.I ) r.w.I I I P 0 y y w w y y y w 3 $ $ $ $ $ s ",
"E W y w Q I P P y w $ $ $ $ $ $ y 0 w r P P I K w.t.w.y.I I P I I P P W w z w.u.I _ t.t.I Q I W y y y y y w y y y 8 = = = $ = s ",
"b z : : b z P P :.$.3 3 3 3 3 3 J J w y P P z z ' ' T T I W z z z a < < w z w.t.,.>._ ' z z z v : : : : : : : : y w n a 3 q n o.",
"y y = $ y w P P -.-.y y y y y w P W y r P P w w P W y w W W y y y t $ $ y z t.t.y.2.P P 0 y y y $ $ $ $ $ $ $ = y b P R w x P 9.",
"y y & $ y w P P 0.-.r w y y y w Q W y 0 P W y w P W y w W P y y y t @ $ y z w.y.y.2.P P y y y y $ $ $ $ $ $ $ = y b P R w x P 7.",
"- - $ $ - : z z ` ` $.$.J J J J b v y y z z y y , , - - , , - - y y 6 3 - > M A ' _ z v - - - - $ $ $ $ $ $ $ = : 2 P ~ &.#.P 7.",
"$ = = = = $ r y P K -.*.P P P I y y y y y y y y $ = $ $ $ $ $ $ y y w y $ = y w P J 0 y $ $ $ $ $ $ $ $ $ $ $ $ $ < P ~ *.&.P 9.",
"$ $ $ $ $ $ y t P K -.-.~ K W W r y y w y y y y $ $ $ $ $ $ $ = t y w y $ = y w P J q t $ $ $ $ $ $ $ $ $ $ $ $ $ < P ~ -.&.W 8.",
"$ $ X X $ $ = $ W K *.-.-.-.c w y y y y = = = $ = $ $ $ $ $ $ $ = = w y   # y w r e = = $ $ $ $ X X X X X o $ $ $ - k l P G 0 ..",
"$ $ X X $ $ $ $ I K -.*.*.-.y w y w w y $ $ $ $ $ = $ $ $ $ $ $ $ = w y X o y w y e = = $ $ = $ X X X X X o $ $ $ : 0 z P T r ..",
"% $ X X $ $ $ $ R P -.-.-.-.l w t t t y $ $ = $ $ = $ $ $ $ $ $ $ = t t X # y y y e $ = $ $ $ $ X X X X X o $ $ $ : l z P A t j ",
"X X X X $ $ $ $ y w K K K K P W = = $ $ X X $ $ $ $ $ $ X o $ $ $ $ = $ X # y y y e $ $ $ $ X X X X X X X o $ $ $ < P R w 2 = d "
};