/* XPM */
static char *_eaaa42913684f4a895e98e60fc63b0f[] = {
/* columns rows colors chars-per-pixel */
"64 64 228 2 ",
"   c #1C231E",
".  c #232A23",
"X  c #292E26",
"o  c #252D28",
"O  c #233326",
"+  c #2B332B",
"@  c #36382A",
"#  c #32382D",
"$  c #2C3731",
"%  c #323B33",
"&  c #383E35",
"*  c #255700",
"=  c #2C5C01",
"-  c #345F06",
";  c #2B5214",
":  c #2E6000",
">  c #336403",
",  c #366708",
"<  c #3B6C0D",
"1  c #3E710C",
"2  c #3D6B12",
"3  c #3F7111",
"4  c #3E422F",
"5  c #3C4337",
"6  c #3B4A34",
"7  c #3A443B",
"8  c #3F483F",
"9  c #3A5730",
"0  c #3E632D",
"q  c #41750E",
"w  c #416E12",
"e  c #437413",
"r  c #467A14",
"t  c #497D16",
"y  c #46751A",
"u  c #4A751B",
"i  c #477818",
"p  c #4B7C1B",
"a  c #507F1F",
"s  c #474934",
"d  c #414739",
"f  c #444A3B",
"g  c #52553E",
"h  c #4C7A24",
"j  c #537D24",
"k  c #57603C",
"l  c #4A7235",
"z  c #384E44",
"x  c #444D42",
"c  c #4A4F40",
"v  c #4B5245",
"b  c #4D554A",
"n  c #53594B",
"m  c #595D49",
"M  c #535C50",
"N  c #585F51",
"B  c #4B6A4A",
"V  c #556642",
"C  c #5F614A",
"Z  c #5D6355",
"A  c #5F675B",
"S  c #64694B",
"D  c #697147",
"F  c #636754",
"G  c #6A6C55",
"H  c #646A5B",
"J  c #6A6E5E",
"K  c #6C7553",
"L  c #6E715B",
"P  c #72745D",
"I  c #7B7E58",
"U  c #636E62",
"Y  c #6E7363",
"T  c #68786B",
"R  c #727765",
"E  c #767B64",
"W  c #7B7D63",
"Q  c #7A7D6B",
"!  c #4C8117",
"~  c #4E821C",
"^  c #51841E",
"/  c #548A1E",
"(  c #4F8121",
")  c #538423",
"_  c #568A24",
"`  c #598C26",
"'  c #578528",
"]  c #59862A",
"[  c #578829",
"{  c #5B8C2B",
"}  c #5C9127",
"|  c #5E922B",
" . c #5D8B33",
".. c #5F9131",
"X. c #608F2D",
"o. c #61952E",
"O. c #64992E",
"+. c #638C37",
"@. c #639433",
"#. c #669A33",
"$. c #699D35",
"%. c #679439",
"&. c #6B9D3A",
"*. c #729C3C",
"=. c #6BA02D",
"-. c #6CA136",
";. c #6DA23B",
":. c #6CA739",
">. c #71A53C",
",. c #74A93E",
"<. c #78AC3C",
"1. c #588444",
"2. c #5D8051",
"3. c #778049",
"4. c #6C9644",
"5. c #769C46",
"6. c #729355",
"7. c #73A442",
"8. c #75AA42",
"9. c #79AD45",
"0. c #7AA248",
"q. c #78A44C",
"w. c #7BAD4A",
"e. c #7CB347",
"r. c #7EB24A",
"t. c #738769",
"y. c #7D816E",
"u. c #828A54",
"i. c #8E9657",
"p. c #849C5D",
"a. c #86A84B",
"s. c #81B54D",
"d. c #8CB54A",
"f. c #84BA4D",
"g. c #97A25C",
"h. c #86B656",
"j. c #85BB52",
"k. c #89BD53",
"l. c #90B052",
"z. c #99B754",
"x. c #A5BE50",
"c. c #838467",
"v. c #85866C",
"b. c #8C8C6F",
"n. c #879E62",
"m. c #91946B",
"M. c #808571",
"N. c #858A75",
"B. c #8A8E77",
"V. c #8C9877",
"C. c #8E927C",
"Z. c #939275",
"A. c #959678",
"S. c #9B9B7C",
"D. c #97AB68",
"F. c #91B269",
"G. c #94B668",
"H. c #99A373",
"J. c #A3A27C",
"K. c #AFB976",
"L. c #89C44E",
"P. c #8CC357",
"I. c #92C55C",
"U. c #95CA5C",
"Y. c #A6C256",
"T. c #BACB55",
"R. c #97C963",
"E. c #9ACC64",
"W. c #9CD265",
"Q. c #A2D669",
"!. c #AFC873",
"~. c #CDD75D",
"^. c #899182",
"/. c #939780",
"(. c #979A85",
"). c #9BA088",
"_. c #95A690",
"`. c #A3A384",
"'. c #AAAA86",
"]. c #A1A58F",
"[. c #ABAD8C",
"{. c #AFB184",
"}. c #A9BC86",
"|. c #B4B28C",
" X c #A8AC98",
".X c #B1B293",
"XX c #B8B694",
"oX c #BEBB91",
"OX c #B1B59D",
"+X c #B5B999",
"@X c #BBBB9C",
"#X c #C2BF8F",
"$X c #B6C88C",
"%X c #B5CB8E",
"&X c #B8C996",
"*X c #BEC3AA",
"=X c #C7D485",
"-X c #D0DC8F",
";X c #C4C29B",
":X c #CAC79B",
">X c #C2D49B",
",X c #D0D89A",
"<X c #D6E19C",
"1X c #C0C2A1",
"2X c #C8C8A4",
"3X c #CBCBAC",
"4X c #C9D5A7",
"5X c #D2D1AC",
"6X c #D7D8AC",
"7X c #CBCEB5",
"8X c #CFD4B8",
"9X c #CBDBB9",
"0X c #D5D5B4",
"qX c #DAD9B7",
"wX c #DCDCBC",
"eX c #DCE3AB",
"rX c #D8E3B3",
"tX c #E1E7B6",
"yX c #E5ECBB",
"uX c #D6DAC3",
"iX c #DBE6C6",
"pX c #E3E5C7",
"aX c #E8E7C5",
"sX c #EAEFC6",
"dX c #E9EDCB",
"fX c #EBF0CA",
"gX c #EDF1D3",
"hX c #F1F3DB",
/* pixels */
"p e I.s.) %.8.8.f.W.@.) I.f.o.f.Q.U.8.r o.#.1 ~ / ) ~ 9.r.#.` ~ o.| @.| -.U.9.* r { _ / ` / / f.I.8.@.e | r : >.W.W.,.t | 9.-.$.",
"*.@.) ^ j ] X.#.{ ) ' ) O.` i ' ^ k.k.9.>.O.>.-.~ _ e / ~ r $.8.@.` ~ ~ $.r.#., r o.-.>.s.>.} r.,.| @.{ ;.o.> 8.W.U.I.} o.@.{ #.",
"*.*.p u u ) X.) u - u u ` ) , 2 > 8.f.U.>.} j.r.^ $.#./ q e o.>.$.) 1 ) ` #.#.< _ #.$.s.W.f.-.-.o._ _ { 8.-.} >.s.P.P.f.$.~ _ _ ",
"^ ) &.@.p 0.h.w w j j ) I.s.= u u o.>.U.f.>.} #.8.I.I.$.$.>.r 1 r.#.1 _ #.| | r >.8.1 o.U.Q.f.e * < 1 ~ 9.k.U.9.| >.f.Q.$.< _ _ ",
">.$.{ @.@.@.*.y p 5.' { U.,.* &.h.^ } s.8.8._ ` #._ | ) O.I.$.| | -.r.` _ r.>., e.I./ ] O.>.j.d.z.@.,.8.| #.#.| ` | $.#.o.t ) | ",
"r.$.e { 9.X.j y ) s.@.{ j.>.< 9.R.o.` -.-.;._ ) | , * / -.P.f.9.` >.I.#./ s.w.> $.j.| z.x.7.8.I.Y.7.e.j.#.| | #.>.#.} _ o.$.#.>.",
"` ' @.{ o.{ u - y w.) = ) { ` $.,.k.r./ r r e &.W.#.: -.s.8.<.,.f.9.! #.9.o.) ( , > 1 l.Y.a.{ r.7.@.| -.8.r.P.P.f.,.P.Q.e.8.f.e.",
"' { { #.k.7.u j ) ] j w j ' j.,.O.,.O.1 #.>.e { k.#.q | #.O.-.>.>.O.t { @._ ) p r p , +.z.a. .s.&.*.~.h._ >.U.U.I.8.$.o.>.U.W.k.",
"@.X.` 9.k.#.X.@.' e w p p ` U.>.| | _ e 8.k.u ~ @.` ) t _ _ _ ` >.o.r ] 5.t t , _ ' y < x.Y.a.6.q.0.a.j.e #.W.I.z.l.@.^ -.R.P.r.",
"~ { k.j.o.` p ^ o.&.w.7.] e | | 9.8.-./ t / q q q } 8.{ ~ r / ` I.k.&.E.~.~.w.j.8.Y.5.t ' x.z.4.0.@.O._ < { E.T.T.a.7.I.#.! q > ",
"` -.w.o.e #.w._ | r.>.#.{ _ 8._ ~ r.8./ r ~ #.-.-.$.| ` { r { o.&.;._ h.T.z.*.k.&.Y.4.) ] x.T.0.0.l.0.7.5.' T.Y.a.+.#.-.;.-.| _ ",
"$.9._ t p $.I.o.` s.$.#.` #.W._ , j.e.t t _ j.Q.W.,.~ _ { ) | | r r = 8.Y.0.0.w.+.z.1.o.x.T.T.4.4.a.4.%.l ) 5.*.%.8.$.r 8.W.s.8.",
"_ o.^ -.P.r.9.` e ^ ^ ` ` -.W.f.L.r._ < ~ t / ~ ` o.-.#.` | ` _ P.8.< w.!.d.@.6.4.0.6.j.Y.a.1.B 2.%.(  .r.l.w.@.~ _ @.` -.s._ ) ",
"{ ] u #.P.9.| p p { ^ %.F.%X%X&X>X&X}.p.6.6.%.#.-.$.#.} o.o.t _ r.-., %X~.T.a.4.1.+.1.1.H.&X2X8X8X*XH.V.q.a.Y.a.4.@.&.#.8.,.r e ",
"p u , e ` ` ` ) &.s.G.hXhXgXdXdXpXwX0X3X1X'.v.Q.4X6X4X4X4X%X5.) p %.}.tXwX2X+X[.W B 1.OXdXdXpXuX8X*X].M.H V 5.a.4.j.w.#.7.-.t 1 ",
"< , - - , e ] ' _ _ &XaXpXpXwXqX5X3X3X;XXXS.R v.wXqXqXqX3X@Xc.) D.wXuXuX8X3X1X XC.Z V.uXuXuX7X*XOX).y.H b b h X. .' < 1 #.8._ @.",
"2 j y w ) ) _ ~ ~ $.%X5X3X3X2X2X;X;X@X|.`.W F S ;XXX.X`.`.Z.v 6 [.7X*X*XOX`.)./.R v  X*XOX@X].).C.Q U Z z 7 l t ` ) ^ p &.#.{ @.",
"' %.j X.7.@.@._ ;.E.G.V.b.Z.S.S.A.b.c.W G m s s C C m g s @ @ X c y.y.R H Z b b 8 & c N M n b v x 8 7 $ + O %.@.{ ) &.W.o.1 r.w.",
") @.r.s.` #.&.@.&.{ p h s s s s 4 4 @ @ m S S s 4 C `.XXXX[.S.S + X X v Q E L Z & . f K c .     d Z H Z N B t @.7.) { s.j.s.{ { ",
"p @.k.s.{ 8.r.` _ ( y +X'.m.I K s 4 s 7XdX5XXXE s 0XwXqX5X1X'.b.f @ B.3X@X.X[./.Z X @XXXA.n . y. X].^.Q U T  .@.&.) { #.s.k.r u ",
"2 ) ~ 7.E.E.R.1 e 7.G.aX6X2X2X|.P s c.2X.XS.W S W 3X3X2X@X[.Z.c.v d @X].(.(.C.Q M o Z.A.W m & (.C.N.R A N M G.7.' i e t ,.k._ < ",
"y h ) ) { 8.w.) ( &.] {.Z.c.I C s 4 g S n s 4 @ W @XoX|.3X1XW R c # E Q R Y Z b %   . % % + . H J Y A N n z @.{ [ < _ s.I.R.&.&.",
"h 2 p ( p #.@.[ ) ..< H.qX5X5X5X2XXX[.J.b.K s @ C oX{.`.S.A.E J 5 . + + @ # X .       . d 5 # . . + + o o l t _ ] u $.W.j.s.8.9.",
", < [ _ ] | { p p y  .dXwX6X5X2X;XoXoXXX[.A.m @ @ {.'.S.Z.v.J H + . . Y *X3XOX(.R c . F /.R Z 5 . + % + 9 &.w.) 3 &.9.9.| ^ p o.",
"[ @.j.8.~ &.;.w.7.> ] qX2X;XoX{.'.J.S.A.b.P s @ @ c.`.A.b.E H v . . H uXuXOX`./.B.M.J % $ # # Q B.y.R Y T t.&._ ) &.;.o.{ ` u ) ",
";.8.I.r.r &.w.R.h., h oX{.J.A.c.W S C g g s @ @ @ 4 c.W L Z 8 . . X OX*X).C.N.M.y.Q E N o . ^.N.Q R J A A T @.{ | ) ' @.@.@.' p ",
"..] , < ) { | { [ 3 @.4.I s s @ s g k g s s @ g XXs X # + X d Z v # OXB.M.Q W E E E R Z o + N.R Y J A N M M { j.R.r t j.#.{ { ) ",
"u i j [ @.' ] w.&.p ..q.6XS W 3XpXaXpXqX5X;Xv.d |.E X o m +X8X.XM.5 (.Q E E R R R Y H b . + Z Z Z M v x x B ) #.;.> u k.) e ( u ",
"e e &.4.[ u ' k.s.) ' D.;Xm.dXpX6X2X:X:X;X;X[.G + c o % .X3X2X[.Q % N.R Y Y Y J J Z b %     + & & % + + 9 ) ) u u = p 8.{ 3 > 3 ",
"w.0.e ( { ) , : e ) [ D.J.'.5X:X:X;X#X#XoXXXS.F + + o % N.'.`.A.H . n Y J J J N 7 b J Q N.M.E H n x 7 & l [ ' &.h.p ' @.@.] ) [ ",
"&.&.p p ' @.{ p j y ..5.G W Z.S.J.J.S.Z.c.P n @ s n c % % b Z N % . + f b x & % (.OX].(.C.B.N.Q R J M b b l ) ' @.{ ] e p [ ' ' ",
"] ' y ) { 7.s.0.@.* ..%XqX1X'.S.c.K g & # # P @XwXwX5X[.L # o X [.wX).d + + + (. X].(.C.N.[.C.E J Z b v 8 z e e u 9.@.: ) [ > ) ",
"{ ) p ] [ ' ) , e 4.n.fXaXaXpXwX5X2X.XC s XXeXaX6X:XoXoX`.P & x aXaXpX+Xn $ 7 (./.C.N.M.Q C.M.Y A M b 8 8 z h @.| ] { p e ] s.r.",
"#.t ) ] ( i w , u &.}.6X5X2X:X@X@X[.S.J `.6X6X:X#X|.J.S.`.W v 5 0XpX0X@XS.f 7 Q y.Q E R Y H Z Z N n b b % % B #.) { ] [ e p Q.I.",
"-.| | ' ~ e , y ) { }.;XoXoX|.'.J.Z.W n :X:X;XoX{.J.S.b.W E N + .X5X2X.X`.H # H H J J J H Z A N n b b 7 % + 2.| r w.#.{ | &.R.s.",
"j.s.| ;.j.&.@.' a @.J.'.{.'.`.`.A.Q F 5 S.`.`.`.A.b.c.P H H v + Z .X+X[./.H % x N +XH Z N Z N n v x 8 7 % + B ` r I.w.~ $.8.#./ ",
"P.r.:.r.r.>.7.| _ @.+.W m.Z.b.W C c # X s m G L G G F Z N n 5 . X J B.N.y.Z % + f F N M b M n v x 7 7 % $ + 0 @.>.U.8.e >.s.) ) ",
"} o.8.$./ $.>.~ _ #.] H.S.b.c.W W W W P C s @ # + + + + X . . + + + 7 v n v X . . X & 8 8 8 8 7 7 % % % + + ; 7.E.E.>.= -.E._ &.",
"u ) _ { -.r.P.r.-.7.tXdXwX0X2XqX0X5X5X3X2X@X.X`.b.L n % + B.OX XOX/.F 7 . + ).].N.H f X                 . 9 = p @.$.9.9.P.E.f.s.",
"] p ) #.9.e.j.W.j.G.qX3X;X@XXX@X@XXXXXXX[.`.S.Z.v.Q L n N 1X7X3X*X`.Q n o Q 8X*XOX(.Q Z %     f n v x z 7 9 y e ~ ) -.s.s.I.r.r.",
"{ ) ;.w.&.#.:.>.;.|.XX[.'.J.`.`.'.J.S.S.A.b.v.Q R L Z n c C. X].).M.H x . N.OX X].^.T N 8 . R ^.R H N b z 7 g ) { @.) > ] w., e ",
"{ e &.@.1 u @.{ ' H.S.S.Z.v.Q c.c.b.v.c.Q E P J F N n x + d Z H Z n x % . x N.N.M.T A M 7 H ].C.Q J Z b v 7 z h e h.;.i ( i e ( ",
"] , ] ' < p ) < e V.v.W L G G G L P P J H F Z N b v f % . X + & d c c v v 5 % 8 b M n x + (.].B.Q R Z n v 7 % l 1 j.j...2 = p { ",
"] u ] @.{ ) e = > K L J n n n m N N m n b v c f 8 5 # & E `.+X@X+X+X.X/.B.B.B.Q Z x % + . C.(.N.Q E H M v 7 % B < < u &.{ ) | #.",
"' e u u ' &.&.&.{ j V s f d s d f f f f f 8 5 % + X N.3X3X1X+XXXXX[.S.(.b.`.).E E Y Z b . y.C.Q R J N b x 7 $ z y < e $.>.&.] ( ",
"j e < w ) 7.s.j.h.4X3XS.E m 5 + . . . . . . .   . (.@X+X[.`.`.`.S.C./.F (.uX.XB.M A M x + Z y.H Z b b x x % $ % 0 ' @.{ ,.f.t e ",
"{ { w u e e ~ ) rXhXdXpXwX3X@XC.F s .   . # d + d OX`.S.A.Z.v.y.P R N Y pX1X.XB.x b x 7 + 5 H Z v 8 7 & 7 $ + + 9 j p @.>.,.p r ",
"o.] @.] = ' | F.gXgXdX0X1X@X[.Z.E F v . . S.@Xm Z (.B.B.v.Q Y Z b n f *X8XOXA.E 7 7 7 % o . b v 8 7 % $ $ $ $ + 6 l t._.V.k.$.^ ",
"&.| r.&.> { w.4XdXaX;X|.[.`.Z.E P F n % + |.XXR Z M.Q R L H M v b 8 N dX2X[.y.F 7 . + + .   5 7 & % + + A U % + % b U ^.^.h.$.o.",
"` ` _ | w.&Xv.pXpX2X[.'.S.b.E L F C c d X A.S.F N J J H Z n b f 7 % v.uXOX/.R m 5 . P OX@XB.5 % % % X ^.*X^.8 + & 8 n U T K R.P.",
"] t -.;.3X`.E 0X0X'.`.A.v.E L F m n c d . m P v c N n b v x 7 % # X ).3X).E Z v 7 v 2X8XOX].H + X X +  X^.n 7 % % 7 8 b M B 9.9.",
"5.n.h.h.[.Q Q 3X.XA.Z.c.P H Z n n b x 5 . X s k k S S g k k k m F # Q C.R Z b b % c `.[./.M.J 5 . X . M J Z & + + % % 8 8 x y / ",
"D.B.R Z F F v.@XS.b.Q J F N F N.B.Z 5 % # g I 7X3XOXN.3.i.i.3.3.u.S W N.n 5 M v # @ g P P 1X2X[./.R s (.OX).y.J H f + $ % Z t.#.",
"0.J.m.u.I D c.`.b.R Z Z m ].dXuXuX Xv 5 s D 2X X(.C.M.S 3.g.D.i.i.i.8XS.E m s k k u.i.g.'.aX5X[.A.N.N H E P C m c s 5 + F @XM.4.",
"' y G.6XeX,XK.{.H.I S C N.dXuX8XuX*Xy.g C u.[.E W W E S u.!.=X!.K.D.D.H.H.g.g.D.!.!.K.D.g.H.S.c.v.y.R g 3.u.g.g.g.i.i.m.H.`.B.K ",
"' ' ~ ` F.%XtXtXeXeX,X{.{.1X1X@X1X&X{.H.i.i.H.m.H.H.v.+Xm.%X%X=X,X<X<X,X-X-X=X=X=X-X=X=X=X=X!.K.m.C S 3.g.!.=X-X-X-X,XeX4X%X4...",
" .' ` _ ~ ;.r.h.rXsXyXyXyXyXtXyXyXyXyXtXtXtXtXeXeX6X5X2X:X,X,X=XeXyXyXyXyXyXyXeXeX<X<X<X<X<XeX<X<X,X%XK.K.=X-X<X=Xz.5.y | -.@.{ ",
"2 , j.j.t s.W.t ^ %X4XdXfXsXsXsXdXsXdXdXdXdXdXdXdXdXdXgXgXgXgXdXsXsXsXsXyXyXyXyXyXyXyXyXyXyXyXyXyXrX>X%XF.a.E.&.~ ) { 7.9.>.t 1 ",
"- y $.8.-.| ) @.u { t r E.!.}.iXgXhXhXhXhXhXhXhXhXhXgXhXgXgXgXgXgXgXfXfXfXfXfXsXsXdXdXgXgXdX4XF.] p -.,._ ] ;.e < &.>.9.$.o.<.=.",
", u | :.:.~ > p ..| { } f.s.@.{ 5.5.F.}.%X9XiXdXiXhXhXhXhXhXhXhXhXhXgXgXgXgXgXgXgX4X%XF.j , y ) ) e >.r.{ ] | u < j @.8.) t Q.L.",
"> : L.L.~ #.&.< _ k.W.k.1 r -.I.R.> t s.) < @.` ) / | w.h.h.5.+.!.!.G.F.p.!.h.%.) p o.{ p e [ w.&.p ,.r., ( I.,.) 2 , [ p ) I.f.",
"&.-.W.L._ | #.~ #.W.e.-._ { #.,.r.t ~ 9.p < 8.-.&._ ~ 8.$.~ q p I.k.{ / _ 9.| , 7.9.) t p < 1 | $._ o.{ < ( s.} e ) 2 h p ) >.O.",
"P.U.L.9.#.) p p $.I.#./ ;.@.| #.-.| _ { ) ) I.P.8.{ 1 ] u = q o.j.s.) ` o.p e 1 s.k.` / ` u e ' ~ { ) i [ { ) ^ p ] [ ( ) ) ) p ",
"/ q t ~ ~ ) [ { ^ / s.E.r r j.;.` j.;.< > e >.>.} e < { @.) e e ` ` ^ r.r.> p R.8.P.f.j.7._ ( p ( { ) p @.{ r w.R.) < , ) 7.[ .."
};
